<svg width="25" height="25" viewBox="0 0 25 25" fill="none" xmlns="http://www.w3.org/2000/svg">
<path fill-rule="evenodd" clip-rule="evenodd" d="M12.5 0C5.59646 0 0 5.59639 0 12.5C0 19.4035 5.59646 25 12.5 25C19.4036 25 25 19.4035 25 12.5C25 5.59639 19.4036 0 12.5 0ZM12.5 22.5C6.98601 22.5 2.5 18.014 2.5 12.5C2.5 6.98601 6.98601 2.5 12.5 2.5C18.0141 2.5 22.5 6.98601 22.5 12.5C22.5 18.014 18.0141 22.5 12.5 22.5ZM14.0652 7.5C14.0652 8.4063 13.4054 9.0625 12.5127 9.0625C11.5839 9.0625 10.9402 8.4063 10.9402 7.48266C10.9402 6.59494 11.6013 5.9375 12.5127 5.9375C13.4054 5.9375 14.0652 6.59494 14.0652 7.5ZM11.2527 11.25H13.7527V18.75H11.2527V11.25Z" fill="white"/>
</svg>
