<svg width="26" height="22" viewBox="0 0 26 22" fill="none" xmlns="http://www.w3.org/2000/svg">
<path d="M8.2418 0.533994C7.46992 0.757432 6.88086 1.31603 6.56094 2.1336C6.50508 2.27579 6.46953 2.58556 6.4543 3.12892L6.42383 3.91603L4.36719 3.94142C2.42227 3.96681 2.29023 3.97696 1.98047 4.0836C1.09687 4.37814 0.411328 5.10431 0.116797 6.05392C0.0304688 6.33829 0.0253906 6.68868 0.0253906 12.752C0.0253906 18.8152 0.0304688 19.1656 0.116797 19.45C0.279297 19.9832 0.502734 20.3488 0.883594 20.7297C1.28984 21.1359 1.80273 21.4152 2.30547 21.5067C2.73203 21.5828 23.268 21.5828 23.6945 21.5067C24.6898 21.3289 25.5531 20.5164 25.8832 19.45C25.9695 19.1656 25.9746 18.8152 25.9746 12.752C25.9746 6.68868 25.9695 6.33829 25.8832 6.05392C25.5887 5.10431 24.9031 4.37814 24.0246 4.0836C23.7047 3.97696 23.5879 3.96681 21.6328 3.94142L19.5762 3.91603L19.5457 3.12892C19.5305 2.58556 19.4949 2.27579 19.4391 2.1336C19.1141 1.30587 18.525 0.752353 17.7328 0.533994C17.4129 0.442588 17.1285 0.43751 12.9746 0.442588C8.90703 0.442588 8.53125 0.452744 8.2418 0.533994ZM14.2848 6.53634C16.1891 6.9172 17.8141 8.18165 18.7078 9.97423C19.7641 12.0918 19.4949 14.7274 18.0273 16.6266C17.0727 17.8606 15.7879 18.6578 14.1934 19.0031C13.6348 19.125 12.3652 19.125 11.8066 19.0031C10.202 18.6578 8.87656 17.8301 7.94727 16.591C5.62148 13.5086 6.51523 9.17189 9.87695 7.22696C11.177 6.47032 12.7512 6.22657 14.2848 6.53634Z" fill="#008037"/>
<path d="M12.4415 8.61838C10.8317 8.82151 9.44033 10.0352 8.97822 11.6449C8.81064 12.2188 8.81064 13.2903 8.97822 13.8692C9.31338 15.0219 10.1716 16.0375 11.2278 16.5352C11.8017 16.8043 12.2892 16.9059 13.0001 16.9059C13.711 16.9059 14.1985 16.8043 14.7724 16.5352C15.8185 16.0426 16.6614 15.0524 17.0169 13.8946C17.1896 13.341 17.1896 12.2188 17.022 11.6449C16.5497 10.0098 15.1735 8.82151 13.5079 8.61838C13.0306 8.55745 12.9188 8.55745 12.4415 8.61838Z" fill="#008037"/>
</svg>
