<svg width="1440" height="810" viewBox="0 0 1440 810" fill="none" xmlns="http://www.w3.org/2000/svg">
<g clip-path="url(#clip0_285_1354)">
<rect width="1440" height="810" fill="#FEFEE3"/>
<rect x="296" y="810" width="810" height="823" transform="rotate(-90 296 810)" fill="#008037"/>
<g clip-path="url(#clip1_285_1354)">
<path d="M1071 810L1081.8 790.7C1092.7 771.3 1114.3 732.7 1111 694.2C1107.7 655.7 1079.3 617.3 1062.7 578.8C1046 540.3 1041 501.7 1043.5 463C1046 424.3 1056 385.7 1056.8 347C1057.7 308.3 1049.3 269.7 1047.7 231.2C1046 192.7 1051 154.3 1046.2 115.8C1041.3 77.3 1026.7 38.7 1019.3 19.3L1012 0H1363V19.3C1363 38.7 1363 77.3 1363 115.8C1363 154.3 1363 192.7 1363 231.2C1363 269.7 1363 308.3 1363 347C1363 385.7 1363 424.3 1363 463C1363 501.7 1363 540.3 1363 578.8C1363 617.3 1363 655.7 1363 694.2C1363 732.7 1363 771.3 1363 790.7V810H1071Z" fill="#008037"/>
<path d="M1135 810L1140 790.7C1145 771.3 1155 732.7 1151.8 694.2C1148.7 655.7 1132.3 617.3 1125.2 578.8C1118 540.3 1120 501.7 1122.7 463C1125.3 424.3 1128.7 385.7 1136 347C1143.3 308.3 1154.7 269.7 1153.3 231.2C1152 192.7 1138 154.3 1130.3 115.8C1122.7 77.3 1121.3 38.7 1120.7 19.3L1120 0H1363V19.3C1363 38.7 1363 77.3 1363 115.8C1363 154.3 1363 192.7 1363 231.2C1363 269.7 1363 308.3 1363 347C1363 385.7 1363 424.3 1363 463C1363 501.7 1363 540.3 1363 578.8C1363 617.3 1363 655.7 1363 694.2C1363 732.7 1363 771.3 1363 790.7V810H1135Z" fill="#40A062"/>
<path d="M1187 810L1190.2 790.7C1193.3 771.3 1199.7 732.7 1197.7 694.2C1195.7 655.7 1185.3 617.3 1176.5 578.8C1167.7 540.3 1160.3 501.7 1160.8 463C1161.3 424.3 1169.7 385.7 1182.2 347C1194.7 308.3 1211.3 269.7 1216.8 231.2C1222.3 192.7 1216.7 154.3 1206 115.8C1195.3 77.3 1179.7 38.7 1171.8 19.3L1164 0H1363V19.3C1363 38.7 1363 77.3 1363 115.8C1363 154.3 1363 192.7 1363 231.2C1363 269.7 1363 308.3 1363 347C1363 385.7 1363 424.3 1363 463C1363 501.7 1363 540.3 1363 578.8C1363 617.3 1363 655.7 1363 694.2C1363 732.7 1363 771.3 1363 790.7V810H1187Z" fill="#7FBF8D"/>
<path d="M1250 810L1254.5 790.7C1259 771.3 1268 732.7 1266.3 694.2C1264.7 655.7 1252.3 617.3 1239.8 578.8C1227.3 540.3 1214.7 501.7 1213.7 463C1212.7 424.3 1223.3 385.7 1231.8 347C1240.3 308.3 1246.7 269.7 1247 231.2C1247.3 192.7 1241.7 154.3 1242.3 115.8C1243 77.3 1250 38.7 1253.5 19.3L1257 0H1363V19.3C1363 38.7 1363 77.3 1363 115.8C1363 154.3 1363 192.7 1363 231.2C1363 269.7 1363 308.3 1363 347C1363 385.7 1363 424.3 1363 463C1363 501.7 1363 540.3 1363 578.8C1363 617.3 1363 655.7 1363 694.2C1363 732.7 1363 771.3 1363 790.7V810H1250Z" fill="#B7DBB3"/>
<path d="M1289 810L1285.5 790.7C1282 771.3 1275 732.7 1274.5 694.2C1274 655.7 1280 617.3 1284.7 578.8C1289.3 540.3 1292.7 501.7 1291 463C1289.3 424.3 1282.7 385.7 1285.8 347C1289 308.3 1302 269.7 1303.7 231.2C1305.3 192.7 1295.7 154.3 1292.7 115.8C1289.7 77.3 1293.3 38.7 1295.2 19.3L1297 0H1363V19.3C1363 38.7 1363 77.3 1363 115.8C1363 154.3 1363 192.7 1363 231.2C1363 269.7 1363 308.3 1363 347C1363 385.7 1363 424.3 1363 463C1363 501.7 1363 540.3 1363 578.8C1363 617.3 1363 655.7 1363 694.2C1363 732.7 1363 771.3 1363 790.7V810H1289Z" fill="#FEFEE3"/>
</g>
<path d="M1071 810L1081.8 790.7C1092.7 771.3 1114.3 732.7 1111 694.2C1107.7 655.7 1079.3 617.3 1062.7 578.8C1046 540.3 1041 501.7 1043.5 463C1046 424.3 1056 385.7 1056.8 347C1057.7 308.3 1049.3 269.7 1047.7 231.2C1046 192.7 1051 154.3 1046.2 115.8C1041.3 77.3 1026.7 38.7 1019.3 19.3L1012 0H1363V19.3C1363 38.7 1363 77.3 1363 115.8C1363 154.3 1363 192.7 1363 231.2C1363 269.7 1363 308.3 1363 347C1363 385.7 1363 424.3 1363 463C1363 501.7 1363 540.3 1363 578.8C1363 617.3 1363 655.7 1363 694.2C1363 732.7 1363 771.3 1363 790.7V810H1071Z" fill="#008037"/>
<path d="M1120 810L1119 775.5C1117.5 733 1146.5 673 1147.5 635C1147.5 596 1126.1 565.5 1119 527C1111.8 488.5 1113.8 476.2 1116.5 437.5C1119.1 398.8 1140.2 358.7 1147.5 320C1154.8 281.3 1148.9 268.5 1147.5 230C1146.2 191.5 1138 154.3 1130.3 115.8C1122.7 77.3 1121.3 38.7 1120.7 19.3L1120 0H1363V19.3C1363 38.7 1363 77.3 1363 115.8C1363 154.3 1363 192.7 1363 231.2C1363 269.7 1363 308.3 1363 347C1363 385.7 1363 424.3 1363 463C1363 501.7 1363 540.3 1363 578.8C1363 617.3 1363 655.7 1363 694.2C1363 732.7 1363 771.3 1363 790.7V810H1120Z" fill="#40A062"/>
<path d="M1183 810L1180 790.5C1177 770.5 1200 710 1198 671.5C1196 633 1185.3 617.3 1176.5 578.8C1167.7 540.3 1160.3 501.7 1160.8 463C1161.3 424.3 1169.7 385.7 1182.2 347C1194.7 308.3 1211.3 269.7 1216.8 231.2C1222.3 192.7 1216.7 154.3 1206 115.8C1195.3 77.3 1189 40 1186 19L1183 0H1363V19.3C1363 38.7 1363 77.3 1363 115.8C1363 154.3 1363 192.7 1363 231.2C1363 269.7 1363 308.3 1363 347C1363 385.7 1363 424.3 1363 463C1363 501.7 1363 540.3 1363 578.8C1363 617.3 1363 655.7 1363 694.2C1363 732.7 1363 771.3 1363 790.7V810H1183Z" fill="#7FBF8D"/>
<path d="M1257 810L1260.5 790.5C1264 770.5 1268 732.7 1266.3 694.2C1264.7 655.7 1252.3 617.3 1239.8 578.8C1227.3 540.3 1214.7 501.7 1213.7 463C1212.7 424.3 1223.3 385.7 1231.8 347C1240.3 308.3 1246.7 269.7 1247 231.2C1247.3 192.7 1241.7 154.3 1242.3 115.8C1243 77.3 1250 38.7 1253.5 19.3L1257 0H1363V19.3C1363 38.7 1363 77.3 1363 115.8C1363 154.3 1363 192.7 1363 231.2C1363 269.7 1363 308.3 1363 347C1363 385.7 1363 424.3 1363 463C1363 501.7 1363 540.3 1363 578.8C1363 617.3 1363 655.7 1363 694.2C1363 732.7 1363 771.3 1363 790.7V810H1257Z" fill="#B7DBB3"/>
<path d="M1289 810L1285.5 790.7C1282 771.3 1275 751.5 1274.5 713C1274 674.5 1297.2 601.2 1295.5 562.5C1297.2 601.2 1293.8 523.8 1295.5 562.5C1293.8 523.8 1281.6 456.2 1284.7 417.5C1287.9 378.8 1299.8 300.5 1301.5 262C1303.1 223.5 1292 174.5 1289 136C1286 97.5 1298 51 1293 22.5L1289 0H1363V19.3C1363 38.7 1363 77.3 1363 115.8C1363 154.3 1363 192.7 1363 231.2C1363 269.7 1363 308.3 1363 347C1363 385.7 1363 424.3 1363 463C1363 501.7 1363 540.3 1363 578.8C1363 617.3 1363 655.7 1363 694.2C1363 732.7 1363 771.3 1363 790.7V810H1289Z" fill="#FEFEE3"/>
<path d="M388 0L377.2 19.3C366.3 38.7 344.7 77.3 348 115.8C351.3 154.3 379.7 192.7 396.3 231.2C413 269.7 418 308.3 415.5 347C413 385.7 403 424.3 402.2 463C401.3 501.7 409.7 540.3 411.3 578.8C413 617.3 408 655.7 412.8 694.2C417.7 732.7 432.3 771.3 439.7 790.7L447 810H96V790.7C96 771.3 96 732.7 96 694.2C96 655.7 96 617.3 96 578.8C96 540.3 96 501.7 96 463C96 424.3 96 385.7 96 347C96 308.3 96 269.7 96 231.2C96 192.7 96 154.3 96 115.8C96 77.3 96 38.7 96 19.3V0L388 0Z" fill="#008037"/>
<path d="M339 0L340 34.5C341.5 77 312.5 137 311.5 175C311.5 214 332.9 244.5 340 283C347.2 321.5 345.2 333.8 342.5 372.5C339.9 411.2 318.8 451.3 311.5 490C304.2 528.7 310.1 541.5 311.5 580C312.8 618.5 321 655.7 328.7 694.2C336.3 732.7 337.7 771.3 338.3 790.7L339 810H96V790.7C96 771.3 96 732.7 96 694.2C96 655.7 96 617.3 96 578.8C96 540.3 96 501.7 96 463C96 424.3 96 385.7 96 347C96 308.3 96 269.7 96 231.2C96 192.7 96 154.3 96 115.8C96 77.3 96 38.7 96 19.3V0L339 0Z" fill="#40A062"/>
<path d="M276 0L279 19.5C282 39.5 259 100 261 138.5C263 177 273.7 192.7 282.5 231.2C291.3 269.7 298.7 308.3 298.2 347C297.7 385.7 289.3 424.3 276.8 463C264.3 501.7 247.7 540.3 242.2 578.8C236.7 617.3 242.3 655.7 253 694.2C263.7 732.7 270 770 273 791L276 810H96V790.7C96 771.3 96 732.7 96 694.2C96 655.7 96 617.3 96 578.8C96 540.3 96 501.7 96 463C96 424.3 96 385.7 96 347C96 308.3 96 269.7 96 231.2C96 192.7 96 154.3 96 115.8C96 77.3 96 38.7 96 19.3V0L276 0Z" fill="#7FBF8D"/>
<path d="M202 0L198.5 19.5C195 39.5 191 77.3 192.7 115.8C194.3 154.3 206.7 192.7 219.2 231.2C231.7 269.7 244.3 308.3 245.3 347C246.3 385.7 235.7 424.3 227.2 463C218.7 501.7 212.3 540.3 212 578.8C211.7 617.3 217.3 655.7 216.7 694.2C216 732.7 209 771.3 205.5 790.7L202 810H96V790.7C96 771.3 96 732.7 96 694.2C96 655.7 96 617.3 96 578.8C96 540.3 96 501.7 96 463C96 424.3 96 385.7 96 347C96 308.3 96 269.7 96 231.2C96 192.7 96 154.3 96 115.8C96 77.3 96 38.7 96 19.3V0L202 0Z" fill="#B7DBB3"/>
<path d="M170 0L173.5 19.3C177 38.7 184 58.5 184.5 97C185 135.5 161.8 208.8 163.5 247.5C161.8 208.8 165.2 286.2 163.5 247.5C165.2 286.2 177.4 353.8 174.3 392.5C171.1 431.2 159.2 509.5 157.5 548C155.9 586.5 167 635.5 170 674C173 712.5 161 759 166 787.5L170 810H96V790.7C96 771.3 96 732.7 96 694.2C96 655.7 96 617.3 96 578.8C96 540.3 96 501.7 96 463C96 424.3 96 385.7 96 347C96 308.3 96 269.7 96 231.2C96 192.7 96 154.3 96 115.8C96 77.3 96 38.7 96 19.3V0L170 0Z" fill="#FEFEE3"/>
<rect width="146" height="810" fill="#FEFEE3"/>
<rect x="1312" width="128" height="810" fill="#FEFEE3"/>
</g>
<defs>
<clipPath id="clip0_285_1354">
<rect width="1440" height="810" fill="white"/>
</clipPath>
<clipPath id="clip1_285_1354">
<rect width="351" height="810" fill="white" transform="matrix(-1 0 0 -1 1363 810)"/>
</clipPath>
</defs>
</svg>
