<svg width="24" height="24" viewBox="0 0 24 24" fill="none" xmlns="http://www.w3.org/2000/svg">
<mask id="path-1-outside-1_167_3239" maskUnits="userSpaceOnUse" x="6.4187" y="0.588074" width="17" height="17" fill="black">
<rect fill="white" x="6.4187" y="0.588074" width="17" height="17"/>
<path d="M19.6017 1.06091C19.4985 1.09841 19.3298 1.16872 19.2267 1.22497C19.1095 1.28591 16.9439 3.42341 13.5735 6.79841L8.10791 12.2734L7.74229 14.1015C7.42823 15.6953 7.39073 15.9484 7.43291 16.0984C7.49385 16.3 7.74698 16.539 7.94385 16.5859C8.0376 16.6047 8.65635 16.5015 9.76729 16.2812C10.6907 16.0984 11.5204 15.9297 11.6095 15.9062C11.7407 15.8687 12.8564 14.7765 17.2626 10.3656C23.436 4.18278 22.9767 4.69841 22.9767 3.9531C22.972 3.31091 22.8829 3.16091 21.861 2.13903C21.172 1.44997 20.9564 1.26247 20.736 1.16403C20.4126 1.01403 19.8876 0.967158 19.6017 1.06091ZM20.8626 3.15153C21.5001 3.78903 21.6032 3.91091 21.5798 4.00466C21.561 4.0656 21.3595 4.30466 21.1251 4.53903L20.7032 4.96091L19.8689 4.12653L19.0392 3.29685L19.4892 2.85153C19.7423 2.6031 19.9767 2.40622 20.0282 2.40622C20.0798 2.40622 20.422 2.70622 20.8626 3.15153ZM18.8751 5.14841L19.6954 5.96872L15.3876 10.2765L11.0798 14.5843L10.0767 14.7812C9.52823 14.8937 9.06416 14.9687 9.04541 14.9547C9.03135 14.9359 9.10635 14.4765 9.21416 13.9281L9.41104 12.9297L13.7095 8.62653C16.072 6.26403 18.0173 4.3281 18.0314 4.3281C18.0454 4.3281 18.4251 4.69841 18.8751 5.14841Z"/>
</mask>
<path d="M19.6017 1.06091C19.4985 1.09841 19.3298 1.16872 19.2267 1.22497C19.1095 1.28591 16.9439 3.42341 13.5735 6.79841L8.10791 12.2734L7.74229 14.1015C7.42823 15.6953 7.39073 15.9484 7.43291 16.0984C7.49385 16.3 7.74698 16.539 7.94385 16.5859C8.0376 16.6047 8.65635 16.5015 9.76729 16.2812C10.6907 16.0984 11.5204 15.9297 11.6095 15.9062C11.7407 15.8687 12.8564 14.7765 17.2626 10.3656C23.436 4.18278 22.9767 4.69841 22.9767 3.9531C22.972 3.31091 22.8829 3.16091 21.861 2.13903C21.172 1.44997 20.9564 1.26247 20.736 1.16403C20.4126 1.01403 19.8876 0.967158 19.6017 1.06091ZM20.8626 3.15153C21.5001 3.78903 21.6032 3.91091 21.5798 4.00466C21.561 4.0656 21.3595 4.30466 21.1251 4.53903L20.7032 4.96091L19.8689 4.12653L19.0392 3.29685L19.4892 2.85153C19.7423 2.6031 19.9767 2.40622 20.0282 2.40622C20.0798 2.40622 20.422 2.70622 20.8626 3.15153ZM18.8751 5.14841L19.6954 5.96872L15.3876 10.2765L11.0798 14.5843L10.0767 14.7812C9.52823 14.8937 9.06416 14.9687 9.04541 14.9547C9.03135 14.9359 9.10635 14.4765 9.21416 13.9281L9.41104 12.9297L13.7095 8.62653C16.072 6.26403 18.0173 4.3281 18.0314 4.3281C18.0454 4.3281 18.4251 4.69841 18.8751 5.14841Z" fill="black"/>
<path d="M19.6017 1.06091C19.4985 1.09841 19.3298 1.16872 19.2267 1.22497C19.1095 1.28591 16.9439 3.42341 13.5735 6.79841L8.10791 12.2734L7.74229 14.1015C7.42823 15.6953 7.39073 15.9484 7.43291 16.0984C7.49385 16.3 7.74698 16.539 7.94385 16.5859C8.0376 16.6047 8.65635 16.5015 9.76729 16.2812C10.6907 16.0984 11.5204 15.9297 11.6095 15.9062C11.7407 15.8687 12.8564 14.7765 17.2626 10.3656C23.436 4.18278 22.9767 4.69841 22.9767 3.9531C22.972 3.31091 22.8829 3.16091 21.861 2.13903C21.172 1.44997 20.9564 1.26247 20.736 1.16403C20.4126 1.01403 19.8876 0.967158 19.6017 1.06091ZM20.8626 3.15153C21.5001 3.78903 21.6032 3.91091 21.5798 4.00466C21.561 4.0656 21.3595 4.30466 21.1251 4.53903L20.7032 4.96091L19.8689 4.12653L19.0392 3.29685L19.4892 2.85153C19.7423 2.6031 19.9767 2.40622 20.0282 2.40622C20.0798 2.40622 20.422 2.70622 20.8626 3.15153ZM18.8751 5.14841L19.6954 5.96872L15.3876 10.2765L11.0798 14.5843L10.0767 14.7812C9.52823 14.8937 9.06416 14.9687 9.04541 14.9547C9.03135 14.9359 9.10635 14.4765 9.21416 13.9281L9.41104 12.9297L13.7095 8.62653C16.072 6.26403 18.0173 4.3281 18.0314 4.3281C18.0454 4.3281 18.4251 4.69841 18.8751 5.14841Z" stroke="black" stroke-width="0.4" mask="url(#path-1-outside-1_167_3239)"/>
<mask id="path-2-outside-2_167_3239" maskUnits="userSpaceOnUse" x="-0.976562" y="2.97656" width="22" height="22" fill="black">
<rect fill="white" x="-0.976562" y="2.97656" width="22" height="22"/>
<path d="M2.08594 3.89063C1.17656 4.07813 0.435938 4.72969 0.13125 5.61563L0.0234375 5.92969V13.9219V21.9141L0.13125 22.2234C0.398438 23.0016 0.998438 23.6016 1.77188 23.8688L2.08594 23.9766H10.0781H18.0703L18.3844 23.8688C19.1484 23.6016 19.725 23.0344 20.025 22.2375L20.1328 21.9609L20.1469 16.4672C20.1563 11.0156 20.1563 10.9688 20.0625 10.7813C19.9547 10.5703 19.6875 10.4063 19.4531 10.4063C19.2188 10.4063 18.9516 10.5703 18.8438 10.7813C18.75 10.9641 18.75 11.0438 18.75 16.2797C18.75 22.2516 18.7734 21.8719 18.3984 22.2422C18.0188 22.6219 18.6938 22.5938 10.0781 22.5938C1.4625 22.5938 2.1375 22.6219 1.75781 22.2422C1.37813 21.8625 1.40625 22.5375 1.40625 13.9219C1.40625 5.30625 1.37813 5.98125 1.75781 5.60156C2.12813 5.22656 1.74844 5.25 7.72031 5.25C12.9563 5.25 13.0359 5.25 13.2188 5.15625C13.4297 5.04844 13.5938 4.78125 13.5938 4.54688C13.5938 4.3125 13.4297 4.04531 13.2188 3.9375C13.0359 3.84375 12.9609 3.84375 7.65469 3.84844C4.69688 3.85313 2.18906 3.87188 2.08594 3.89063Z"/>
</mask>
<path d="M2.08594 3.89063C1.17656 4.07813 0.435938 4.72969 0.13125 5.61563L0.0234375 5.92969V13.9219V21.9141L0.13125 22.2234C0.398438 23.0016 0.998438 23.6016 1.77188 23.8688L2.08594 23.9766H10.0781H18.0703L18.3844 23.8688C19.1484 23.6016 19.725 23.0344 20.025 22.2375L20.1328 21.9609L20.1469 16.4672C20.1563 11.0156 20.1563 10.9688 20.0625 10.7813C19.9547 10.5703 19.6875 10.4063 19.4531 10.4063C19.2188 10.4063 18.9516 10.5703 18.8438 10.7813C18.75 10.9641 18.75 11.0438 18.75 16.2797C18.75 22.2516 18.7734 21.8719 18.3984 22.2422C18.0188 22.6219 18.6938 22.5938 10.0781 22.5938C1.4625 22.5938 2.1375 22.6219 1.75781 22.2422C1.37813 21.8625 1.40625 22.5375 1.40625 13.9219C1.40625 5.30625 1.37813 5.98125 1.75781 5.60156C2.12813 5.22656 1.74844 5.25 7.72031 5.25C12.9563 5.25 13.0359 5.25 13.2188 5.15625C13.4297 5.04844 13.5938 4.78125 13.5938 4.54688C13.5938 4.3125 13.4297 4.04531 13.2188 3.9375C13.0359 3.84375 12.9609 3.84375 7.65469 3.84844C4.69688 3.85313 2.18906 3.87188 2.08594 3.89063Z" fill="black"/>
<path d="M2.08594 3.89063C1.17656 4.07813 0.435938 4.72969 0.13125 5.61563L0.0234375 5.92969V13.9219V21.9141L0.13125 22.2234C0.398438 23.0016 0.998438 23.6016 1.77188 23.8688L2.08594 23.9766H10.0781H18.0703L18.3844 23.8688C19.1484 23.6016 19.725 23.0344 20.025 22.2375L20.1328 21.9609L20.1469 16.4672C20.1563 11.0156 20.1563 10.9688 20.0625 10.7813C19.9547 10.5703 19.6875 10.4063 19.4531 10.4063C19.2188 10.4063 18.9516 10.5703 18.8438 10.7813C18.75 10.9641 18.75 11.0438 18.75 16.2797C18.75 22.2516 18.7734 21.8719 18.3984 22.2422C18.0188 22.6219 18.6938 22.5938 10.0781 22.5938C1.4625 22.5938 2.1375 22.6219 1.75781 22.2422C1.37813 21.8625 1.40625 22.5375 1.40625 13.9219C1.40625 5.30625 1.37813 5.98125 1.75781 5.60156C2.12813 5.22656 1.74844 5.25 7.72031 5.25C12.9563 5.25 13.0359 5.25 13.2188 5.15625C13.4297 5.04844 13.5938 4.78125 13.5938 4.54688C13.5938 4.3125 13.4297 4.04531 13.2188 3.9375C13.0359 3.84375 12.9609 3.84375 7.65469 3.84844C4.69688 3.85313 2.18906 3.87188 2.08594 3.89063Z" stroke="black" stroke-width="0.4" mask="url(#path-2-outside-2_167_3239)"/>
</svg>
