<svg width="26" height="20" viewBox="0 0 26 20" fill="none" xmlns="http://www.w3.org/2000/svg">
<path d="M8.80003 19.0296C8.80003 19.564 9.24775 19.9972 9.80003 19.9972C10.3523 19.9972 10.8 19.564 10.8 19.0296H8.80003ZM9.80003 16.1513L8.80077 16.1143C8.80027 16.1267 8.80003 16.1389 8.80003 16.1513H9.80003ZM13 13.2743L12.9648 14.2413C12.9883 14.242 13.0117 14.242 13.0352 14.2413L13 13.2743ZM16.2 16.1513H17.2C17.2 16.1389 17.1997 16.1267 17.1993 16.1143L16.2 16.1513ZM15.2 19.0296C15.2 19.564 15.6477 19.9972 16.2 19.9972C16.7522 19.9972 17.2 19.564 17.2 19.0296H15.2ZM9.80003 18.062C9.24775 18.062 8.80003 18.4952 8.80003 19.0296C8.80003 19.564 9.24775 19.9972 9.80003 19.9972V18.062ZM16.2 19.9972C16.7522 19.9972 17.2 19.564 17.2 19.0296C17.2 18.4952 16.7522 18.062 16.2 18.062V19.9972ZM9.80003 19.9972C10.3523 19.9972 10.8 19.564 10.8 19.0296C10.8 18.4952 10.3523 18.062 9.80003 18.062V19.9972ZM9.00003 19.0296V18.062C8.9883 18.062 8.97657 18.0621 8.96483 18.0625L9.00003 19.0296ZM4.20007 14.7128H3.20008C3.20008 14.7249 3.20032 14.7372 3.2008 14.7494L4.20007 14.7128ZM5.20006 6.06113C5.20006 5.52675 4.75235 5.09353 4.20007 5.09353C3.64779 5.09353 3.20008 5.52675 3.20008 6.06113H5.20006ZM0.438499 7.36217C-0.0184708 7.66223 -0.13747 8.26395 0.172688 8.70621C0.482859 9.14833 1.10473 9.26342 1.56169 8.96333L0.438499 7.36217ZM4.76166 6.86174C5.21863 6.56162 5.33763 5.95989 5.02748 5.51773C4.71731 5.07558 4.09543 4.96042 3.63847 5.26054L4.76166 6.86174ZM3.63847 5.26054C3.18149 5.56063 3.0625 6.16233 3.37264 6.6045C3.68278 7.04668 4.3047 7.16183 4.76166 6.86174L3.63847 5.26054ZM11.1547 1.49406L10.6122 0.681239C10.6058 0.685238 10.5994 0.689302 10.5931 0.693444L11.1547 1.49406ZM14.8453 1.49406L15.4069 0.693444C15.4006 0.689302 15.3942 0.685238 15.3878 0.681239L14.8453 1.49406ZM21.2383 6.86177C21.6954 7.16185 22.3173 7.04668 22.6274 6.6045C22.9375 6.16233 22.8185 5.5606 22.3615 5.26052L21.2383 6.86177ZM16.2 18.062C15.6477 18.062 15.2 18.4952 15.2 19.0296C15.2 19.564 15.6477 19.9972 16.2 19.9972V18.062ZM17 19.0296L17.0352 18.0625C17.0234 18.0621 17.0117 18.062 17 18.062V19.0296ZM21.7999 14.7128L22.7993 14.7494C22.7997 14.7372 22.7999 14.7249 22.7999 14.7128H21.7999ZM22.7999 6.06113C22.7999 5.52675 22.3522 5.09353 21.7999 5.09353C21.2477 5.09353 20.7999 5.52675 20.7999 6.06113H22.7999ZM24.4386 8.96217C24.8956 9.26225 25.5175 9.14692 25.8275 8.70466C26.1375 8.2624 26.0183 7.66068 25.5612 7.36073L24.4386 8.96217ZM22.3615 5.26052C21.9045 4.96052 21.2825 5.07572 20.9723 5.51796C20.6623 5.96021 20.7813 6.56177 21.2383 6.86177L22.3615 5.26052ZM10.8 19.0296V16.1513H8.80003V19.0296H10.8ZM10.7994 16.1882C10.8434 15.0728 11.8119 14.2019 12.9648 14.2413L13.0352 12.3072C10.7807 12.2305 8.88687 13.9331 8.80077 16.1143L10.7994 16.1882ZM13.0352 14.2413C14.1881 14.2019 15.1567 15.0728 15.2007 16.1882L17.1993 16.1143C17.1132 13.9331 15.2193 12.2305 12.9648 12.3072L13.0352 14.2413ZM15.2 16.1513V19.0296H17.2V16.1513H15.2ZM9.80003 19.9972H16.2V18.062H9.80003V19.9972ZM9.80003 18.062H9.00003V19.9972H9.80003V18.062ZM8.96483 18.0625C6.9596 18.1309 5.27537 16.6161 5.19934 14.6762L3.2008 14.7494C3.31858 17.7555 5.92822 20.1025 9.03523 19.9966L8.96483 18.0625ZM5.20006 14.7128V6.06113H3.20008V14.7128H5.20006ZM1.56169 8.96333L4.76166 6.86174L3.63847 5.26054L0.438499 7.36217L1.56169 8.96333ZM4.76166 6.86174L11.7163 2.29469L10.5931 0.693444L3.63847 5.26054L4.76166 6.86174ZM11.6972 2.30688C12.4903 1.81131 13.5097 1.81131 14.3028 2.30688L15.3878 0.681239C13.9344 -0.22708 12.0656 -0.22708 10.6122 0.681239L11.6972 2.30688ZM14.2837 2.29469L21.2383 6.86177L22.3615 5.26052L15.4069 0.693444L14.2837 2.29469ZM16.2 19.9972H17V18.062H16.2V19.9972ZM16.9648 19.9966C20.0718 20.1025 22.6814 17.7555 22.7993 14.7494L20.8006 14.6762C20.7246 16.6161 19.0404 18.1309 17.0352 18.0625L16.9648 19.9966ZM22.7999 14.7128V6.06113H20.7999V14.7128H22.7999ZM25.5612 7.36073L22.3615 5.26052L21.2383 6.86177L24.4386 8.96217L25.5612 7.36073Z" fill="white"/>
</svg>