<svg width="43" height="44" viewBox="0 0 43 44" fill="none" xmlns="http://www.w3.org/2000/svg">
<path d="M35.8403 0.950701C34.8067 2.01881 34.0335 2.59072 32.8571 3.18785C31.252 3.99525 29.6805 4.38212 27.3612 4.54192C25.7141 4.65125 24.0586 4.56715 20.1762 4.18868C17.1342 3.88591 14.0585 3.78499 12.5963 3.93637C9.60467 4.24756 7.2517 5.2568 5.37773 7.03138C4.88192 7.49395 4.80629 7.60328 4.87352 7.73785C4.92394 7.82195 6.2853 12.6327 7.89877 18.4274C9.52063 24.2221 10.8568 29.016 10.882 29.0749C10.9156 29.159 11.1089 29.0328 11.4954 28.6964C14.1593 26.3415 17.1594 25.4416 21.7645 25.593C22.6637 25.6267 23.9746 25.7023 24.6637 25.7696C25.3612 25.8369 26.7561 25.9799 27.773 26.0808C30.4032 26.3415 33.8991 26.3415 35.2941 26.0808C36.7479 25.8117 37.6638 25.5257 38.7815 24.9791C39.9916 24.3819 40.9748 23.6839 41.916 22.7167C42.6135 22.0018 42.874 21.6149 42.9664 21.1355C43.0757 20.572 42.9916 20.4879 41.5967 19.7142C39.4034 18.4947 37.3193 17.0397 35.5126 15.467C35.1176 15.1221 34.7562 14.7353 34.7142 14.6175C34.6554 14.4493 34.7394 13.9783 35.084 12.599C35.9159 9.25171 36.5798 5.77824 37.0672 2.29636C37.2773 0.807725 37.3109 0.361977 37.2437 0.20218C37.0672 -0.184696 36.8235 -0.0585406 35.8403 0.950701Z" fill="#ED352F"/>
<path d="M1.17649 7.41823C0.563032 7.61166 0 8.42747 0 9.11712C0 9.44512 9.05053 41.8418 9.26902 42.2959C9.48751 42.7417 9.96651 43.0529 10.4539 43.0529C10.6304 43.0529 11.0422 42.9772 11.3531 42.8846C12.2607 42.6155 12.6892 42.1445 12.6892 41.4381C12.6892 41.2194 10.9077 34.693 8.15136 24.836C5.66394 15.9043 3.57988 8.50316 3.53786 8.39383C3.41181 8.04059 3.00844 7.62848 2.64709 7.46869C2.26894 7.29207 1.63027 7.27525 1.17649 7.41823Z" fill="#ED352F"/>
</svg>
