<svg width="48" height="24" viewBox="-10 0 48 24" fill="none" xmlns="http://www.w3.org/2000/svg">
<path d="M11.6663 0C18.0947 0 23.333 5.23833 23.333 11.6667C23.333 18.095 18.0947 23.3333 11.6663 23.3333C5.23801 23.3333 -0.000324249 18.095 -0.000324249 11.6667C-0.000324249 5.23833 5.23801 0 11.6663 0ZM8.41134 12.285L12.5297 16.4033C12.7047 16.5783 12.9263 16.66 13.148 16.66C13.3697 16.66 13.5913 16.5783 13.7663 16.4033C14.1047 16.065 14.1047 15.505 13.7663 15.1667L10.2663 11.6667L13.7663 8.16667C14.1047 7.82833 14.1047 7.26833 13.7663 6.93C13.428 6.59167 12.868 6.59167 12.5297 6.93L8.41134 11.0483C8.06134 11.3867 8.06134 11.9467 8.41134 12.285Z" fill="#00401C" fill-opacity="0.6"/>
</svg>
