<svg width="22" height="22" viewBox="0 0 22 22" fill="none" xmlns="http://www.w3.org/2000/svg">
<g clip-path="url(#clip0_167_3233)">
<path d="M1.39659 0.0601578C0.760653 0.219143 0.232138 0.743361 0.0602628 1.39219C0.0129972 1.57266 0.000106534 3.04219 0.000106534 10.0762C0.000106534 19.3445 -0.0127841 18.8031 0.245028 19.25C0.404013 19.5164 0.721982 19.8258 0.9712 19.9504C1.08722 20.0063 2.47511 20.4875 4.06065 21.016L6.93956 21.9785H7.32628C7.79893 21.9785 8.06534 21.8926 8.42198 21.6305C8.70987 21.4199 8.9419 21.102 9.06651 20.741C9.13526 20.5434 9.15245 20.3887 9.15245 19.873V19.25H10.7767C12.0013 19.25 12.4653 19.2328 12.6802 19.1898C13.5696 19.0008 14.3603 18.2316 14.588 17.3379C14.6825 16.9641 14.6825 12.4781 14.588 12.2891C14.4505 12.0227 14.0939 11.8637 13.8017 11.941C13.604 11.9969 13.3763 12.2203 13.3204 12.4223C13.2946 12.5082 13.2775 13.4621 13.2775 14.7813V16.9941L13.1743 17.2133C13.1185 17.3293 12.9939 17.4969 12.8907 17.5871C12.5642 17.8664 12.504 17.875 10.7337 17.875H9.15245L9.14386 10.5359L9.13097 3.20117L8.99776 2.91758C8.69698 2.28594 8.40479 2.08399 7.19308 1.68008L6.29503 1.3793H9.30714C12.6544 1.375 12.5427 1.36641 12.8907 1.66289C12.9939 1.75313 13.1185 1.92071 13.1743 2.03672L13.2775 2.25586V4.46875C13.2775 5.83086 13.2946 6.7418 13.3204 6.84063C13.3806 7.05117 13.647 7.2875 13.8747 7.32617C14.1025 7.36485 14.4161 7.21875 14.5536 7.0082L14.6525 6.86211V4.51602C14.6525 1.9293 14.6525 1.91211 14.3817 1.375C14.2915 1.19453 14.1282 0.979689 13.9177 0.764845C13.6556 0.494143 13.5224 0.399611 13.2302 0.262112C13.0325 0.16758 12.7532 0.0730495 12.6157 0.0472679C12.229 -0.0257797 1.68448 -0.012888 1.39659 0.0601578ZM4.75675 2.32461C7.14151 3.11953 7.61847 3.29141 7.69151 3.38164C7.77745 3.49336 7.77745 3.54492 7.77745 11.9109V20.3328L7.63136 20.4789C7.53253 20.5777 7.44659 20.625 7.36065 20.625C7.24464 20.625 1.8005 18.8332 1.60284 18.7301C1.55558 18.7043 1.47823 18.6227 1.43956 18.5453C1.37511 18.425 1.37081 17.7246 1.3837 10.0289C1.39659 1.71016 1.39659 1.64141 1.48253 1.54688C1.57706 1.43946 1.69737 1.3836 1.82628 1.3793C1.87354 1.375 3.19268 1.80039 4.75675 2.32461Z" fill="black"/>
<path d="M17.5959 5.56013C17.4197 5.63747 17.2393 5.85661 17.2049 6.03708C17.1362 6.40661 17.1447 6.4195 18.4467 7.72145L19.6584 8.93747H16.049H12.4397L12.2721 9.0363C11.8037 9.29841 11.8166 9.98591 12.2936 10.2265C12.4526 10.3082 12.56 10.3125 16.0576 10.3125H19.6584L18.4467 11.5242C17.1404 12.8347 17.1362 12.8433 17.2092 13.2215C17.2479 13.432 17.5057 13.6898 17.7162 13.7285C18.1072 13.8015 18.0471 13.8531 20.0365 11.8679C21.0506 10.8582 21.9057 9.98161 21.9401 9.91716C22.0174 9.76677 22.0174 9.48317 21.9401 9.33278C21.8412 9.15231 18.2576 5.5945 18.1201 5.54294C17.9569 5.48278 17.7549 5.49138 17.5959 5.56013Z" fill="black"/>
</g>
<defs>
<clipPath id="clip0_167_3233">
<rect width="22" height="22" fill="white"/>
</clipPath>
</defs>
</svg>
