<?xml version="1.0" encoding="UTF-8" ?>
<!DOCTYPE svg PUBLIC "-//W3C//DTD SVG 1.1//EN" "http://www.w3.org/Graphics/SVG/1.1/DTD/svg11.dtd">
<svg width="339pt" height="339pt" viewBox="0 0 339 339" version="1.1" xmlns="http://www.w3.org/2000/svg">
<g id="#000000ff">
<path fill="#000000" opacity="1.00" d=" M 199.19 1.17 C 204.79 0.91 210.42 0.96 216.03 1.08 C 229.56 2.29 243.03 6.13 254.54 13.49 C 272.32 24.40 284.64 43.01 289.48 63.14 C 292.45 75.47 293.45 88.34 292.06 100.97 C 290.25 120.04 284.30 138.57 275.68 155.62 C 263.86 177.55 252.22 199.58 240.45 221.53 C 238.45 225.16 236.79 229.00 234.33 232.36 C 227.10 245.82 220.18 259.46 213.10 273.00 C 202.91 291.95 192.90 311.00 182.72 329.95 C 180.10 334.37 175.50 338.45 170.04 338.04 C 166.20 338.28 163.93 334.68 161.89 332.02 C 151.30 318.67 140.70 305.33 130.11 291.98 C 125.45 285.37 120.16 279.24 115.25 272.82 C 101.97 256.98 89.46 240.50 76.46 224.42 C 61.99 208.34 54.99 186.43 55.00 165.00 C 54.32 137.93 62.94 111.31 76.21 87.96 C 97.32 51.40 130.66 21.02 170.94 7.27 C 180.09 4.21 189.61 2.33 199.19 1.17 M 175.30 27.39 C 158.73 32.35 143.36 40.93 129.98 51.84 C 103.65 73.50 84.08 104.03 77.86 137.76 C 76.03 149.48 75.57 161.49 77.85 173.19 C 78.46 176.99 79.90 180.55 80.76 184.28 C 81.74 186.57 82.88 188.82 83.66 191.20 C 86.21 195.80 88.71 200.51 92.25 204.46 C 100.78 214.74 108.87 225.39 117.30 235.75 C 127.37 248.64 137.63 261.38 147.76 274.21 C 156.46 285.03 164.91 296.07 173.75 306.78 C 200.71 256.42 227.46 205.94 254.41 155.57 C 266.95 133.19 274.15 106.82 269.89 81.19 C 269.68 78.32 268.86 75.56 268.14 72.79 C 265.57 62.90 260.71 53.68 254.19 45.82 C 244.38 34.56 230.58 26.94 215.84 24.58 C 202.35 22.07 188.41 23.67 175.30 27.39 Z" />
<path fill="#000000" opacity="1.00" d=" M 181.43 70.10 C 191.85 68.32 203.28 69.79 212.01 76.07 C 219.48 81.03 224.46 89.20 226.47 97.85 C 229.31 109.49 227.37 121.79 223.08 132.82 C 217.88 146.07 208.96 157.71 198.06 166.78 C 185.75 176.71 170.13 183.74 154.04 182.45 C 142.82 181.73 131.96 175.68 125.96 166.10 C 120.86 158.11 119.11 148.36 119.69 139.00 C 121.41 118.18 132.97 99.09 148.70 85.74 C 158.18 78.09 169.29 72.00 181.43 70.10 M 168.14 95.83 C 154.84 102.43 144.56 115.33 141.86 130.02 C 140.90 135.06 141.20 140.31 142.75 145.21 C 144.27 149.30 146.78 153.14 150.40 155.66 C 155.69 159.59 162.69 160.62 169.07 159.47 C 175.02 158.60 180.53 155.87 185.49 152.58 C 196.61 144.57 205.05 132.00 206.02 118.11 C 206.47 115.34 205.68 112.59 205.47 109.84 C 204.11 102.30 198.50 95.54 191.10 93.31 C 183.50 90.86 175.16 92.34 168.14 95.83 Z" />
</g>
<g id="#f5faf5ff">
<path fill="#f5faf5" opacity="1.00" d=" M 175.30 27.39 C 188.41 23.67 202.35 22.07 215.84 24.58 C 230.58 26.94 244.38 34.56 254.19 45.82 C 260.71 53.68 265.57 62.90 268.14 72.79 C 268.86 75.56 269.68 78.32 269.89 81.19 C 274.15 106.82 266.95 133.19 254.41 155.57 C 227.46 205.94 200.71 256.42 173.75 306.78 C 164.91 296.07 156.46 285.03 147.76 274.21 C 137.63 261.38 127.37 248.64 117.30 235.75 C 108.87 225.39 100.78 214.74 92.25 204.46 C 88.71 200.51 86.21 195.80 83.66 191.20 C 82.88 188.82 81.74 186.57 80.76 184.28 C 79.90 180.55 78.46 176.99 77.85 173.19 C 75.57 161.49 76.03 149.48 77.86 137.76 C 84.08 104.03 103.65 73.50 129.98 51.84 C 143.36 40.93 158.73 32.35 175.30 27.39 M 181.43 70.10 C 169.29 72.00 158.18 78.09 148.70 85.74 C 132.97 99.09 121.41 118.18 119.69 139.00 C 119.11 148.36 120.86 158.11 125.96 166.10 C 131.96 175.68 142.82 181.73 154.04 182.45 C 170.13 183.74 185.75 176.71 198.06 166.78 C 208.96 157.71 217.88 146.07 223.08 132.82 C 227.37 121.79 229.31 109.49 226.47 97.85 C 224.46 89.20 219.48 81.03 212.01 76.07 C 203.28 69.79 191.85 68.32 181.43 70.10 Z" />
</g>
<g id="#9fcfa3ff">
<path fill="#9fcfa3" opacity="1.00" d=" M 168.14 95.83 C 175.16 92.34 183.50 90.86 191.10 93.31 C 198.50 95.54 204.11 102.30 205.47 109.84 C 205.68 112.59 206.47 115.34 206.02 118.11 C 205.05 132.00 196.61 144.57 185.49 152.58 C 180.53 155.87 175.02 158.60 169.07 159.47 C 162.69 160.62 155.69 159.59 150.40 155.66 C 146.78 153.14 144.27 149.30 142.75 145.21 C 141.20 140.31 140.90 135.06 141.86 130.02 C 144.56 115.33 154.84 102.43 168.14 95.83 Z" />
</g>
</svg>
