<svg width="23" height="23" viewBox="0 0 23 23" fill="none" xmlns="http://www.w3.org/2000/svg">
<path d="M16.8193 0.10803C16.3881 0.234592 16.1724 0.347094 15.8115 0.618967C15.6568 0.736155 12.6287 3.74084 9.08026 7.29397L2.62557 13.7533L1.30838 17.7143C-0.0463032 21.783 -0.0884907 21.9471 0.0568218 22.2049C0.150572 22.3783 0.366197 22.4955 0.600572 22.4955C0.750572 22.4955 1.91776 22.1252 4.74901 21.183L8.68651 19.8705L15.3474 13.2002C21.849 6.69397 22.0131 6.52522 22.1771 6.18303C22.4021 5.71428 22.4912 5.32053 22.4912 4.75334C22.4912 4.18616 22.4162 3.85803 22.1584 3.32366C21.9709 2.94397 21.9099 2.86897 20.7615 1.72522C19.6178 0.57678 19.5428 0.515842 19.1631 0.328342C18.6146 0.0658436 18.3053 -0.00446892 17.6865 0.000217438C17.2928 0.000217438 17.0865 0.0236549 16.8193 0.10803ZM18.2818 1.35959C18.4412 1.41116 18.6568 1.51428 18.7599 1.58928C18.8678 1.65959 19.3881 2.16116 19.9224 2.70022C20.7709 3.55803 20.9115 3.71741 21.0474 4.00334C21.1881 4.30334 21.2021 4.36897 21.2021 4.77678C21.2021 5.18459 21.1881 5.25022 21.0521 5.52678C20.9537 5.72366 20.7521 5.99084 20.4896 6.27209L20.0771 6.71272L17.9349 4.57522L15.7974 2.44241L16.2521 1.99709C16.5006 1.75334 16.7771 1.51897 16.8662 1.47209C17.3115 1.2424 17.8131 1.20022 18.2818 1.35959ZM13.7724 13.0033L8.40526 18.3705L6.27245 16.2377L4.13963 14.1049L9.50682 8.73772L14.874 3.37053L17.0068 5.50334L19.1396 7.63616L13.7724 13.0033ZM4.41151 19.9221C2.89276 20.4283 1.65057 20.8362 1.6412 20.8315C1.63651 20.8268 2.04901 19.5846 2.55526 18.0705L3.48338 15.3237L5.32088 17.1612L7.16307 19.0033L4.41151 19.9221Z" fill="white"/>
</svg>
