<svg width="904" height="304" viewBox="0 0 904 304" fill="none" xmlns="http://www.w3.org/2000/svg">
<path d="M344.215 272.11C344.727 272.086 345.242 272.091 345.755 272.102C346.993 272.216 348.224 272.579 349.277 273.273C350.903 274.303 352.029 276.06 352.472 277.96C352.744 279.124 352.835 280.339 352.708 281.531C352.542 283.331 351.998 285.08 351.21 286.69C350.129 288.76 349.065 290.839 347.988 292.911C347.805 293.254 347.654 293.617 347.429 293.934C346.768 295.204 346.135 296.492 345.487 297.77C344.555 299.559 343.64 301.357 342.709 303.146C342.47 303.563 342.049 303.948 341.55 303.909C341.199 303.932 340.991 303.592 340.804 303.341C339.836 302.081 338.867 300.822 337.898 299.562C337.472 298.938 336.988 298.359 336.539 297.753C335.325 296.258 334.181 294.702 332.992 293.184C331.669 291.666 331.029 289.598 331.03 287.575C330.968 285.02 331.756 282.507 332.969 280.303C334.9 276.852 337.949 273.984 341.632 272.686C342.469 272.397 343.339 272.22 344.215 272.11ZM342.031 274.585C340.515 275.054 339.11 275.864 337.886 276.893C335.479 278.938 333.689 281.82 333.12 285.004C332.953 286.11 332.911 287.244 333.119 288.348C333.175 288.707 333.307 289.043 333.385 289.395C333.475 289.611 333.579 289.824 333.651 290.048C333.884 290.483 334.112 290.927 334.436 291.3C335.216 292.27 335.956 293.276 336.727 294.254C337.648 295.47 338.586 296.673 339.512 297.884C340.308 298.905 341.081 299.948 341.889 300.959C344.354 296.205 346.8 291.44 349.265 286.685C350.412 284.573 351.07 282.083 350.681 279.664C350.661 279.393 350.586 279.133 350.52 278.871C350.285 277.937 349.841 277.067 349.245 276.325C348.348 275.262 347.086 274.543 345.738 274.32C344.504 274.083 343.23 274.234 342.031 274.585Z" fill="black"/>
<path d="M342.591 278.617C343.544 278.449 344.589 278.588 345.388 279.181C346.071 279.649 346.526 280.42 346.71 281.237C346.97 282.335 346.792 283.496 346.4 284.538C345.924 285.788 345.109 286.887 344.112 287.743C342.986 288.681 341.558 289.344 340.086 289.222C339.06 289.154 338.067 288.583 337.519 287.679C337.052 286.925 336.892 286.004 336.945 285.121C337.103 283.156 338.16 281.354 339.598 280.093C340.465 279.371 341.481 278.796 342.591 278.617ZM341.376 281.046C340.16 281.669 339.22 282.887 338.973 284.273C338.885 284.749 338.912 285.245 339.054 285.707C339.193 286.093 339.423 286.456 339.754 286.694C340.237 287.065 340.877 287.162 341.461 287.053C342.005 286.971 342.509 286.713 342.962 286.403C343.979 285.647 344.751 284.46 344.84 283.149C344.881 282.888 344.809 282.628 344.789 282.368C344.665 281.657 344.152 281.019 343.475 280.808C342.78 280.577 342.018 280.716 341.376 281.046Z" fill="black"/>
<path d="M342.031 274.585C343.23 274.234 344.504 274.083 345.738 274.32C347.086 274.543 348.348 275.262 349.245 276.325C349.841 277.067 350.286 277.937 350.521 278.871C350.586 279.132 350.661 279.393 350.681 279.664C351.07 282.083 350.412 284.572 349.265 286.685C346.801 291.44 344.354 296.205 341.889 300.959C341.081 299.948 340.308 298.905 339.512 297.884C338.586 296.673 337.648 295.47 336.727 294.254C335.956 293.276 335.216 292.27 334.436 291.3C334.113 290.927 333.884 290.483 333.651 290.048C333.579 289.824 333.475 289.611 333.386 289.395C333.307 289.043 333.175 288.707 333.119 288.348C332.911 287.244 332.953 286.11 333.12 285.004C333.689 281.82 335.479 278.938 337.887 276.893C339.11 275.864 340.516 275.054 342.031 274.585ZM342.591 278.617C341.481 278.796 340.465 279.371 339.598 280.093C338.16 281.354 337.103 283.156 336.946 285.121C336.892 286.004 337.053 286.925 337.519 287.679C338.068 288.583 339.061 289.154 340.087 289.222C341.558 289.344 342.986 288.681 344.112 287.743C345.109 286.887 345.925 285.788 346.4 284.538C346.792 283.496 346.97 282.335 346.71 281.237C346.526 280.42 346.071 279.649 345.388 279.181C344.589 278.588 343.544 278.449 342.591 278.617Z" fill="#F5FAF5"/>
<path d="M341.375 281.046C342.017 280.716 342.78 280.577 343.475 280.808C344.152 281.019 344.665 281.657 344.789 282.368C344.808 282.628 344.88 282.888 344.839 283.149C344.751 284.46 343.979 285.647 342.962 286.403C342.508 286.713 342.004 286.971 341.46 287.053C340.877 287.162 340.237 287.065 339.753 286.694C339.422 286.456 339.192 286.093 339.053 285.707C338.912 285.245 338.884 284.749 338.972 284.273C339.219 282.887 340.159 281.669 341.375 281.046Z" fill="#9FCFA3"/>
<path d="M458.215 235.11C458.727 235.086 459.242 235.091 459.755 235.102C460.993 235.216 462.224 235.579 463.277 236.273C464.903 237.303 466.029 239.06 466.472 240.96C466.744 242.124 466.835 243.339 466.708 244.531C466.542 246.331 465.998 248.08 465.21 249.69C464.129 251.76 463.065 253.839 461.988 255.911C461.805 256.254 461.654 256.617 461.429 256.934C460.768 258.204 460.135 259.492 459.487 260.77C458.555 262.559 457.64 264.357 456.709 266.146C456.47 266.563 456.049 266.948 455.55 266.909C455.199 266.932 454.991 266.592 454.804 266.341C453.836 265.081 452.867 263.822 451.898 262.562C451.472 261.938 450.988 261.359 450.539 260.753C449.325 259.258 448.181 257.702 446.992 256.184C445.669 254.666 445.029 252.598 445.03 250.575C444.968 248.02 445.756 245.507 446.969 243.303C448.9 239.852 451.949 236.984 455.632 235.686C456.469 235.397 457.339 235.22 458.215 235.11ZM456.031 237.585C454.515 238.054 453.11 238.864 451.886 239.893C449.479 241.938 447.689 244.82 447.12 248.004C446.953 249.11 446.911 250.244 447.119 251.348C447.175 251.707 447.307 252.043 447.385 252.395C447.475 252.611 447.579 252.824 447.651 253.048C447.884 253.483 448.112 253.927 448.436 254.3C449.216 255.27 449.956 256.276 450.727 257.254C451.648 258.47 452.586 259.673 453.512 260.884C454.308 261.905 455.081 262.948 455.889 263.959C458.354 259.205 460.8 254.44 463.265 249.685C464.412 247.573 465.07 245.083 464.681 242.664C464.661 242.393 464.586 242.133 464.52 241.871C464.285 240.937 463.841 240.067 463.245 239.325C462.348 238.262 461.086 237.543 459.738 237.32C458.504 237.083 457.23 237.234 456.031 237.585Z" fill="black"/>
<path d="M456.591 241.617C457.544 241.449 458.589 241.588 459.388 242.181C460.071 242.649 460.526 243.42 460.71 244.237C460.97 245.335 460.792 246.496 460.4 247.538C459.924 248.788 459.109 249.887 458.112 250.743C456.986 251.681 455.558 252.344 454.086 252.222C453.06 252.154 452.067 251.583 451.519 250.679C451.052 249.925 450.892 249.004 450.945 248.121C451.103 246.156 452.16 244.354 453.598 243.093C454.465 242.371 455.481 241.796 456.591 241.617ZM455.376 244.046C454.16 244.669 453.22 245.887 452.973 247.273C452.885 247.749 452.912 248.245 453.054 248.707C453.193 249.093 453.423 249.456 453.754 249.694C454.237 250.065 454.877 250.162 455.461 250.053C456.005 249.971 456.509 249.713 456.962 249.403C457.979 248.647 458.751 247.46 458.84 246.149C458.881 245.888 458.809 245.628 458.789 245.368C458.665 244.657 458.152 244.019 457.475 243.808C456.78 243.577 456.018 243.716 455.376 244.046Z" fill="black"/>
<path d="M456.031 237.586C457.23 237.234 458.504 237.083 459.738 237.32C461.086 237.543 462.348 238.262 463.245 239.325C463.841 240.067 464.286 240.937 464.521 241.871C464.586 242.133 464.661 242.393 464.681 242.664C465.07 245.083 464.412 247.573 463.265 249.685C460.801 254.44 458.354 259.205 455.889 263.959C455.081 262.948 454.308 261.906 453.512 260.884C452.586 259.673 451.648 258.47 450.727 257.254C449.956 256.276 449.216 255.27 448.436 254.3C448.113 253.927 447.884 253.483 447.651 253.048C447.579 252.824 447.475 252.611 447.386 252.395C447.307 252.043 447.175 251.707 447.119 251.348C446.911 250.244 446.953 249.11 447.12 248.004C447.689 244.82 449.479 241.938 451.887 239.893C453.11 238.864 454.516 238.054 456.031 237.586ZM456.591 241.617C455.481 241.796 454.465 242.371 453.598 243.093C452.16 244.354 451.103 246.156 450.946 248.121C450.892 249.005 451.053 249.925 451.519 250.679C452.068 251.583 453.061 252.154 454.087 252.222C455.558 252.344 456.986 251.681 458.112 250.743C459.109 249.887 459.925 248.788 460.4 247.538C460.792 246.496 460.97 245.335 460.71 244.237C460.526 243.42 460.071 242.649 459.388 242.181C458.589 241.588 457.544 241.449 456.591 241.617Z" fill="#F5FAF5"/>
<path d="M455.375 244.046C456.017 243.716 456.78 243.577 457.475 243.808C458.152 244.019 458.665 244.657 458.789 245.368C458.808 245.628 458.88 245.888 458.839 246.149C458.751 247.46 457.979 248.647 456.962 249.403C456.508 249.713 456.004 249.971 455.46 250.053C454.877 250.162 454.237 250.065 453.753 249.694C453.422 249.456 453.192 249.093 453.053 248.707C452.912 248.245 452.884 247.749 452.972 247.273C453.219 245.887 454.159 244.669 455.375 244.046Z" fill="#9FCFA3"/>
<path d="M186.215 182.11C186.727 182.086 187.242 182.091 187.755 182.102C188.993 182.216 190.224 182.579 191.277 183.273C192.903 184.303 194.029 186.06 194.472 187.96C194.744 189.124 194.835 190.339 194.708 191.531C194.542 193.331 193.998 195.08 193.21 196.69C192.129 198.76 191.065 200.839 189.988 202.911C189.805 203.254 189.654 203.617 189.429 203.934C188.768 205.204 188.135 206.492 187.487 207.77C186.555 209.559 185.64 211.357 184.709 213.146C184.47 213.563 184.049 213.948 183.55 213.909C183.199 213.932 182.991 213.592 182.804 213.341C181.836 212.081 180.867 210.822 179.898 209.562C179.472 208.938 178.988 208.359 178.539 207.753C177.325 206.258 176.181 204.702 174.992 203.184C173.669 201.666 173.029 199.598 173.03 197.575C172.968 195.02 173.756 192.507 174.969 190.303C176.9 186.852 179.949 183.984 183.632 182.686C184.469 182.397 185.339 182.22 186.215 182.11ZM184.031 184.585C182.515 185.054 181.11 185.864 179.886 186.893C177.479 188.938 175.689 191.82 175.12 195.004C174.953 196.11 174.911 197.244 175.119 198.348C175.175 198.707 175.307 199.043 175.385 199.395C175.475 199.611 175.579 199.824 175.651 200.048C175.884 200.483 176.112 200.927 176.436 201.3C177.216 202.27 177.956 203.276 178.727 204.254C179.648 205.47 180.586 206.673 181.512 207.884C182.308 208.905 183.081 209.948 183.889 210.959C186.354 206.205 188.8 201.44 191.265 196.685C192.412 194.573 193.07 192.083 192.681 189.664C192.661 189.393 192.586 189.133 192.52 188.871C192.285 187.937 191.841 187.067 191.245 186.325C190.348 185.262 189.086 184.543 187.738 184.32C186.504 184.083 185.23 184.234 184.031 184.585Z" fill="black"/>
<path d="M184.591 188.617C185.544 188.449 186.589 188.588 187.388 189.181C188.071 189.649 188.526 190.42 188.71 191.237C188.97 192.335 188.792 193.496 188.4 194.538C187.924 195.788 187.109 196.887 186.112 197.743C184.986 198.681 183.558 199.344 182.086 199.222C181.06 199.154 180.067 198.583 179.519 197.679C179.052 196.925 178.892 196.004 178.945 195.121C179.103 193.156 180.16 191.354 181.598 190.093C182.465 189.371 183.481 188.796 184.591 188.617ZM183.376 191.046C182.16 191.669 181.22 192.887 180.973 194.273C180.885 194.749 180.912 195.245 181.054 195.707C181.193 196.093 181.423 196.456 181.754 196.694C182.237 197.065 182.877 197.162 183.461 197.053C184.005 196.971 184.509 196.713 184.962 196.403C185.979 195.647 186.751 194.46 186.84 193.149C186.881 192.888 186.809 192.628 186.789 192.368C186.665 191.657 186.152 191.019 185.475 190.808C184.78 190.577 184.018 190.716 183.376 191.046Z" fill="black"/>
<path d="M184.031 184.586C185.23 184.234 186.504 184.083 187.738 184.32C189.086 184.543 190.348 185.262 191.245 186.325C191.841 187.067 192.286 187.937 192.521 188.871C192.586 189.133 192.661 189.393 192.681 189.664C193.07 192.083 192.412 194.573 191.265 196.685C188.801 201.44 186.354 206.205 183.889 210.959C183.081 209.948 182.308 208.906 181.512 207.884C180.586 206.673 179.648 205.47 178.727 204.254C177.956 203.276 177.216 202.27 176.436 201.3C176.113 200.927 175.884 200.483 175.651 200.048C175.579 199.824 175.475 199.611 175.386 199.395C175.307 199.043 175.175 198.707 175.119 198.348C174.911 197.244 174.953 196.11 175.12 195.004C175.689 191.82 177.479 188.938 179.887 186.893C181.11 185.864 182.516 185.054 184.031 184.586ZM184.591 188.617C183.481 188.796 182.465 189.371 181.598 190.093C180.16 191.354 179.103 193.156 178.946 195.121C178.892 196.005 179.053 196.925 179.519 197.679C180.068 198.583 181.061 199.154 182.087 199.222C183.558 199.344 184.986 198.681 186.112 197.743C187.109 196.887 187.925 195.788 188.4 194.538C188.792 193.496 188.97 192.335 188.71 191.237C188.526 190.42 188.071 189.649 187.388 189.181C186.589 188.588 185.544 188.449 184.591 188.617Z" fill="#F5FAF5"/>
<path d="M183.375 191.046C184.017 190.716 184.78 190.577 185.475 190.808C186.152 191.019 186.665 191.657 186.789 192.368C186.808 192.628 186.88 192.888 186.839 193.149C186.751 194.46 185.979 195.647 184.962 196.403C184.508 196.713 184.004 196.971 183.46 197.053C182.877 197.162 182.237 197.065 181.753 196.694C181.422 196.456 181.192 196.093 181.053 195.707C180.912 195.245 180.884 194.749 180.972 194.273C181.219 192.887 182.159 191.669 183.375 191.046Z" fill="#9FCFA3"/>
<path d="M408.215 123.11C408.727 123.086 409.242 123.091 409.755 123.102C410.993 123.216 412.224 123.579 413.277 124.273C414.903 125.303 416.029 127.06 416.472 128.96C416.744 130.124 416.835 131.339 416.708 132.531C416.542 134.331 415.998 136.08 415.21 137.69C414.129 139.76 413.065 141.839 411.988 143.911C411.805 144.254 411.654 144.617 411.429 144.934C410.768 146.204 410.135 147.492 409.487 148.77C408.555 150.559 407.64 152.357 406.709 154.146C406.47 154.563 406.049 154.948 405.55 154.909C405.199 154.932 404.991 154.592 404.804 154.341C403.836 153.081 402.867 151.822 401.898 150.562C401.472 149.938 400.988 149.359 400.539 148.753C399.325 147.258 398.181 145.702 396.992 144.184C395.669 142.666 395.029 140.598 395.03 138.575C394.968 136.02 395.756 133.507 396.969 131.303C398.9 127.852 401.949 124.984 405.632 123.686C406.469 123.397 407.339 123.22 408.215 123.11ZM406.031 125.585C404.515 126.054 403.11 126.864 401.886 127.893C399.479 129.938 397.689 132.82 397.12 136.004C396.953 137.11 396.911 138.244 397.119 139.348C397.175 139.707 397.307 140.043 397.385 140.395C397.475 140.611 397.579 140.824 397.651 141.048C397.884 141.483 398.112 141.927 398.436 142.3C399.216 143.27 399.956 144.276 400.727 145.254C401.648 146.47 402.586 147.673 403.512 148.884C404.308 149.905 405.081 150.948 405.889 151.959C408.354 147.205 410.8 142.44 413.265 137.685C414.412 135.573 415.07 133.083 414.681 130.664C414.661 130.393 414.586 130.133 414.52 129.871C414.285 128.937 413.841 128.067 413.245 127.325C412.348 126.262 411.086 125.543 409.738 125.32C408.504 125.083 407.23 125.234 406.031 125.585Z" fill="black"/>
<path d="M406.591 129.617C407.544 129.449 408.589 129.588 409.388 130.181C410.071 130.649 410.526 131.42 410.71 132.237C410.97 133.335 410.792 134.496 410.4 135.538C409.924 136.788 409.109 137.887 408.112 138.743C406.986 139.681 405.558 140.344 404.086 140.222C403.06 140.154 402.067 139.583 401.519 138.679C401.052 137.925 400.892 137.004 400.945 136.121C401.103 134.156 402.16 132.354 403.598 131.093C404.465 130.371 405.481 129.796 406.591 129.617ZM405.376 132.046C404.16 132.669 403.22 133.887 402.973 135.273C402.885 135.749 402.912 136.245 403.054 136.707C403.193 137.093 403.423 137.456 403.754 137.694C404.237 138.065 404.877 138.162 405.461 138.053C406.005 137.971 406.509 137.713 406.962 137.403C407.979 136.647 408.751 135.46 408.84 134.149C408.881 133.888 408.809 133.628 408.789 133.368C408.665 132.657 408.152 132.019 407.475 131.808C406.78 131.577 406.018 131.716 405.376 132.046Z" fill="black"/>
<path d="M406.031 125.586C407.23 125.234 408.504 125.083 409.738 125.32C411.086 125.543 412.348 126.262 413.245 127.325C413.841 128.067 414.286 128.937 414.521 129.871C414.586 130.133 414.661 130.393 414.681 130.664C415.07 133.083 414.412 135.573 413.265 137.685C410.801 142.44 408.354 147.205 405.889 151.959C405.081 150.948 404.308 149.906 403.512 148.884C402.586 147.673 401.648 146.47 400.727 145.254C399.956 144.276 399.216 143.27 398.436 142.3C398.113 141.927 397.884 141.483 397.651 141.048C397.579 140.824 397.475 140.611 397.386 140.395C397.307 140.043 397.175 139.707 397.119 139.348C396.911 138.244 396.953 137.11 397.12 136.004C397.689 132.82 399.479 129.938 401.887 127.893C403.11 126.864 404.516 126.054 406.031 125.586ZM406.591 129.617C405.481 129.796 404.465 130.371 403.598 131.093C402.16 132.354 401.103 134.156 400.946 136.121C400.892 137.005 401.053 137.925 401.519 138.679C402.068 139.583 403.061 140.154 404.087 140.222C405.558 140.344 406.986 139.681 408.112 138.743C409.109 137.887 409.925 136.788 410.4 135.538C410.792 134.496 410.97 133.335 410.71 132.237C410.526 131.42 410.071 130.649 409.388 130.181C408.589 129.588 407.544 129.449 406.591 129.617Z" fill="#F5FAF5"/>
<path d="M405.375 132.046C406.017 131.716 406.78 131.577 407.475 131.808C408.152 132.019 408.665 132.657 408.789 133.368C408.808 133.628 408.88 133.888 408.839 134.149C408.751 135.46 407.979 136.647 406.962 137.403C406.508 137.713 406.004 137.971 405.46 138.053C404.877 138.162 404.237 138.065 403.753 137.694C403.422 137.456 403.192 137.093 403.053 136.707C402.912 136.245 402.884 135.749 402.972 135.273C403.219 133.887 404.159 132.669 405.375 132.046Z" fill="#9FCFA3"/>
<path d="M443.215 86.1104C443.727 86.0859 444.242 86.0906 444.755 86.102C445.993 86.2162 447.224 86.5786 448.277 87.2734C449.903 88.3033 451.029 90.0599 451.472 91.9601C451.744 93.124 451.835 94.3389 451.708 95.5311C451.542 97.3312 450.998 99.0804 450.21 100.69C449.129 102.76 448.065 104.839 446.988 106.911C446.805 107.254 446.654 107.617 446.429 107.934C445.768 109.204 445.135 110.492 444.487 111.77C443.555 113.559 442.64 115.357 441.709 117.146C441.47 117.563 441.049 117.948 440.55 117.909C440.199 117.932 439.991 117.592 439.804 117.341C438.836 116.081 437.867 114.822 436.898 113.562C436.472 112.938 435.988 112.359 435.539 111.753C434.325 110.258 433.181 108.702 431.992 107.184C430.669 105.666 430.029 103.598 430.03 101.575C429.968 99.0199 430.756 96.5071 431.969 94.303C433.9 90.8519 436.949 87.9842 440.632 86.6863C441.469 86.3974 442.339 86.2199 443.215 86.1104ZM441.031 88.5855C439.515 89.0537 438.11 89.8636 436.886 90.8935C434.479 92.9381 432.689 95.8199 432.12 99.0039C431.953 100.11 431.911 101.244 432.119 102.348C432.175 102.707 432.307 103.043 432.385 103.395C432.475 103.611 432.579 103.824 432.651 104.048C432.884 104.483 433.112 104.927 433.436 105.3C434.216 106.27 434.956 107.276 435.727 108.254C436.648 109.47 437.586 110.673 438.512 111.884C439.308 112.905 440.081 113.948 440.889 114.959C443.354 110.205 445.8 105.44 448.265 100.685C449.412 98.5725 450.07 96.0833 449.681 93.664C449.661 93.393 449.586 93.1325 449.52 92.871C449.285 91.9375 448.841 91.0671 448.245 90.3252C447.348 89.2623 446.086 88.543 444.738 88.3202C443.504 88.0833 442.23 88.2343 441.031 88.5855Z" fill="black"/>
<path d="M441.591 92.6171C442.544 92.4491 443.589 92.5878 444.388 93.1806C445.071 93.6488 445.526 94.4201 445.71 95.2366C445.97 96.3353 445.792 97.4964 445.4 98.5376C444.924 99.7883 444.109 100.887 443.112 101.743C441.986 102.681 440.558 103.344 439.086 103.222C438.06 103.154 437.067 102.583 436.519 101.679C436.052 100.925 435.892 100.004 435.945 99.1209C436.103 97.1556 437.16 95.3536 438.598 94.0934C439.465 93.3713 440.481 92.7965 441.591 92.6171ZM440.376 95.0459C439.16 95.6689 438.22 96.8866 437.973 98.2733C437.885 98.749 437.912 99.2446 438.054 99.7071C438.193 100.093 438.423 100.456 438.754 100.694C439.237 101.065 439.877 101.162 440.461 101.053C441.005 100.971 441.509 100.713 441.962 100.403C442.979 99.6467 443.751 98.4602 443.84 97.149C443.881 96.8875 443.809 96.628 443.789 96.3684C443.665 95.6566 443.152 95.0185 442.475 94.808C441.78 94.5767 441.018 94.7165 440.376 95.0459Z" fill="black"/>
<path d="M441.031 88.5855C442.23 88.2344 443.504 88.0833 444.738 88.3203C446.086 88.543 447.348 89.2623 448.245 90.3252C448.841 91.0672 449.286 91.9375 449.521 92.8711C449.586 93.1325 449.661 93.3931 449.681 93.664C450.07 96.0833 449.412 98.5725 448.265 100.685C445.801 105.44 443.354 110.205 440.889 114.959C440.081 113.948 439.308 112.906 438.512 111.884C437.586 110.673 436.648 109.47 435.727 108.254C434.956 107.276 434.216 106.27 433.436 105.3C433.113 104.927 432.884 104.483 432.651 104.048C432.579 103.824 432.475 103.611 432.386 103.395C432.307 103.043 432.175 102.707 432.119 102.348C431.911 101.244 431.953 100.11 432.12 99.0039C432.689 95.82 434.479 92.9381 436.887 90.8935C438.11 89.8636 439.516 89.0537 441.031 88.5855ZM441.591 92.6171C440.481 92.7965 439.465 93.3713 438.598 94.0935C437.16 95.3536 436.103 97.1557 435.946 99.121C435.892 100.005 436.053 100.925 436.519 101.679C437.068 102.583 438.061 103.154 439.087 103.222C440.558 103.344 441.986 102.681 443.112 101.743C444.109 100.887 444.925 99.7883 445.4 98.5376C445.792 97.4964 445.97 96.3354 445.71 95.2366C445.526 94.4201 445.071 93.6489 444.388 93.1807C443.589 92.5879 442.544 92.4491 441.591 92.6171Z" fill="#F5FAF5"/>
<path d="M440.375 95.0459C441.017 94.7165 441.78 94.5768 442.475 94.808C443.152 95.0185 443.665 95.6566 443.789 96.3684C443.808 96.628 443.88 96.8876 443.839 97.149C443.751 98.4602 442.979 99.6467 441.962 100.403C441.508 100.713 441.004 100.971 440.46 101.053C439.877 101.162 439.237 101.065 438.753 100.694C438.422 100.456 438.192 100.093 438.053 99.7071C437.912 99.2446 437.884 98.749 437.972 98.2733C438.219 96.8866 439.159 95.6689 440.375 95.0459Z" fill="#9FCFA3"/>
<path d="M509.215 76.1104C509.727 76.0859 510.242 76.0906 510.755 76.102C511.993 76.2162 513.224 76.5786 514.277 77.2734C515.903 78.3033 517.029 80.0599 517.472 81.9601C517.744 83.124 517.835 84.3389 517.708 85.5311C517.542 87.3312 516.998 89.0804 516.21 90.6898C515.129 92.7599 514.065 94.8394 512.988 96.9114C512.805 97.254 512.654 97.6165 512.429 97.9337C511.768 99.2043 511.135 100.492 510.487 101.77C509.555 103.559 508.64 105.357 507.709 107.146C507.47 107.563 507.049 107.948 506.55 107.909C506.199 107.932 505.991 107.592 505.804 107.341C504.836 106.081 503.867 104.822 502.898 103.562C502.472 102.938 501.988 102.359 501.539 101.753C500.325 100.258 499.181 98.7021 497.992 97.1842C496.669 95.6663 496.029 93.5981 496.03 91.5752C495.968 89.0199 496.756 86.5071 497.969 84.303C499.9 80.8519 502.949 77.9842 506.632 76.6863C507.469 76.3974 508.339 76.2199 509.215 76.1104ZM507.031 78.5855C505.515 79.0537 504.11 79.8636 502.886 80.8935C500.479 82.9381 498.689 85.8199 498.12 89.0039C497.953 90.1102 497.911 91.2439 498.119 92.3483C498.175 92.707 498.307 93.0431 498.385 93.3952C498.475 93.6113 498.579 93.8237 498.651 94.0484C498.884 94.4826 499.112 94.9272 499.436 95.3001C500.216 96.2705 500.956 97.2758 501.727 98.2537C502.648 99.4704 503.586 100.673 504.512 101.884C505.308 102.905 506.081 103.948 506.889 104.959C509.354 100.205 511.8 95.4398 514.265 90.6851C515.412 88.5725 516.07 86.0833 515.681 83.664C515.661 83.393 515.586 83.1325 515.52 82.871C515.285 81.9375 514.841 81.0671 514.245 80.3252C513.348 79.2623 512.086 78.543 510.738 78.3202C509.504 78.0833 508.23 78.2343 507.031 78.5855Z" fill="black"/>
<path d="M507.591 82.6171C508.544 82.4491 509.589 82.5878 510.388 83.1806C511.071 83.6488 511.526 84.4201 511.71 85.2366C511.97 86.3353 511.792 87.4964 511.4 88.5376C510.924 89.7883 510.109 90.8871 509.112 91.7432C507.986 92.6806 506.558 93.3442 505.086 93.2224C504.06 93.1544 503.067 92.5834 502.519 91.679C502.052 90.9248 501.892 90.0045 501.945 89.1209C502.103 87.1556 503.16 85.3536 504.598 84.0934C505.465 83.3713 506.481 82.7965 507.591 82.6171ZM506.376 85.0459C505.16 85.6689 504.22 86.8866 503.973 88.2733C503.885 88.749 503.912 89.2446 504.054 89.7071C504.193 90.0932 504.423 90.4557 504.754 90.6936C505.237 91.0645 505.877 91.1618 506.461 91.0532C507.005 90.9711 507.509 90.7134 507.962 90.4028C508.979 89.6467 509.751 88.4602 509.84 87.149C509.881 86.8875 509.809 86.628 509.789 86.3684C509.665 85.6566 509.152 85.0185 508.475 84.808C507.78 84.5767 507.018 84.7165 506.376 85.0459Z" fill="black"/>
<path d="M507.031 78.5855C508.23 78.2344 509.504 78.0833 510.738 78.3203C512.086 78.543 513.348 79.2623 514.245 80.3252C514.841 81.0672 515.286 81.9375 515.521 82.8711C515.586 83.1325 515.661 83.3931 515.681 83.664C516.07 86.0833 515.412 88.5725 514.265 90.6851C511.801 95.4398 509.354 100.205 506.889 104.959C506.081 103.948 505.308 102.906 504.512 101.884C503.586 100.673 502.648 99.4705 501.727 98.2537C500.956 97.2758 500.216 96.2705 499.436 95.3001C499.113 94.9272 498.884 94.4826 498.651 94.0484C498.579 93.8237 498.475 93.6113 498.386 93.3952C498.307 93.0431 498.175 92.707 498.119 92.3483C497.911 91.2439 497.953 90.1102 498.12 89.0039C498.689 85.82 500.479 82.9381 502.887 80.8935C504.11 79.8636 505.516 79.0537 507.031 78.5855ZM507.591 82.6171C506.481 82.7965 505.465 83.3713 504.598 84.0935C503.16 85.3536 502.103 87.1557 501.946 89.121C501.892 90.0045 502.053 90.9249 502.519 91.6791C503.068 92.5834 504.061 93.1545 505.087 93.2224C506.558 93.3442 507.986 92.6806 509.112 91.7433C510.109 90.8871 510.925 89.7883 511.4 88.5376C511.792 87.4964 511.97 86.3354 511.71 85.2366C511.526 84.4201 511.071 83.6489 510.388 83.1807C509.589 82.5879 508.544 82.4491 507.591 82.6171Z" fill="#F5FAF5"/>
<path d="M506.375 85.0459C507.017 84.7165 507.78 84.5768 508.475 84.808C509.152 85.0185 509.665 85.6566 509.789 86.3684C509.808 86.628 509.88 86.8876 509.839 87.149C509.751 88.4602 508.979 89.6467 507.962 90.4028C507.508 90.7134 507.004 90.9711 506.46 91.0532C505.877 91.1618 505.237 91.0645 504.753 90.6936C504.422 90.4557 504.192 90.0932 504.053 89.7071C503.912 89.2446 503.884 88.749 503.972 88.2733C504.219 86.8866 505.159 85.6689 506.375 85.0459Z" fill="#9FCFA3"/>
<path d="M560.215 72.1104C560.727 72.0859 561.242 72.0906 561.755 72.102C562.993 72.2162 564.224 72.5786 565.277 73.2734C566.903 74.3033 568.029 76.0599 568.472 77.9601C568.744 79.124 568.835 80.3389 568.708 81.5311C568.542 83.3312 567.998 85.0804 567.21 86.6898C566.129 88.7599 565.065 90.8394 563.988 92.9114C563.805 93.254 563.654 93.6165 563.429 93.9337C562.768 95.2043 562.135 96.4918 561.487 97.7699C560.555 99.5587 559.64 101.357 558.709 103.146C558.47 103.563 558.049 103.948 557.55 103.909C557.199 103.932 556.991 103.592 556.804 103.341C555.836 102.081 554.867 100.822 553.898 99.5615C553.472 98.9376 552.988 98.3589 552.539 97.7529C551.325 96.2577 550.181 94.7021 548.992 93.1842C547.669 91.6663 547.029 89.5981 547.03 87.5752C546.968 85.0199 547.756 82.5071 548.969 80.303C550.9 76.8519 553.949 73.9842 557.632 72.6863C558.469 72.3974 559.339 72.2199 560.215 72.1104ZM558.031 74.5855C556.515 75.0537 555.11 75.8636 553.886 76.8935C551.479 78.9381 549.689 81.8199 549.12 85.0039C548.953 86.1102 548.911 87.2439 549.119 88.3483C549.175 88.707 549.307 89.0431 549.385 89.3952C549.475 89.6113 549.579 89.8237 549.651 90.0484C549.884 90.4826 550.112 90.9272 550.436 91.3001C551.216 92.2705 551.956 93.2758 552.727 94.2537C553.648 95.4704 554.586 96.673 555.512 97.8841C556.308 98.9055 557.081 99.9476 557.889 100.959C560.354 96.2048 562.8 91.4398 565.265 86.6851C566.412 84.5725 567.07 82.0833 566.681 79.664C566.661 79.393 566.586 79.1325 566.52 78.871C566.285 77.9375 565.841 77.0671 565.245 76.3252C564.348 75.2623 563.086 74.543 561.738 74.3202C560.504 74.0833 559.23 74.2343 558.031 74.5855Z" fill="black"/>
<path d="M558.591 78.6171C559.544 78.4491 560.589 78.5878 561.388 79.1806C562.071 79.6488 562.526 80.4201 562.71 81.2366C562.97 82.3353 562.792 83.4964 562.4 84.5376C561.924 85.7883 561.109 86.8871 560.112 87.7432C558.986 88.6806 557.558 89.3442 556.086 89.2224C555.06 89.1544 554.067 88.5834 553.519 87.679C553.052 86.9248 552.892 86.0045 552.945 85.1209C553.103 83.1556 554.16 81.3536 555.598 80.0934C556.465 79.3713 557.481 78.7965 558.591 78.6171ZM557.376 81.0459C556.16 81.6689 555.22 82.8866 554.973 84.2733C554.885 84.749 554.912 85.2446 555.054 85.7071C555.193 86.0932 555.423 86.4557 555.754 86.6936C556.237 87.0645 556.877 87.1618 557.461 87.0532C558.005 86.9711 558.509 86.7134 558.962 86.4028C559.979 85.6467 560.751 84.4602 560.84 83.149C560.881 82.8875 560.809 82.628 560.789 82.3684C560.665 81.6566 560.152 81.0185 559.475 80.808C558.78 80.5767 558.018 80.7165 557.376 81.0459Z" fill="black"/>
<path d="M558.031 74.5855C559.23 74.2344 560.504 74.0833 561.738 74.3203C563.086 74.543 564.348 75.2623 565.245 76.3252C565.841 77.0672 566.286 77.9375 566.521 78.8711C566.586 79.1325 566.661 79.3931 566.681 79.664C567.07 82.0833 566.412 84.5725 565.265 86.6851C562.801 91.4398 560.354 96.2049 557.889 100.959C557.081 99.9476 556.308 98.9055 555.512 97.8841C554.586 96.6731 553.648 95.4705 552.727 94.2537C551.956 93.2758 551.216 92.2705 550.436 91.3001C550.113 90.9272 549.884 90.4826 549.651 90.0484C549.579 89.8237 549.475 89.6113 549.386 89.3952C549.307 89.0431 549.175 88.707 549.119 88.3483C548.911 87.2439 548.953 86.1102 549.12 85.0039C549.689 81.82 551.479 78.9381 553.887 76.8935C555.11 75.8636 556.516 75.0537 558.031 74.5855ZM558.591 78.6171C557.481 78.7965 556.465 79.3713 555.598 80.0935C554.16 81.3536 553.103 83.1557 552.946 85.121C552.892 86.0045 553.053 86.9249 553.519 87.6791C554.068 88.5834 555.061 89.1545 556.087 89.2224C557.558 89.3442 558.986 88.6806 560.112 87.7433C561.109 86.8871 561.925 85.7883 562.4 84.5376C562.792 83.4964 562.97 82.3354 562.71 81.2366C562.526 80.4201 562.071 79.6489 561.388 79.1807C560.589 78.5879 559.544 78.4491 558.591 78.6171Z" fill="#F5FAF5"/>
<path d="M557.375 81.0459C558.017 80.7165 558.78 80.5768 559.475 80.808C560.152 81.0185 560.665 81.6566 560.789 82.3684C560.808 82.628 560.88 82.8876 560.839 83.149C560.751 84.4602 559.979 85.6467 558.962 86.4028C558.508 86.7134 558.004 86.9711 557.46 87.0532C556.877 87.1618 556.237 87.0645 555.753 86.6936C555.422 86.4557 555.192 86.0932 555.053 85.7071C554.912 85.2446 554.884 84.749 554.972 84.2733C555.219 82.8866 556.159 81.6689 557.375 81.0459Z" fill="#9FCFA3"/>
<path d="M668.215 44.1104C668.727 44.0859 669.242 44.0906 669.755 44.102C670.993 44.2162 672.224 44.5786 673.277 45.2734C674.903 46.3033 676.029 48.0599 676.472 49.9601C676.744 51.124 676.835 52.3389 676.708 53.5311C676.542 55.3312 675.998 57.0804 675.21 58.6898C674.129 60.7599 673.065 62.8394 671.988 64.9114C671.805 65.254 671.654 65.6165 671.429 65.9337C670.768 67.2043 670.135 68.4918 669.487 69.7699C668.555 71.5587 667.64 73.3569 666.709 75.1457C666.47 75.563 666.049 75.9481 665.55 75.9094C665.199 75.932 664.991 75.5922 664.804 75.3411C663.836 74.081 662.867 72.8217 661.898 71.5615C661.472 70.9376 660.988 70.3589 660.539 69.7529C659.325 68.2577 658.181 66.7021 656.992 65.1842C655.669 63.6663 655.029 61.5981 655.03 59.5752C654.968 57.0199 655.756 54.5071 656.969 52.303C658.9 48.8519 661.949 45.9842 665.632 44.6863C666.469 44.3974 667.339 44.2199 668.215 44.1104ZM666.031 46.5855C664.515 47.0537 663.11 47.8636 661.886 48.8935C659.479 50.9381 657.689 53.8199 657.12 57.0039C656.953 58.1102 656.911 59.2439 657.119 60.3483C657.175 60.707 657.307 61.0431 657.385 61.3952C657.475 61.6113 657.579 61.8237 657.651 62.0484C657.884 62.4826 658.112 62.9272 658.436 63.3001C659.216 64.2705 659.956 65.2758 660.727 66.2537C661.648 67.4704 662.586 68.673 663.512 69.8841C664.308 70.9055 665.081 71.9476 665.889 72.9586C668.354 68.2048 670.8 63.4398 673.265 58.6851C674.412 56.5725 675.07 54.0833 674.681 51.664C674.661 51.393 674.586 51.1325 674.52 50.871C674.285 49.9375 673.841 49.0671 673.245 48.3252C672.348 47.2623 671.086 46.543 669.738 46.3202C668.504 46.0833 667.23 46.2343 666.031 46.5855Z" fill="black"/>
<path d="M666.591 50.6171C667.544 50.4491 668.589 50.5878 669.388 51.1806C670.071 51.6488 670.526 52.4201 670.71 53.2366C670.97 54.3353 670.792 55.4964 670.4 56.5376C669.924 57.7883 669.109 58.8871 668.112 59.7432C666.986 60.6806 665.558 61.3442 664.086 61.2224C663.06 61.1544 662.067 60.5834 661.519 59.679C661.052 58.9248 660.892 58.0045 660.945 57.1209C661.103 55.1556 662.16 53.3536 663.598 52.0934C664.465 51.3713 665.481 50.7965 666.591 50.6171ZM665.376 53.0459C664.16 53.6689 663.22 54.8866 662.973 56.2733C662.885 56.749 662.912 57.2446 663.054 57.7071C663.193 58.0932 663.423 58.4557 663.754 58.6936C664.237 59.0645 664.877 59.1618 665.461 59.0532C666.005 58.9711 666.509 58.7134 666.962 58.4028C667.979 57.6467 668.751 56.4602 668.84 55.149C668.881 54.8875 668.809 54.628 668.789 54.3684C668.665 53.6566 668.152 53.0185 667.475 52.808C666.78 52.5767 666.018 52.7165 665.376 53.0459Z" fill="black"/>
<path d="M666.031 46.5855C667.23 46.2344 668.504 46.0833 669.738 46.3203C671.086 46.543 672.348 47.2623 673.245 48.3252C673.841 49.0672 674.286 49.9375 674.521 50.8711C674.586 51.1325 674.661 51.3931 674.681 51.664C675.07 54.0833 674.412 56.5725 673.265 58.6851C670.801 63.4398 668.354 68.2049 665.889 72.9586C665.081 71.9476 664.308 70.9055 663.512 69.8841C662.586 68.6731 661.648 67.4705 660.727 66.2537C659.956 65.2758 659.216 64.2705 658.436 63.3001C658.113 62.9272 657.884 62.4826 657.651 62.0484C657.579 61.8237 657.475 61.6113 657.386 61.3952C657.307 61.0431 657.175 60.707 657.119 60.3483C656.911 59.2439 656.953 58.1102 657.12 57.0039C657.689 53.82 659.479 50.9381 661.887 48.8935C663.11 47.8636 664.516 47.0537 666.031 46.5855ZM666.591 50.6171C665.481 50.7965 664.465 51.3713 663.598 52.0935C662.16 53.3536 661.103 55.1557 660.946 57.121C660.892 58.0045 661.053 58.9249 661.519 59.6791C662.068 60.5834 663.061 61.1545 664.087 61.2224C665.558 61.3442 666.986 60.6806 668.112 59.7433C669.109 58.8871 669.925 57.7883 670.4 56.5376C670.792 55.4964 670.97 54.3354 670.71 53.2366C670.526 52.4201 670.071 51.6489 669.388 51.1807C668.589 50.5879 667.544 50.4491 666.591 50.6171Z" fill="#F5FAF5"/>
<path d="M665.375 53.0459C666.017 52.7165 666.78 52.5768 667.475 52.808C668.152 53.0185 668.665 53.6566 668.789 54.3684C668.808 54.628 668.88 54.8876 668.839 55.149C668.751 56.4602 667.979 57.6467 666.962 58.4028C666.508 58.7134 666.004 58.9711 665.46 59.0532C664.877 59.1618 664.237 59.0645 663.753 58.6936C663.422 58.4557 663.192 58.0932 663.053 57.7071C662.912 57.2446 662.884 56.749 662.972 56.2733C663.219 54.8866 664.159 53.6689 665.375 53.0459Z" fill="#9FCFA3"/>
<path d="M703.215 32.1104C703.727 32.0859 704.242 32.0906 704.755 32.102C705.993 32.2162 707.224 32.5786 708.277 33.2734C709.903 34.3033 711.029 36.0599 711.472 37.9601C711.744 39.124 711.835 40.3389 711.708 41.5311C711.542 43.3312 710.998 45.0804 710.21 46.6898C709.129 48.7599 708.065 50.8394 706.988 52.9114C706.805 53.254 706.654 53.6165 706.429 53.9337C705.768 55.2043 705.135 56.4918 704.487 57.7699C703.555 59.5587 702.64 61.3569 701.709 63.1457C701.47 63.563 701.049 63.9481 700.55 63.9094C700.199 63.932 699.991 63.5922 699.804 63.3411C698.836 62.081 697.867 60.8217 696.898 59.5615C696.472 58.9376 695.988 58.3589 695.539 57.7529C694.325 56.2577 693.181 54.7021 691.992 53.1842C690.669 51.6663 690.029 49.5981 690.03 47.5752C689.968 45.0199 690.756 42.5071 691.969 40.303C693.9 36.8519 696.949 33.9842 700.632 32.6863C701.469 32.3974 702.339 32.2199 703.215 32.1104ZM701.031 34.5855C699.515 35.0537 698.11 35.8636 696.886 36.8935C694.479 38.9381 692.689 41.8199 692.12 45.0039C691.953 46.1102 691.911 47.2439 692.119 48.3483C692.175 48.707 692.307 49.0431 692.385 49.3952C692.475 49.6113 692.579 49.8237 692.651 50.0484C692.884 50.4826 693.112 50.9272 693.436 51.3001C694.216 52.2705 694.956 53.2758 695.727 54.2537C696.648 55.4704 697.586 56.673 698.512 57.8841C699.308 58.9055 700.081 59.9476 700.889 60.9586C703.354 56.2048 705.8 51.4398 708.265 46.6851C709.412 44.5725 710.07 42.0833 709.681 39.664C709.661 39.393 709.586 39.1325 709.52 38.871C709.285 37.9375 708.841 37.0671 708.245 36.3252C707.348 35.2623 706.086 34.543 704.738 34.3202C703.504 34.0833 702.23 34.2343 701.031 34.5855Z" fill="black"/>
<path d="M701.591 38.6171C702.544 38.4491 703.589 38.5878 704.388 39.1806C705.071 39.6488 705.526 40.4201 705.71 41.2366C705.97 42.3353 705.792 43.4964 705.4 44.5376C704.924 45.7883 704.109 46.8871 703.112 47.7432C701.986 48.6806 700.558 49.3442 699.086 49.2224C698.06 49.1544 697.067 48.5834 696.519 47.679C696.052 46.9248 695.892 46.0045 695.945 45.1209C696.103 43.1556 697.16 41.3536 698.598 40.0934C699.465 39.3713 700.481 38.7965 701.591 38.6171ZM700.376 41.0459C699.16 41.6689 698.22 42.8866 697.973 44.2733C697.885 44.749 697.912 45.2446 698.054 45.7071C698.193 46.0932 698.423 46.4557 698.754 46.6936C699.237 47.0645 699.877 47.1618 700.461 47.0532C701.005 46.9711 701.509 46.7134 701.962 46.4028C702.979 45.6467 703.751 44.4602 703.84 43.149C703.881 42.8875 703.809 42.628 703.789 42.3684C703.665 41.6566 703.152 41.0185 702.475 40.808C701.78 40.5767 701.018 40.7165 700.376 41.0459Z" fill="black"/>
<path d="M701.031 34.5855C702.23 34.2344 703.504 34.0833 704.738 34.3203C706.086 34.543 707.348 35.2623 708.245 36.3252C708.841 37.0672 709.286 37.9375 709.521 38.8711C709.586 39.1325 709.661 39.3931 709.681 39.664C710.07 42.0833 709.412 44.5725 708.265 46.6851C705.801 51.4398 703.354 56.2049 700.889 60.9586C700.081 59.9476 699.308 58.9055 698.512 57.8841C697.586 56.6731 696.648 55.4705 695.727 54.2537C694.956 53.2758 694.216 52.2705 693.436 51.3001C693.113 50.9272 692.884 50.4826 692.651 50.0484C692.579 49.8237 692.475 49.6113 692.386 49.3952C692.307 49.0431 692.175 48.707 692.119 48.3483C691.911 47.2439 691.953 46.1102 692.12 45.0039C692.689 41.82 694.479 38.9381 696.887 36.8935C698.11 35.8636 699.516 35.0537 701.031 34.5855ZM701.591 38.6171C700.481 38.7965 699.465 39.3713 698.598 40.0935C697.16 41.3536 696.103 43.1557 695.946 45.121C695.892 46.0045 696.053 46.9249 696.519 47.6791C697.068 48.5834 698.061 49.1545 699.087 49.2224C700.558 49.3442 701.986 48.6806 703.112 47.7433C704.109 46.8871 704.925 45.7883 705.4 44.5376C705.792 43.4964 705.97 42.3354 705.71 41.2366C705.526 40.4201 705.071 39.6489 704.388 39.1807C703.589 38.5879 702.544 38.4491 701.591 38.6171Z" fill="#F5FAF5"/>
<path d="M700.375 41.0459C701.017 40.7165 701.78 40.5768 702.475 40.808C703.152 41.0185 703.665 41.6566 703.789 42.3684C703.808 42.628 703.88 42.8876 703.839 43.149C703.751 44.4602 702.979 45.6467 701.962 46.4028C701.508 46.7134 701.004 46.9711 700.46 47.0532C699.877 47.1618 699.237 47.0645 698.753 46.6936C698.422 46.4557 698.192 46.0932 698.053 45.7071C697.912 45.2446 697.884 44.749 697.972 44.2733C698.219 42.8866 699.159 41.6689 700.375 41.0459Z" fill="#9FCFA3"/>
<path d="M693.215 0.110449C693.727 0.0859064 694.242 0.0906262 694.755 0.101954C695.993 0.216172 697.224 0.57865 698.277 1.2734C699.903 2.30325 701.029 4.05995 701.472 5.96012C701.744 7.12402 701.835 8.33889 701.708 9.5311C701.542 11.3312 700.998 13.0804 700.21 14.6898C699.129 16.7599 698.065 18.8394 696.988 20.9114C696.805 21.254 696.654 21.6165 696.429 21.9337C695.768 23.2043 695.135 24.4918 694.487 25.7699C693.555 27.5587 692.64 29.3569 691.709 31.1457C691.47 31.563 691.049 31.9481 690.55 31.9094C690.199 31.932 689.991 31.5922 689.804 31.3411C688.836 30.081 687.867 28.8217 686.898 27.5615C686.472 26.9376 685.988 26.3589 685.539 25.7529C684.325 24.2577 683.181 22.7021 681.992 21.1842C680.669 19.6663 680.029 17.5981 680.03 15.5752C679.968 13.0199 680.756 10.5071 681.969 8.30302C683.9 4.85192 686.949 1.9842 690.632 0.68626C691.469 0.397411 692.339 0.219948 693.215 0.110449ZM691.031 2.58549C689.515 3.05369 688.11 3.86361 686.886 4.89346C684.479 6.93806 682.689 9.81995 682.12 13.0039C681.953 14.1102 681.911 15.2439 682.119 16.3483C682.175 16.707 682.307 17.0431 682.385 17.3952C682.475 17.6113 682.579 17.8237 682.651 18.0484C682.884 18.4826 683.112 18.9272 683.436 19.3001C684.216 20.2705 684.956 21.2758 685.727 22.2537C686.648 23.4704 687.586 24.673 688.512 25.8841C689.308 26.9055 690.081 27.9476 690.889 28.9586C693.354 24.2048 695.8 19.4398 698.265 14.6851C699.412 12.5725 700.07 10.0833 699.681 7.66396C699.661 7.39305 699.586 7.13251 699.52 6.87104C699.285 5.93747 698.841 5.06715 698.245 4.3252C697.348 3.26231 696.086 2.54302 694.738 2.32024C693.504 2.08331 692.23 2.23434 691.031 2.58549Z" fill="black"/>
<path d="M691.591 6.6171C692.544 6.44908 693.589 6.58784 694.388 7.18064C695.071 7.64884 695.526 8.42005 695.71 9.23657C695.97 10.3353 695.792 11.4964 695.4 12.5376C694.924 13.7883 694.109 14.8871 693.112 15.7432C691.986 16.6806 690.558 17.3442 689.086 17.2224C688.06 17.1544 687.067 16.5834 686.519 15.679C686.052 14.9248 685.892 14.0045 685.945 13.1209C686.103 11.1556 687.16 9.35362 688.598 8.09344C689.465 7.37132 690.481 6.79645 691.591 6.6171ZM690.376 9.04589C689.16 9.6689 688.22 10.8866 687.973 12.2733C687.885 12.749 687.912 13.2446 688.054 13.7071C688.193 14.0932 688.423 14.4557 688.754 14.6936C689.237 15.0645 689.877 15.1618 690.461 15.0532C691.005 14.9711 691.509 14.7134 691.962 14.4028C692.979 13.6467 693.751 12.4602 693.84 11.149C693.881 10.8875 693.809 10.628 693.789 10.3684C693.665 9.65663 693.152 9.01852 692.475 8.80802C691.78 8.57675 691.018 8.71645 690.376 9.04589Z" fill="black"/>
<path d="M691.031 2.58551C692.23 2.23436 693.504 2.08333 694.738 2.32026C696.086 2.54303 697.348 3.26232 698.245 4.32521C698.841 5.06716 699.286 5.93748 699.521 6.87105C699.586 7.13253 699.661 7.39306 699.681 7.66397C700.07 10.0833 699.412 12.5725 698.265 14.6851C695.801 19.4398 693.354 24.2049 690.889 28.9586C690.081 27.9476 689.308 26.9055 688.512 25.8841C687.586 24.6731 686.648 23.4705 685.727 22.2537C684.956 21.2758 684.216 20.2705 683.436 19.3001C683.113 18.9272 682.884 18.4826 682.651 18.0484C682.579 17.8237 682.475 17.6113 682.386 17.3952C682.307 17.0431 682.175 16.707 682.119 16.3483C681.911 15.2439 681.953 14.1102 682.12 13.0039C682.689 9.81996 684.479 6.93807 686.887 4.89347C688.11 3.86362 689.516 3.05371 691.031 2.58551ZM691.591 6.61713C690.481 6.79648 689.465 7.37135 688.598 8.09347C687.16 9.35365 686.103 11.1557 685.946 13.121C685.892 14.0045 686.053 14.9249 686.519 15.6791C687.068 16.5834 688.061 17.1545 689.087 17.2224C690.558 17.3442 691.986 16.6806 693.112 15.7433C694.109 14.8871 694.925 13.7883 695.4 12.5376C695.792 11.4964 695.97 10.3354 695.71 9.2366C695.526 8.42008 695.071 7.64887 694.388 7.18067C693.589 6.58787 692.544 6.44911 691.591 6.61713Z" fill="#F5FAF5"/>
<path d="M690.375 9.0459C691.017 8.71647 691.78 8.57676 692.475 8.80803C693.152 9.01853 693.665 9.65664 693.789 10.3684C693.808 10.628 693.88 10.8876 693.839 11.149C693.751 12.4602 692.979 13.6467 691.962 14.4028C691.508 14.7134 691.004 14.9711 690.46 15.0532C689.877 15.1618 689.237 15.0645 688.753 14.6936C688.422 14.4557 688.192 14.0932 688.053 13.7071C687.912 13.2446 687.884 12.749 687.972 12.2733C688.219 10.8866 689.159 9.66891 690.375 9.0459Z" fill="#9FCFA3"/>
<path d="M793.215 2.11045C793.727 2.08591 794.242 2.09063 794.755 2.10195C795.993 2.21617 797.224 2.57865 798.277 3.2734C799.903 4.30325 801.029 6.05995 801.472 7.96012C801.744 9.12402 801.835 10.3389 801.708 11.5311C801.542 13.3312 800.998 15.0804 800.21 16.6898C799.129 18.7599 798.065 20.8394 796.988 22.9114C796.805 23.254 796.654 23.6165 796.429 23.9337C795.768 25.2043 795.135 26.4918 794.487 27.7699C793.555 29.5587 792.64 31.3569 791.709 33.1457C791.47 33.563 791.049 33.9481 790.55 33.9094C790.199 33.932 789.991 33.5922 789.804 33.3411C788.836 32.081 787.867 30.8217 786.898 29.5615C786.472 28.9376 785.988 28.3589 785.539 27.7529C784.325 26.2577 783.181 24.7021 781.992 23.1842C780.669 21.6663 780.029 19.5981 780.03 17.5752C779.968 15.0199 780.756 12.5071 781.969 10.303C783.9 6.85192 786.949 3.9842 790.632 2.68626C791.469 2.39741 792.339 2.21995 793.215 2.11045ZM791.031 4.58549C789.515 5.05369 788.11 5.86361 786.886 6.89346C784.479 8.93806 782.689 11.8199 782.12 15.0039C781.953 16.1102 781.911 17.2439 782.119 18.3483C782.175 18.707 782.307 19.0431 782.385 19.3952C782.475 19.6113 782.579 19.8237 782.651 20.0484C782.884 20.4826 783.112 20.9272 783.436 21.3001C784.216 22.2705 784.956 23.2758 785.727 24.2537C786.648 25.4704 787.586 26.673 788.512 27.8841C789.308 28.9055 790.081 29.9476 790.889 30.9586C793.354 26.2048 795.8 21.4398 798.265 16.6851C799.412 14.5725 800.07 12.0833 799.681 9.66396C799.661 9.39305 799.586 9.13251 799.52 8.87104C799.285 7.93747 798.841 7.06715 798.245 6.3252C797.348 5.26231 796.086 4.54302 794.738 4.32024C793.504 4.08331 792.23 4.23434 791.031 4.58549Z" fill="black"/>
<path d="M791.591 8.6171C792.544 8.44908 793.589 8.58784 794.388 9.18064C795.071 9.64884 795.526 10.4201 795.71 11.2366C795.97 12.3353 795.792 13.4964 795.4 14.5376C794.924 15.7883 794.109 16.8871 793.112 17.7432C791.986 18.6806 790.558 19.3442 789.086 19.2224C788.06 19.1544 787.067 18.5834 786.519 17.679C786.052 16.9248 785.892 16.0045 785.945 15.1209C786.103 13.1556 787.16 11.3536 788.598 10.0934C789.465 9.37132 790.481 8.79645 791.591 8.6171ZM790.376 11.0459C789.16 11.6689 788.22 12.8866 787.973 14.2733C787.885 14.749 787.912 15.2446 788.054 15.7071C788.193 16.0932 788.423 16.4557 788.754 16.6936C789.237 17.0645 789.877 17.1618 790.461 17.0532C791.005 16.9711 791.509 16.7134 791.962 16.4028C792.979 15.6467 793.751 14.4602 793.84 13.149C793.881 12.8875 793.809 12.628 793.789 12.3684C793.665 11.6566 793.152 11.0185 792.475 10.808C791.78 10.5767 791.018 10.7165 790.376 11.0459Z" fill="black"/>
<path d="M791.031 4.58551C792.23 4.23436 793.504 4.08333 794.738 4.32026C796.086 4.54303 797.348 5.26232 798.245 6.32521C798.841 7.06716 799.286 7.93748 799.521 8.87105C799.586 9.13253 799.661 9.39306 799.681 9.66397C800.07 12.0833 799.412 14.5725 798.265 16.6851C795.801 21.4398 793.354 26.2049 790.889 30.9586C790.081 29.9476 789.308 28.9055 788.512 27.8841C787.586 26.6731 786.648 25.4705 785.727 24.2537C784.956 23.2758 784.216 22.2705 783.436 21.3001C783.113 20.9272 782.884 20.4826 782.651 20.0484C782.579 19.8237 782.475 19.6113 782.386 19.3952C782.307 19.0431 782.175 18.707 782.119 18.3483C781.911 17.2439 781.953 16.1102 782.12 15.0039C782.689 11.82 784.479 8.93807 786.887 6.89347C788.11 5.86362 789.516 5.05371 791.031 4.58551ZM791.591 8.61713C790.481 8.79648 789.465 9.37135 788.598 10.0935C787.16 11.3536 786.103 13.1557 785.946 15.121C785.892 16.0045 786.053 16.9249 786.519 17.6791C787.068 18.5834 788.061 19.1545 789.087 19.2224C790.558 19.3442 791.986 18.6806 793.112 17.7433C794.109 16.8871 794.925 15.7883 795.4 14.5376C795.792 13.4964 795.97 12.3354 795.71 11.2366C795.526 10.4201 795.071 9.64887 794.388 9.18067C793.589 8.58787 792.544 8.44911 791.591 8.61713Z" fill="#F5FAF5"/>
<path d="M790.375 11.0459C791.017 10.7165 791.78 10.5768 792.475 10.808C793.152 11.0185 793.665 11.6566 793.789 12.3684C793.808 12.628 793.88 12.8876 793.839 13.149C793.751 14.4602 792.979 15.6467 791.962 16.4028C791.508 16.7134 791.004 16.9711 790.46 17.0532C789.877 17.1618 789.237 17.0645 788.753 16.6936C788.422 16.4557 788.192 16.0932 788.053 15.7071C787.912 15.2446 787.884 14.749 787.972 14.2733C788.219 12.8866 789.159 11.6689 790.375 11.0459Z" fill="#9FCFA3"/>
<path d="M852.215 27.1104C852.727 27.0859 853.242 27.0906 853.755 27.102C854.993 27.2162 856.224 27.5786 857.277 28.2734C858.903 29.3033 860.029 31.0599 860.472 32.9601C860.744 34.124 860.835 35.3389 860.708 36.5311C860.542 38.3312 859.998 40.0804 859.21 41.6898C858.129 43.7599 857.065 45.8394 855.988 47.9114C855.805 48.254 855.654 48.6165 855.429 48.9337C854.768 50.2043 854.135 51.4918 853.487 52.7699C852.555 54.5587 851.64 56.3569 850.709 58.1457C850.47 58.563 850.049 58.9481 849.55 58.9094C849.199 58.932 848.991 58.5922 848.804 58.3411C847.836 57.081 846.867 55.8217 845.898 54.5615C845.472 53.9376 844.988 53.3589 844.539 52.7529C843.325 51.2577 842.181 49.7021 840.992 48.1842C839.669 46.6663 839.029 44.5981 839.03 42.5752C838.968 40.0199 839.756 37.5071 840.969 35.303C842.9 31.8519 845.949 28.9842 849.632 27.6863C850.469 27.3974 851.339 27.2199 852.215 27.1104ZM850.031 29.5855C848.515 30.0537 847.11 30.8636 845.886 31.8935C843.479 33.9381 841.689 36.8199 841.12 40.0039C840.953 41.1102 840.911 42.2439 841.119 43.3483C841.175 43.707 841.307 44.0431 841.385 44.3952C841.475 44.6113 841.579 44.8237 841.651 45.0484C841.884 45.4826 842.112 45.9272 842.436 46.3001C843.216 47.2705 843.956 48.2758 844.727 49.2537C845.648 50.4704 846.586 51.673 847.512 52.8841C848.308 53.9055 849.081 54.9476 849.889 55.9586C852.354 51.2048 854.8 46.4398 857.265 41.6851C858.412 39.5725 859.07 37.0833 858.681 34.664C858.661 34.393 858.586 34.1325 858.52 33.871C858.285 32.9375 857.841 32.0671 857.245 31.3252C856.348 30.2623 855.086 29.543 853.738 29.3202C852.504 29.0833 851.23 29.2343 850.031 29.5855Z" fill="black"/>
<path d="M850.591 33.6171C851.544 33.4491 852.589 33.5878 853.388 34.1806C854.071 34.6488 854.526 35.4201 854.71 36.2366C854.97 37.3353 854.792 38.4964 854.4 39.5376C853.924 40.7883 853.109 41.8871 852.112 42.7432C850.986 43.6806 849.558 44.3442 848.086 44.2224C847.06 44.1544 846.067 43.5834 845.519 42.679C845.052 41.9248 844.892 41.0045 844.945 40.1209C845.103 38.1556 846.16 36.3536 847.598 35.0934C848.465 34.3713 849.481 33.7965 850.591 33.6171ZM849.376 36.0459C848.16 36.6689 847.22 37.8866 846.973 39.2733C846.885 39.749 846.912 40.2446 847.054 40.7071C847.193 41.0932 847.423 41.4557 847.754 41.6936C848.237 42.0645 848.877 42.1618 849.461 42.0532C850.005 41.9711 850.509 41.7134 850.962 41.4028C851.979 40.6467 852.751 39.4602 852.84 38.149C852.881 37.8875 852.809 37.628 852.789 37.3684C852.665 36.6566 852.152 36.0185 851.475 35.808C850.78 35.5767 850.018 35.7165 849.376 36.0459Z" fill="black"/>
<path d="M850.031 29.5855C851.23 29.2344 852.504 29.0833 853.738 29.3203C855.086 29.543 856.348 30.2623 857.245 31.3252C857.841 32.0672 858.286 32.9375 858.521 33.8711C858.586 34.1325 858.661 34.3931 858.681 34.664C859.07 37.0833 858.412 39.5725 857.265 41.6851C854.801 46.4398 852.354 51.2049 849.889 55.9586C849.081 54.9476 848.308 53.9055 847.512 52.8841C846.586 51.6731 845.648 50.4705 844.727 49.2537C843.956 48.2758 843.216 47.2705 842.436 46.3001C842.113 45.9272 841.884 45.4826 841.651 45.0484C841.579 44.8237 841.475 44.6113 841.386 44.3952C841.307 44.0431 841.175 43.707 841.119 43.3483C840.911 42.2439 840.953 41.1102 841.12 40.0039C841.689 36.82 843.479 33.9381 845.887 31.8935C847.11 30.8636 848.516 30.0537 850.031 29.5855ZM850.591 33.6171C849.481 33.7965 848.465 34.3713 847.598 35.0935C846.16 36.3536 845.103 38.1557 844.946 40.121C844.892 41.0045 845.053 41.9249 845.519 42.6791C846.068 43.5834 847.061 44.1545 848.087 44.2224C849.558 44.3442 850.986 43.6806 852.112 42.7433C853.109 41.8871 853.925 40.7883 854.4 39.5376C854.792 38.4964 854.97 37.3354 854.71 36.2366C854.526 35.4201 854.071 34.6489 853.388 34.1807C852.589 33.5879 851.544 33.4491 850.591 33.6171Z" fill="#F5FAF5"/>
<path d="M849.375 36.0459C850.017 35.7165 850.78 35.5768 851.475 35.808C852.152 36.0185 852.665 36.6566 852.789 37.3684C852.808 37.628 852.88 37.8876 852.839 38.149C852.751 39.4602 851.979 40.6467 850.962 41.4028C850.508 41.7134 850.004 41.9711 849.46 42.0532C848.877 42.1618 848.237 42.0645 847.753 41.6936C847.422 41.4557 847.192 41.0932 847.053 40.7071C846.912 40.2446 846.884 39.749 846.972 39.2733C847.219 37.8866 848.159 36.6689 849.375 36.0459Z" fill="#9FCFA3"/>
<path d="M707.215 71.1104C707.727 71.0859 708.242 71.0906 708.755 71.102C709.993 71.2162 711.224 71.5786 712.277 72.2734C713.903 73.3033 715.029 75.0599 715.472 76.9601C715.744 78.124 715.835 79.3389 715.708 80.5311C715.542 82.3312 714.998 84.0804 714.21 85.6898C713.129 87.7599 712.065 89.8394 710.988 91.9114C710.805 92.254 710.654 92.6165 710.429 92.9337C709.768 94.2043 709.135 95.4918 708.487 96.7699C707.555 98.5587 706.64 100.357 705.709 102.146C705.47 102.563 705.049 102.948 704.55 102.909C704.199 102.932 703.991 102.592 703.804 102.341C702.836 101.081 701.867 99.8217 700.898 98.5615C700.472 97.9376 699.988 97.3589 699.539 96.7529C698.325 95.2577 697.181 93.7021 695.992 92.1842C694.669 90.6663 694.029 88.5981 694.03 86.5752C693.968 84.0199 694.756 81.5071 695.969 79.303C697.9 75.8519 700.949 72.9842 704.632 71.6863C705.469 71.3974 706.339 71.2199 707.215 71.1104ZM705.031 73.5855C703.515 74.0537 702.11 74.8636 700.886 75.8935C698.479 77.9381 696.689 80.8199 696.12 84.0039C695.953 85.1102 695.911 86.2439 696.119 87.3483C696.175 87.707 696.307 88.0431 696.385 88.3952C696.475 88.6113 696.579 88.8237 696.651 89.0484C696.884 89.4826 697.112 89.9272 697.436 90.3001C698.216 91.2705 698.956 92.2758 699.727 93.2537C700.648 94.4704 701.586 95.673 702.512 96.8841C703.308 97.9055 704.081 98.9476 704.889 99.9586C707.354 95.2048 709.8 90.4398 712.265 85.6851C713.412 83.5725 714.07 81.0833 713.681 78.664C713.661 78.393 713.586 78.1325 713.52 77.871C713.285 76.9375 712.841 76.0671 712.245 75.3252C711.348 74.2623 710.086 73.543 708.738 73.3202C707.504 73.0833 706.23 73.2343 705.031 73.5855Z" fill="black"/>
<path d="M705.591 77.6171C706.544 77.4491 707.589 77.5878 708.388 78.1806C709.071 78.6488 709.526 79.4201 709.71 80.2366C709.97 81.3353 709.792 82.4964 709.4 83.5376C708.924 84.7883 708.109 85.8871 707.112 86.7432C705.986 87.6806 704.558 88.3442 703.086 88.2224C702.06 88.1544 701.067 87.5834 700.519 86.679C700.052 85.9248 699.892 85.0045 699.945 84.1209C700.103 82.1556 701.16 80.3536 702.598 79.0934C703.465 78.3713 704.481 77.7965 705.591 77.6171ZM704.376 80.0459C703.16 80.6689 702.22 81.8866 701.973 83.2733C701.885 83.749 701.912 84.2446 702.054 84.7071C702.193 85.0932 702.423 85.4557 702.754 85.6936C703.237 86.0645 703.877 86.1618 704.461 86.0532C705.005 85.9711 705.509 85.7134 705.962 85.4028C706.979 84.6467 707.751 83.4602 707.84 82.149C707.881 81.8875 707.809 81.628 707.789 81.3684C707.665 80.6566 707.152 80.0185 706.475 79.808C705.78 79.5767 705.018 79.7165 704.376 80.0459Z" fill="black"/>
<path d="M705.031 73.5855C706.23 73.2344 707.504 73.0833 708.738 73.3203C710.086 73.543 711.348 74.2623 712.245 75.3252C712.841 76.0672 713.286 76.9375 713.521 77.8711C713.586 78.1325 713.661 78.3931 713.681 78.664C714.07 81.0833 713.412 83.5725 712.265 85.6851C709.801 90.4398 707.354 95.2049 704.889 99.9586C704.081 98.9476 703.308 97.9055 702.512 96.8841C701.586 95.6731 700.648 94.4705 699.727 93.2537C698.956 92.2758 698.216 91.2705 697.436 90.3001C697.113 89.9272 696.884 89.4826 696.651 89.0484C696.579 88.8237 696.475 88.6113 696.386 88.3952C696.307 88.0431 696.175 87.707 696.119 87.3483C695.911 86.2439 695.953 85.1102 696.12 84.0039C696.689 80.82 698.479 77.9381 700.887 75.8935C702.11 74.8636 703.516 74.0537 705.031 73.5855ZM705.591 77.6171C704.481 77.7965 703.465 78.3713 702.598 79.0935C701.16 80.3536 700.103 82.1557 699.946 84.121C699.892 85.0045 700.053 85.9249 700.519 86.6791C701.068 87.5834 702.061 88.1545 703.087 88.2224C704.558 88.3442 705.986 87.6806 707.112 86.7433C708.109 85.8871 708.925 84.7883 709.4 83.5376C709.792 82.4964 709.97 81.3354 709.71 80.2366C709.526 79.4201 709.071 78.6489 708.388 78.1807C707.589 77.5879 706.544 77.4491 705.591 77.6171Z" fill="#F5FAF5"/>
<path d="M704.375 80.0459C705.017 79.7165 705.78 79.5768 706.475 79.808C707.152 80.0185 707.665 80.6566 707.789 81.3684C707.808 81.628 707.88 81.8876 707.839 82.149C707.751 83.4602 706.979 84.6467 705.962 85.4028C705.508 85.7134 705.004 85.9711 704.46 86.0532C703.877 86.1618 703.237 86.0645 702.753 85.6936C702.422 85.4557 702.192 85.0932 702.053 84.7071C701.912 84.2446 701.884 83.749 701.972 83.2733C702.219 81.8866 703.159 80.6689 704.375 80.0459Z" fill="#9FCFA3"/>
<path d="M663.215 87.1104C663.727 87.0859 664.242 87.0906 664.755 87.102C665.993 87.2162 667.224 87.5786 668.277 88.2734C669.903 89.3033 671.029 91.0599 671.472 92.9601C671.744 94.124 671.835 95.3389 671.708 96.5311C671.542 98.3312 670.998 100.08 670.21 101.69C669.129 103.76 668.065 105.839 666.988 107.911C666.805 108.254 666.654 108.617 666.429 108.934C665.768 110.204 665.135 111.492 664.487 112.77C663.555 114.559 662.64 116.357 661.709 118.146C661.47 118.563 661.049 118.948 660.55 118.909C660.199 118.932 659.991 118.592 659.804 118.341C658.836 117.081 657.867 115.822 656.898 114.562C656.472 113.938 655.988 113.359 655.539 112.753C654.325 111.258 653.181 109.702 651.992 108.184C650.669 106.666 650.029 104.598 650.03 102.575C649.968 100.02 650.756 97.5071 651.969 95.303C653.9 91.8519 656.949 88.9842 660.632 87.6863C661.469 87.3974 662.339 87.2199 663.215 87.1104ZM661.031 89.5855C659.515 90.0537 658.11 90.8636 656.886 91.8935C654.479 93.9381 652.689 96.8199 652.12 100.004C651.953 101.11 651.911 102.244 652.119 103.348C652.175 103.707 652.307 104.043 652.385 104.395C652.475 104.611 652.579 104.824 652.651 105.048C652.884 105.483 653.112 105.927 653.436 106.3C654.216 107.27 654.956 108.276 655.727 109.254C656.648 110.47 657.586 111.673 658.512 112.884C659.308 113.905 660.081 114.948 660.889 115.959C663.354 111.205 665.8 106.44 668.265 101.685C669.412 99.5725 670.07 97.0833 669.681 94.664C669.661 94.393 669.586 94.1325 669.52 93.871C669.285 92.9375 668.841 92.0671 668.245 91.3252C667.348 90.2623 666.086 89.543 664.738 89.3202C663.504 89.0833 662.23 89.2343 661.031 89.5855Z" fill="black"/>
<path d="M661.591 93.6171C662.544 93.4491 663.589 93.5878 664.388 94.1806C665.071 94.6488 665.526 95.4201 665.71 96.2366C665.97 97.3353 665.792 98.4964 665.4 99.5376C664.924 100.788 664.109 101.887 663.112 102.743C661.986 103.681 660.558 104.344 659.086 104.222C658.06 104.154 657.067 103.583 656.519 102.679C656.052 101.925 655.892 101.004 655.945 100.121C656.103 98.1556 657.16 96.3536 658.598 95.0934C659.465 94.3713 660.481 93.7965 661.591 93.6171ZM660.376 96.0459C659.16 96.6689 658.22 97.8866 657.973 99.2733C657.885 99.749 657.912 100.245 658.054 100.707C658.193 101.093 658.423 101.456 658.754 101.694C659.237 102.065 659.877 102.162 660.461 102.053C661.005 101.971 661.509 101.713 661.962 101.403C662.979 100.647 663.751 99.4602 663.84 98.149C663.881 97.8875 663.809 97.628 663.789 97.3684C663.665 96.6566 663.152 96.0185 662.475 95.808C661.78 95.5767 661.018 95.7165 660.376 96.0459Z" fill="black"/>
<path d="M661.031 89.5855C662.23 89.2344 663.504 89.0833 664.738 89.3203C666.086 89.543 667.348 90.2623 668.245 91.3252C668.841 92.0672 669.286 92.9375 669.521 93.8711C669.586 94.1325 669.661 94.3931 669.681 94.664C670.07 97.0833 669.412 99.5725 668.265 101.685C665.801 106.44 663.354 111.205 660.889 115.959C660.081 114.948 659.308 113.906 658.512 112.884C657.586 111.673 656.648 110.47 655.727 109.254C654.956 108.276 654.216 107.27 653.436 106.3C653.113 105.927 652.884 105.483 652.651 105.048C652.579 104.824 652.475 104.611 652.386 104.395C652.307 104.043 652.175 103.707 652.119 103.348C651.911 102.244 651.953 101.11 652.12 100.004C652.689 96.82 654.479 93.9381 656.887 91.8935C658.11 90.8636 659.516 90.0537 661.031 89.5855ZM661.591 93.6171C660.481 93.7965 659.465 94.3713 658.598 95.0935C657.16 96.3536 656.103 98.1557 655.946 100.121C655.892 101.005 656.053 101.925 656.519 102.679C657.068 103.583 658.061 104.154 659.087 104.222C660.558 104.344 661.986 103.681 663.112 102.743C664.109 101.887 664.925 100.788 665.4 99.5376C665.792 98.4964 665.97 97.3354 665.71 96.2366C665.526 95.4201 665.071 94.6489 664.388 94.1807C663.589 93.5879 662.544 93.4491 661.591 93.6171Z" fill="#F5FAF5"/>
<path d="M660.375 96.0459C661.017 95.7165 661.78 95.5768 662.475 95.808C663.152 96.0185 663.665 96.6566 663.789 97.3684C663.808 97.628 663.88 97.8876 663.839 98.149C663.751 99.4602 662.979 100.647 661.962 101.403C661.508 101.713 661.004 101.971 660.46 102.053C659.877 102.162 659.237 102.065 658.753 101.694C658.422 101.456 658.192 101.093 658.053 100.707C657.912 100.245 657.884 99.749 657.972 99.2733C658.219 97.8866 659.159 96.6689 660.375 96.0459Z" fill="#9FCFA3"/>
<path d="M590.215 110.11C590.727 110.086 591.242 110.091 591.755 110.102C592.993 110.216 594.224 110.579 595.277 111.273C596.903 112.303 598.029 114.06 598.472 115.96C598.744 117.124 598.835 118.339 598.708 119.531C598.542 121.331 597.998 123.08 597.21 124.69C596.129 126.76 595.065 128.839 593.988 130.911C593.805 131.254 593.654 131.617 593.429 131.934C592.768 133.204 592.135 134.492 591.487 135.77C590.555 137.559 589.64 139.357 588.709 141.146C588.47 141.563 588.049 141.948 587.55 141.909C587.199 141.932 586.991 141.592 586.804 141.341C585.836 140.081 584.867 138.822 583.898 137.562C583.472 136.938 582.988 136.359 582.539 135.753C581.325 134.258 580.181 132.702 578.992 131.184C577.669 129.666 577.029 127.598 577.03 125.575C576.968 123.02 577.756 120.507 578.969 118.303C580.9 114.852 583.949 111.984 587.632 110.686C588.469 110.397 589.339 110.22 590.215 110.11ZM588.031 112.585C586.515 113.054 585.11 113.864 583.886 114.893C581.479 116.938 579.689 119.82 579.12 123.004C578.953 124.11 578.911 125.244 579.119 126.348C579.175 126.707 579.307 127.043 579.385 127.395C579.475 127.611 579.579 127.824 579.651 128.048C579.884 128.483 580.112 128.927 580.436 129.3C581.216 130.27 581.956 131.276 582.727 132.254C583.648 133.47 584.586 134.673 585.512 135.884C586.308 136.905 587.081 137.948 587.889 138.959C590.354 134.205 592.8 129.44 595.265 124.685C596.412 122.573 597.07 120.083 596.681 117.664C596.661 117.393 596.586 117.133 596.52 116.871C596.285 115.937 595.841 115.067 595.245 114.325C594.348 113.262 593.086 112.543 591.738 112.32C590.504 112.083 589.23 112.234 588.031 112.585Z" fill="black"/>
<path d="M588.591 116.617C589.544 116.449 590.589 116.588 591.388 117.181C592.071 117.649 592.526 118.42 592.71 119.237C592.97 120.335 592.792 121.496 592.4 122.538C591.924 123.788 591.109 124.887 590.112 125.743C588.986 126.681 587.558 127.344 586.086 127.222C585.06 127.154 584.067 126.583 583.519 125.679C583.052 124.925 582.892 124.004 582.945 123.121C583.103 121.156 584.16 119.354 585.598 118.093C586.465 117.371 587.481 116.796 588.591 116.617ZM587.376 119.046C586.16 119.669 585.22 120.887 584.973 122.273C584.885 122.749 584.912 123.245 585.054 123.707C585.193 124.093 585.423 124.456 585.754 124.694C586.237 125.065 586.877 125.162 587.461 125.053C588.005 124.971 588.509 124.713 588.962 124.403C589.979 123.647 590.751 122.46 590.84 121.149C590.881 120.888 590.809 120.628 590.789 120.368C590.665 119.657 590.152 119.019 589.475 118.808C588.78 118.577 588.018 118.716 587.376 119.046Z" fill="black"/>
<path d="M588.031 112.586C589.23 112.234 590.504 112.083 591.738 112.32C593.086 112.543 594.348 113.262 595.245 114.325C595.841 115.067 596.286 115.937 596.521 116.871C596.586 117.133 596.661 117.393 596.681 117.664C597.07 120.083 596.412 122.573 595.265 124.685C592.801 129.44 590.354 134.205 587.889 138.959C587.081 137.948 586.308 136.906 585.512 135.884C584.586 134.673 583.648 133.47 582.727 132.254C581.956 131.276 581.216 130.27 580.436 129.3C580.113 128.927 579.884 128.483 579.651 128.048C579.579 127.824 579.475 127.611 579.386 127.395C579.307 127.043 579.175 126.707 579.119 126.348C578.911 125.244 578.953 124.11 579.12 123.004C579.689 119.82 581.479 116.938 583.887 114.893C585.11 113.864 586.516 113.054 588.031 112.586ZM588.591 116.617C587.481 116.796 586.465 117.371 585.598 118.093C584.16 119.354 583.103 121.156 582.946 123.121C582.892 124.005 583.053 124.925 583.519 125.679C584.068 126.583 585.061 127.154 586.087 127.222C587.558 127.344 588.986 126.681 590.112 125.743C591.109 124.887 591.925 123.788 592.4 122.538C592.792 121.496 592.97 120.335 592.71 119.237C592.526 118.42 592.071 117.649 591.388 117.181C590.589 116.588 589.544 116.449 588.591 116.617Z" fill="#F5FAF5"/>
<path d="M587.375 119.046C588.017 118.716 588.78 118.577 589.475 118.808C590.152 119.019 590.665 119.657 590.789 120.368C590.808 120.628 590.88 120.888 590.839 121.149C590.751 122.46 589.979 123.647 588.962 124.403C588.508 124.713 588.004 124.971 587.46 125.053C586.877 125.162 586.237 125.065 585.753 124.694C585.422 124.456 585.192 124.093 585.053 123.707C584.912 123.245 584.884 122.749 584.972 122.273C585.219 120.887 586.159 119.669 587.375 119.046Z" fill="#9FCFA3"/>
<path d="M558.215 122.11C558.727 122.086 559.242 122.091 559.755 122.102C560.993 122.216 562.224 122.579 563.277 123.273C564.903 124.303 566.029 126.06 566.472 127.96C566.744 129.124 566.835 130.339 566.708 131.531C566.542 133.331 565.998 135.08 565.21 136.69C564.129 138.76 563.065 140.839 561.988 142.911C561.805 143.254 561.654 143.617 561.429 143.934C560.768 145.204 560.135 146.492 559.487 147.77C558.555 149.559 557.64 151.357 556.709 153.146C556.47 153.563 556.049 153.948 555.55 153.909C555.199 153.932 554.991 153.592 554.804 153.341C553.836 152.081 552.867 150.822 551.898 149.562C551.472 148.938 550.988 148.359 550.539 147.753C549.325 146.258 548.181 144.702 546.992 143.184C545.669 141.666 545.029 139.598 545.03 137.575C544.968 135.02 545.756 132.507 546.969 130.303C548.9 126.852 551.949 123.984 555.632 122.686C556.469 122.397 557.339 122.22 558.215 122.11ZM556.031 124.585C554.515 125.054 553.11 125.864 551.886 126.893C549.479 128.938 547.689 131.82 547.12 135.004C546.953 136.11 546.911 137.244 547.119 138.348C547.175 138.707 547.307 139.043 547.385 139.395C547.475 139.611 547.579 139.824 547.651 140.048C547.884 140.483 548.112 140.927 548.436 141.3C549.216 142.27 549.956 143.276 550.727 144.254C551.648 145.47 552.586 146.673 553.512 147.884C554.308 148.905 555.081 149.948 555.889 150.959C558.354 146.205 560.8 141.44 563.265 136.685C564.412 134.573 565.07 132.083 564.681 129.664C564.661 129.393 564.586 129.133 564.52 128.871C564.285 127.937 563.841 127.067 563.245 126.325C562.348 125.262 561.086 124.543 559.738 124.32C558.504 124.083 557.23 124.234 556.031 124.585Z" fill="black"/>
<path d="M556.591 128.617C557.544 128.449 558.589 128.588 559.388 129.181C560.071 129.649 560.526 130.42 560.71 131.237C560.97 132.335 560.792 133.496 560.4 134.538C559.924 135.788 559.109 136.887 558.112 137.743C556.986 138.681 555.558 139.344 554.086 139.222C553.06 139.154 552.067 138.583 551.519 137.679C551.052 136.925 550.892 136.004 550.945 135.121C551.103 133.156 552.16 131.354 553.598 130.093C554.465 129.371 555.481 128.796 556.591 128.617ZM555.376 131.046C554.16 131.669 553.22 132.887 552.973 134.273C552.885 134.749 552.912 135.245 553.054 135.707C553.193 136.093 553.423 136.456 553.754 136.694C554.237 137.065 554.877 137.162 555.461 137.053C556.005 136.971 556.509 136.713 556.962 136.403C557.979 135.647 558.751 134.46 558.84 133.149C558.881 132.888 558.809 132.628 558.789 132.368C558.665 131.657 558.152 131.019 557.475 130.808C556.78 130.577 556.018 130.716 555.376 131.046Z" fill="black"/>
<path d="M556.031 124.586C557.23 124.234 558.504 124.083 559.738 124.32C561.086 124.543 562.348 125.262 563.245 126.325C563.841 127.067 564.286 127.937 564.521 128.871C564.586 129.133 564.661 129.393 564.681 129.664C565.07 132.083 564.412 134.573 563.265 136.685C560.801 141.44 558.354 146.205 555.889 150.959C555.081 149.948 554.308 148.906 553.512 147.884C552.586 146.673 551.648 145.47 550.727 144.254C549.956 143.276 549.216 142.27 548.436 141.3C548.113 140.927 547.884 140.483 547.651 140.048C547.579 139.824 547.475 139.611 547.386 139.395C547.307 139.043 547.175 138.707 547.119 138.348C546.911 137.244 546.953 136.11 547.12 135.004C547.689 131.82 549.479 128.938 551.887 126.893C553.11 125.864 554.516 125.054 556.031 124.586ZM556.591 128.617C555.481 128.796 554.465 129.371 553.598 130.093C552.16 131.354 551.103 133.156 550.946 135.121C550.892 136.005 551.053 136.925 551.519 137.679C552.068 138.583 553.061 139.154 554.087 139.222C555.558 139.344 556.986 138.681 558.112 137.743C559.109 136.887 559.925 135.788 560.4 134.538C560.792 133.496 560.97 132.335 560.71 131.237C560.526 130.42 560.071 129.649 559.388 129.181C558.589 128.588 557.544 128.449 556.591 128.617Z" fill="#F5FAF5"/>
<path d="M555.375 131.046C556.017 130.716 556.78 130.577 557.475 130.808C558.152 131.019 558.665 131.657 558.789 132.368C558.808 132.628 558.88 132.888 558.839 133.149C558.751 134.46 557.979 135.647 556.962 136.403C556.508 136.713 556.004 136.971 555.46 137.053C554.877 137.162 554.237 137.065 553.753 136.694C553.422 136.456 553.192 136.093 553.053 135.707C552.912 135.245 552.884 134.749 552.972 134.273C553.219 132.887 554.159 131.669 555.375 131.046Z" fill="#9FCFA3"/>
<path d="M132.215 229.11C132.727 229.086 133.242 229.091 133.755 229.102C134.993 229.216 136.224 229.579 137.277 230.273C138.903 231.303 140.029 233.06 140.472 234.96C140.744 236.124 140.835 237.339 140.708 238.531C140.542 240.331 139.998 242.08 139.21 243.69C138.129 245.76 137.065 247.839 135.988 249.911C135.805 250.254 135.654 250.617 135.429 250.934C134.768 252.204 134.135 253.492 133.487 254.77C132.555 256.559 131.64 258.357 130.709 260.146C130.47 260.563 130.049 260.948 129.55 260.909C129.199 260.932 128.991 260.592 128.804 260.341C127.836 259.081 126.867 257.822 125.898 256.562C125.472 255.938 124.988 255.359 124.539 254.753C123.325 253.258 122.181 251.702 120.992 250.184C119.669 248.666 119.029 246.598 119.03 244.575C118.968 242.02 119.756 239.507 120.969 237.303C122.9 233.852 125.949 230.984 129.632 229.686C130.469 229.397 131.339 229.22 132.215 229.11ZM130.031 231.585C128.515 232.054 127.11 232.864 125.886 233.893C123.479 235.938 121.689 238.82 121.12 242.004C120.953 243.11 120.911 244.244 121.119 245.348C121.175 245.707 121.307 246.043 121.385 246.395C121.475 246.611 121.579 246.824 121.651 247.048C121.884 247.483 122.112 247.927 122.436 248.3C123.216 249.27 123.956 250.276 124.727 251.254C125.648 252.47 126.586 253.673 127.512 254.884C128.308 255.905 129.081 256.948 129.889 257.959C132.354 253.205 134.8 248.44 137.265 243.685C138.412 241.573 139.07 239.083 138.681 236.664C138.661 236.393 138.586 236.133 138.52 235.871C138.285 234.937 137.841 234.067 137.245 233.325C136.348 232.262 135.086 231.543 133.738 231.32C132.504 231.083 131.23 231.234 130.031 231.585Z" fill="black"/>
<path d="M130.591 235.617C131.544 235.449 132.589 235.588 133.388 236.181C134.071 236.649 134.526 237.42 134.71 238.237C134.97 239.335 134.792 240.496 134.4 241.538C133.924 242.788 133.109 243.887 132.112 244.743C130.986 245.681 129.558 246.344 128.086 246.222C127.06 246.154 126.067 245.583 125.519 244.679C125.052 243.925 124.892 243.004 124.945 242.121C125.103 240.156 126.16 238.354 127.598 237.093C128.465 236.371 129.481 235.796 130.591 235.617ZM129.376 238.046C128.16 238.669 127.22 239.887 126.973 241.273C126.885 241.749 126.912 242.245 127.054 242.707C127.193 243.093 127.423 243.456 127.754 243.694C128.237 244.065 128.877 244.162 129.461 244.053C130.005 243.971 130.509 243.713 130.962 243.403C131.979 242.647 132.751 241.46 132.84 240.149C132.881 239.888 132.809 239.628 132.789 239.368C132.665 238.657 132.152 238.019 131.475 237.808C130.78 237.577 130.018 237.716 129.376 238.046Z" fill="black"/>
<path d="M130.031 231.586C131.23 231.234 132.504 231.083 133.738 231.32C135.086 231.543 136.348 232.262 137.245 233.325C137.841 234.067 138.286 234.937 138.521 235.871C138.586 236.133 138.661 236.393 138.681 236.664C139.07 239.083 138.412 241.573 137.265 243.685C134.801 248.44 132.354 253.205 129.889 257.959C129.081 256.948 128.308 255.906 127.512 254.884C126.586 253.673 125.648 252.47 124.727 251.254C123.956 250.276 123.216 249.27 122.436 248.3C122.113 247.927 121.884 247.483 121.651 247.048C121.579 246.824 121.475 246.611 121.386 246.395C121.307 246.043 121.175 245.707 121.119 245.348C120.911 244.244 120.953 243.11 121.12 242.004C121.689 238.82 123.479 235.938 125.887 233.893C127.11 232.864 128.516 232.054 130.031 231.586ZM130.591 235.617C129.481 235.796 128.465 236.371 127.598 237.093C126.16 238.354 125.103 240.156 124.946 242.121C124.892 243.005 125.053 243.925 125.519 244.679C126.068 245.583 127.061 246.154 128.087 246.222C129.558 246.344 130.986 245.681 132.112 244.743C133.109 243.887 133.925 242.788 134.4 241.538C134.792 240.496 134.97 239.335 134.71 238.237C134.526 237.42 134.071 236.649 133.388 236.181C132.589 235.588 131.544 235.449 130.591 235.617Z" fill="#F5FAF5"/>
<path d="M129.375 238.046C130.017 237.716 130.78 237.577 131.475 237.808C132.152 238.019 132.665 238.657 132.789 239.368C132.808 239.628 132.88 239.888 132.839 240.149C132.751 241.46 131.979 242.647 130.962 243.403C130.508 243.713 130.004 243.971 129.46 244.053C128.877 244.162 128.237 244.065 127.753 243.694C127.422 243.456 127.192 243.093 127.053 242.707C126.912 242.245 126.884 241.749 126.972 241.273C127.219 239.887 128.159 238.669 129.375 238.046Z" fill="#9FCFA3"/>
<path d="M70.2153 251.11C70.7274 251.086 71.2422 251.091 71.7553 251.102C72.9925 251.216 74.2243 251.579 75.2768 252.273C76.9027 253.303 78.0293 255.06 78.4719 256.96C78.7435 258.124 78.835 259.339 78.7079 260.531C78.5423 262.331 77.9982 264.08 77.21 265.69C76.1291 267.76 75.0647 269.839 73.9884 271.911C73.8055 272.254 73.6537 272.617 73.4287 272.934C72.7676 274.204 72.1348 275.492 71.4873 276.77C70.5555 278.559 69.6401 280.357 68.7092 282.146C68.4696 282.563 68.049 282.948 67.5497 282.909C67.1985 282.932 66.9909 282.592 66.8044 282.341C65.836 281.081 64.8667 279.822 63.8983 278.562C63.4721 277.938 62.9884 277.359 62.5394 276.753C61.325 275.258 60.181 273.702 58.9922 272.184C57.669 270.666 57.0289 268.598 57.0298 266.575C56.9676 264.02 57.7559 261.507 58.9694 259.303C60.8998 255.852 63.9486 252.984 67.632 251.686C68.4687 251.397 69.3393 251.22 70.2153 251.11ZM68.0307 253.585C66.5154 254.054 65.1099 254.864 63.8864 255.893C61.4786 257.938 59.689 260.82 59.1202 264.004C58.9529 265.11 58.9108 266.244 59.1193 267.348C59.1751 267.707 59.3068 268.043 59.3854 268.395C59.475 268.611 59.5793 268.824 59.6506 269.048C59.8838 269.483 60.1124 269.927 60.4361 270.3C61.2162 271.27 61.956 272.276 62.7268 273.254C63.6477 274.47 64.5859 275.673 65.5123 276.884C66.3079 277.905 67.0806 278.948 67.8889 279.959C70.3543 275.205 72.8005 270.44 75.2649 265.685C76.4117 263.573 77.0701 261.083 76.6805 258.664C76.6613 258.393 76.5863 258.133 76.5205 257.871C76.2855 256.937 75.841 256.067 75.2448 255.325C74.3477 254.262 73.0858 253.543 71.7379 253.32C70.5043 253.083 69.2295 253.234 68.0307 253.585Z" fill="black"/>
<path d="M68.5911 257.617C69.544 257.449 70.5892 257.588 71.3875 258.181C72.0706 258.649 72.526 259.42 72.7098 260.237C72.9695 261.335 72.7921 262.496 72.3998 263.538C71.9243 264.788 71.1086 265.887 70.1119 266.743C68.9862 267.681 67.5578 268.344 66.0864 268.222C65.0604 268.154 64.0673 267.583 63.5186 266.679C63.0523 265.925 62.8922 265.004 62.9453 264.121C63.1026 262.156 64.1597 260.354 65.5981 259.093C66.465 258.371 67.481 257.796 68.5911 257.617ZM67.3758 260.046C66.1596 260.669 65.2195 261.887 64.9726 263.273C64.8848 263.749 64.9123 264.245 65.054 264.707C65.193 265.093 65.4225 265.456 65.7536 265.694C66.2373 266.065 66.8774 266.162 67.4609 266.053C68.005 265.971 68.5088 265.713 68.9624 265.403C69.9793 264.647 70.7511 263.46 70.8398 262.149C70.8809 261.888 70.8087 261.628 70.7895 261.368C70.6651 260.657 70.1521 260.019 69.4754 259.808C68.7804 259.577 68.0178 259.716 67.3758 260.046Z" fill="black"/>
<path d="M68.0308 253.586C69.2297 253.234 70.5044 253.083 71.738 253.32C73.0859 253.543 74.3479 254.262 75.2449 255.325C75.8412 256.067 76.2856 256.937 76.5206 257.871C76.5864 258.133 76.6614 258.393 76.6806 258.664C77.0702 261.083 76.4118 263.573 75.2651 265.685C72.8006 270.44 70.3544 275.205 67.8891 279.959C67.0807 278.948 66.308 277.906 65.5124 276.884C64.5861 275.673 63.6478 274.47 62.727 273.254C61.9561 272.276 61.2163 271.27 60.4363 270.3C60.1126 269.927 59.8839 269.483 59.6508 269.048C59.5794 268.824 59.4752 268.611 59.3856 268.395C59.3069 268.043 59.1752 267.707 59.1195 267.348C58.911 266.244 58.953 265.11 59.1204 264.004C59.6892 260.82 61.4787 257.938 63.8865 255.893C65.11 254.864 66.5156 254.054 68.0308 253.586ZM68.5914 257.617C67.4812 257.796 66.4653 258.371 65.5984 259.093C64.1599 260.354 63.1028 262.156 62.9455 264.121C62.8925 265.005 63.0525 265.925 63.5189 266.679C64.0676 267.583 65.0607 268.154 66.0867 268.222C67.558 268.344 68.9864 267.681 70.1121 266.743C71.1089 265.887 71.9246 264.788 72.4001 263.538C72.7924 262.496 72.9698 261.335 72.7101 260.237C72.5263 259.42 72.0709 258.649 71.3878 258.181C70.5895 257.588 69.5442 257.449 68.5914 257.617Z" fill="#F5FAF5"/>
<path d="M67.3753 260.046C68.0172 259.716 68.7799 259.577 69.4749 259.808C70.1516 260.019 70.6646 260.657 70.7889 261.368C70.8081 261.628 70.8804 261.888 70.8392 262.149C70.7505 263.46 69.9787 264.647 68.9619 265.403C68.5083 265.713 68.0044 265.971 67.4603 266.053C66.8769 266.162 66.2368 266.065 65.753 265.694C65.422 265.456 65.1925 265.093 65.0535 264.707C64.9117 264.245 64.8843 263.749 64.9721 263.273C65.219 261.887 66.1591 260.669 67.3753 260.046Z" fill="#9FCFA3"/>
<path d="M18.2153 272.11C18.7274 272.086 19.2422 272.091 19.7553 272.102C20.9925 272.216 22.2243 272.579 23.2768 273.273C24.9027 274.303 26.0293 276.06 26.4719 277.96C26.7435 279.124 26.835 280.339 26.7079 281.531C26.5423 283.331 25.9982 285.08 25.21 286.69C24.1291 288.76 23.0647 290.839 21.9884 292.911C21.8055 293.254 21.6537 293.617 21.4287 293.934C20.7676 295.204 20.1348 296.492 19.4873 297.77C18.5555 299.559 17.6401 301.357 16.7092 303.146C16.4696 303.563 16.049 303.948 15.5497 303.909C15.1985 303.932 14.9909 303.592 14.8044 303.341C13.836 302.081 12.8667 300.822 11.8983 299.562C11.4721 298.938 10.9884 298.359 10.5394 297.753C9.32499 296.258 8.18101 294.702 6.99222 293.184C5.669 291.666 5.02888 289.598 5.0298 287.575C4.96762 285.02 5.75587 282.507 6.96936 280.303C8.89977 276.852 11.9486 273.984 15.632 272.686C16.4687 272.397 17.3393 272.22 18.2153 272.11ZM16.0307 274.585C14.5154 275.054 13.1099 275.864 11.8864 276.893C9.47862 278.938 7.68903 281.82 7.12024 285.004C6.9529 286.11 6.91083 287.244 7.11933 288.348C7.17511 288.707 7.30679 289.043 7.38543 289.395C7.47505 289.611 7.5793 289.824 7.65062 290.048C7.88381 290.483 8.11242 290.927 8.43614 291.3C9.21617 292.27 9.95596 293.276 10.7268 294.254C11.6477 295.47 12.5859 296.673 13.5123 297.884C14.3079 298.905 15.0806 299.948 15.8889 300.959C18.3543 296.205 20.8005 291.44 23.2649 286.685C24.4117 284.573 25.0701 282.083 24.6805 279.664C24.6613 279.393 24.5863 279.133 24.5205 278.871C24.2855 277.937 23.841 277.067 23.2448 276.325C22.3477 275.262 21.0858 274.543 19.7379 274.32C18.5043 274.083 17.2295 274.234 16.0307 274.585Z" fill="black"/>
<path d="M16.5911 278.617C17.544 278.449 18.5892 278.588 19.3875 279.181C20.0706 279.649 20.526 280.42 20.7098 281.237C20.9695 282.335 20.7921 283.496 20.3998 284.538C19.9243 285.788 19.1086 286.887 18.1119 287.743C16.9862 288.681 15.5578 289.344 14.0864 289.222C13.0604 289.154 12.0673 288.583 11.5186 287.679C11.0523 286.925 10.8922 286.004 10.9453 285.121C11.1026 283.156 12.1597 281.354 13.5981 280.093C14.465 279.371 15.481 278.796 16.5911 278.617ZM15.3758 281.046C14.1596 281.669 13.2195 282.887 12.9726 284.273C12.8848 284.749 12.9123 285.245 13.054 285.707C13.193 286.093 13.4225 286.456 13.7536 286.694C14.2373 287.065 14.8774 287.162 15.4609 287.053C16.005 286.971 16.5088 286.713 16.9624 286.403C17.9793 285.647 18.7511 284.46 18.8398 283.149C18.8809 282.888 18.8087 282.628 18.7895 282.368C18.6651 281.657 18.1521 281.019 17.4754 280.808C16.7804 280.577 16.0178 280.716 15.3758 281.046Z" fill="black"/>
<path d="M16.0308 274.585C17.2297 274.234 18.5044 274.083 19.738 274.32C21.0859 274.543 22.3479 275.262 23.2449 276.325C23.8412 277.067 24.2856 277.937 24.5206 278.871C24.5864 279.132 24.6614 279.393 24.6806 279.664C25.0702 282.083 24.4118 284.572 23.2651 286.685C20.8006 291.44 18.3544 296.205 15.8891 300.959C15.0807 299.948 14.308 298.905 13.5124 297.884C12.5861 296.673 11.6478 295.47 10.727 294.254C9.95609 293.276 9.2163 292.27 8.43627 291.3C8.11255 290.927 7.88394 290.483 7.65075 290.048C7.57943 289.824 7.47518 289.611 7.38556 289.395C7.30692 289.043 7.17524 288.707 7.11946 288.348C6.91096 287.244 6.95303 286.11 7.12037 285.004C7.68916 281.82 9.47875 278.938 11.8865 276.893C13.11 275.864 14.5156 275.054 16.0308 274.585ZM16.5914 278.617C15.4812 278.796 14.4653 279.371 13.5984 280.093C12.1599 281.354 11.1028 283.156 10.9455 285.121C10.8925 286.004 11.0525 286.925 11.5189 287.679C12.0676 288.583 13.0607 289.154 14.0867 289.222C15.558 289.344 16.9864 288.681 18.1121 287.743C19.1089 286.887 19.9246 285.788 20.4001 284.538C20.7924 283.496 20.9698 282.335 20.7101 281.237C20.5263 280.42 20.0709 279.649 19.3878 279.181C18.5895 278.588 17.5442 278.449 16.5914 278.617Z" fill="#F5FAF5"/>
<path d="M15.3753 281.046C16.0172 280.716 16.7799 280.577 17.4749 280.808C18.1516 281.019 18.6646 281.657 18.7889 282.368C18.8081 282.628 18.8804 282.888 18.8392 283.149C18.7505 284.46 17.9787 285.647 16.9619 286.403C16.5083 286.713 16.0044 286.971 15.4603 287.053C14.8769 287.162 14.2368 287.065 13.753 286.694C13.422 286.456 13.1925 286.093 13.0535 285.707C12.9117 285.245 12.8843 284.749 12.9721 284.273C13.219 282.887 14.1591 281.669 15.3753 281.046Z" fill="#9FCFA3"/>
<path d="M650.215 176.11C650.727 176.086 651.242 176.091 651.755 176.102C652.993 176.216 654.224 176.579 655.277 177.273C656.903 178.303 658.029 180.06 658.472 181.96C658.744 183.124 658.835 184.339 658.708 185.531C658.542 187.331 657.998 189.08 657.21 190.69C656.129 192.76 655.065 194.839 653.988 196.911C653.805 197.254 653.654 197.617 653.429 197.934C652.768 199.204 652.135 200.492 651.487 201.77C650.555 203.559 649.64 205.357 648.709 207.146C648.47 207.563 648.049 207.948 647.55 207.909C647.199 207.932 646.991 207.592 646.804 207.341C645.836 206.081 644.867 204.822 643.898 203.562C643.472 202.938 642.988 202.359 642.539 201.753C641.325 200.258 640.181 198.702 638.992 197.184C637.669 195.666 637.029 193.598 637.03 191.575C636.968 189.02 637.756 186.507 638.969 184.303C640.9 180.852 643.949 177.984 647.632 176.686C648.469 176.397 649.339 176.22 650.215 176.11ZM648.031 178.585C646.515 179.054 645.11 179.864 643.886 180.893C641.479 182.938 639.689 185.82 639.12 189.004C638.953 190.11 638.911 191.244 639.119 192.348C639.175 192.707 639.307 193.043 639.385 193.395C639.475 193.611 639.579 193.824 639.651 194.048C639.884 194.483 640.112 194.927 640.436 195.3C641.216 196.27 641.956 197.276 642.727 198.254C643.648 199.47 644.586 200.673 645.512 201.884C646.308 202.905 647.081 203.948 647.889 204.959C650.354 200.205 652.8 195.44 655.265 190.685C656.412 188.573 657.07 186.083 656.681 183.664C656.661 183.393 656.586 183.133 656.52 182.871C656.285 181.937 655.841 181.067 655.245 180.325C654.348 179.262 653.086 178.543 651.738 178.32C650.504 178.083 649.23 178.234 648.031 178.585Z" fill="black"/>
<path d="M648.591 182.617C649.544 182.449 650.589 182.588 651.388 183.181C652.071 183.649 652.526 184.42 652.71 185.237C652.97 186.335 652.792 187.496 652.4 188.538C651.924 189.788 651.109 190.887 650.112 191.743C648.986 192.681 647.558 193.344 646.086 193.222C645.06 193.154 644.067 192.583 643.519 191.679C643.052 190.925 642.892 190.004 642.945 189.121C643.103 187.156 644.16 185.354 645.598 184.093C646.465 183.371 647.481 182.796 648.591 182.617ZM647.376 185.046C646.16 185.669 645.22 186.887 644.973 188.273C644.885 188.749 644.912 189.245 645.054 189.707C645.193 190.093 645.423 190.456 645.754 190.694C646.237 191.065 646.877 191.162 647.461 191.053C648.005 190.971 648.509 190.713 648.962 190.403C649.979 189.647 650.751 188.46 650.84 187.149C650.881 186.888 650.809 186.628 650.789 186.368C650.665 185.657 650.152 185.019 649.475 184.808C648.78 184.577 648.018 184.716 647.376 185.046Z" fill="black"/>
<path d="M648.031 178.586C649.23 178.234 650.504 178.083 651.738 178.32C653.086 178.543 654.348 179.262 655.245 180.325C655.841 181.067 656.286 181.937 656.521 182.871C656.586 183.133 656.661 183.393 656.681 183.664C657.07 186.083 656.412 188.573 655.265 190.685C652.801 195.44 650.354 200.205 647.889 204.959C647.081 203.948 646.308 202.906 645.512 201.884C644.586 200.673 643.648 199.47 642.727 198.254C641.956 197.276 641.216 196.27 640.436 195.3C640.113 194.927 639.884 194.483 639.651 194.048C639.579 193.824 639.475 193.611 639.386 193.395C639.307 193.043 639.175 192.707 639.119 192.348C638.911 191.244 638.953 190.11 639.12 189.004C639.689 185.82 641.479 182.938 643.887 180.893C645.11 179.864 646.516 179.054 648.031 178.586ZM648.591 182.617C647.481 182.796 646.465 183.371 645.598 184.093C644.16 185.354 643.103 187.156 642.946 189.121C642.892 190.005 643.053 190.925 643.519 191.679C644.068 192.583 645.061 193.154 646.087 193.222C647.558 193.344 648.986 192.681 650.112 191.743C651.109 190.887 651.925 189.788 652.4 188.538C652.792 187.496 652.97 186.335 652.71 185.237C652.526 184.42 652.071 183.649 651.388 183.181C650.589 182.588 649.544 182.449 648.591 182.617Z" fill="#F5FAF5"/>
<path d="M647.375 185.046C648.017 184.716 648.78 184.577 649.475 184.808C650.152 185.019 650.665 185.657 650.789 186.368C650.808 186.628 650.88 186.888 650.839 187.149C650.751 188.46 649.979 189.647 648.962 190.403C648.508 190.713 648.004 190.971 647.46 191.053C646.877 191.162 646.237 191.065 645.753 190.694C645.422 190.456 645.192 190.093 645.053 189.707C644.912 189.245 644.884 188.749 644.972 188.273C645.219 186.887 646.159 185.669 647.375 185.046Z" fill="#9FCFA3"/>
<path d="M891.215 101.11C891.727 101.086 892.242 101.091 892.755 101.102C893.993 101.216 895.224 101.579 896.277 102.273C897.903 103.303 899.029 105.06 899.472 106.96C899.744 108.124 899.835 109.339 899.708 110.531C899.542 112.331 898.998 114.08 898.21 115.69C897.129 117.76 896.065 119.839 894.988 121.911C894.805 122.254 894.654 122.617 894.429 122.934C893.768 124.204 893.135 125.492 892.487 126.77C891.555 128.559 890.64 130.357 889.709 132.146C889.47 132.563 889.049 132.948 888.55 132.909C888.199 132.932 887.991 132.592 887.804 132.341C886.836 131.081 885.867 129.822 884.898 128.562C884.472 127.938 883.988 127.359 883.539 126.753C882.325 125.258 881.181 123.702 879.992 122.184C878.669 120.666 878.029 118.598 878.03 116.575C877.968 114.02 878.756 111.507 879.969 109.303C881.9 105.852 884.949 102.984 888.632 101.686C889.469 101.397 890.339 101.22 891.215 101.11ZM889.031 103.585C887.515 104.054 886.11 104.864 884.886 105.893C882.479 107.938 880.689 110.82 880.12 114.004C879.953 115.11 879.911 116.244 880.119 117.348C880.175 117.707 880.307 118.043 880.385 118.395C880.475 118.611 880.579 118.824 880.651 119.048C880.884 119.483 881.112 119.927 881.436 120.3C882.216 121.27 882.956 122.276 883.727 123.254C884.648 124.47 885.586 125.673 886.512 126.884C887.308 127.905 888.081 128.948 888.889 129.959C891.354 125.205 893.8 120.44 896.265 115.685C897.412 113.573 898.07 111.083 897.681 108.664C897.661 108.393 897.586 108.133 897.52 107.871C897.285 106.937 896.841 106.067 896.245 105.325C895.348 104.262 894.086 103.543 892.738 103.32C891.504 103.083 890.23 103.234 889.031 103.585Z" fill="black"/>
<path d="M889.591 107.617C890.544 107.449 891.589 107.588 892.388 108.181C893.071 108.649 893.526 109.42 893.71 110.237C893.97 111.335 893.792 112.496 893.4 113.538C892.924 114.788 892.109 115.887 891.112 116.743C889.986 117.681 888.558 118.344 887.086 118.222C886.06 118.154 885.067 117.583 884.519 116.679C884.052 115.925 883.892 115.004 883.945 114.121C884.103 112.156 885.16 110.354 886.598 109.093C887.465 108.371 888.481 107.796 889.591 107.617ZM888.376 110.046C887.16 110.669 886.22 111.887 885.973 113.273C885.885 113.749 885.912 114.245 886.054 114.707C886.193 115.093 886.423 115.456 886.754 115.694C887.237 116.065 887.877 116.162 888.461 116.053C889.005 115.971 889.509 115.713 889.962 115.403C890.979 114.647 891.751 113.46 891.84 112.149C891.881 111.888 891.809 111.628 891.789 111.368C891.665 110.657 891.152 110.019 890.475 109.808C889.78 109.577 889.018 109.716 888.376 110.046Z" fill="black"/>
<path d="M889.031 103.586C890.23 103.234 891.504 103.083 892.738 103.32C894.086 103.543 895.348 104.262 896.245 105.325C896.841 106.067 897.286 106.937 897.521 107.871C897.586 108.133 897.661 108.393 897.681 108.664C898.07 111.083 897.412 113.573 896.265 115.685C893.801 120.44 891.354 125.205 888.889 129.959C888.081 128.948 887.308 127.906 886.512 126.884C885.586 125.673 884.648 124.47 883.727 123.254C882.956 122.276 882.216 121.27 881.436 120.3C881.113 119.927 880.884 119.483 880.651 119.048C880.579 118.824 880.475 118.611 880.386 118.395C880.307 118.043 880.175 117.707 880.119 117.348C879.911 116.244 879.953 115.11 880.12 114.004C880.689 110.82 882.479 107.938 884.887 105.893C886.11 104.864 887.516 104.054 889.031 103.586ZM889.591 107.617C888.481 107.796 887.465 108.371 886.598 109.093C885.16 110.354 884.103 112.156 883.946 114.121C883.892 115.005 884.053 115.925 884.519 116.679C885.068 117.583 886.061 118.154 887.087 118.222C888.558 118.344 889.986 117.681 891.112 116.743C892.109 115.887 892.925 114.788 893.4 113.538C893.792 112.496 893.97 111.335 893.71 110.237C893.526 109.42 893.071 108.649 892.388 108.181C891.589 107.588 890.544 107.449 889.591 107.617Z" fill="#F5FAF5"/>
<path d="M888.375 110.046C889.017 109.716 889.78 109.577 890.475 109.808C891.152 110.019 891.665 110.657 891.789 111.368C891.808 111.628 891.88 111.888 891.839 112.149C891.751 113.46 890.979 114.647 889.962 115.403C889.508 115.713 889.004 115.971 888.46 116.053C887.877 116.162 887.237 116.065 886.753 115.694C886.422 115.456 886.192 115.093 886.053 114.707C885.912 114.245 885.884 113.749 885.972 113.273C886.219 111.887 887.159 110.669 888.375 110.046Z" fill="#9FCFA3"/>
</svg>
