<svg width="1440" height="148" viewBox="0 0 1440 148" fill="none" xmlns="http://www.w3.org/2000/svg">
<g clip-path="url(#clip0_347_1780)">
<path d="M0 148H34.3C69.5 148 135 148 205.8 148C274 148 340.5 148 411.2 148C481.5 148 539 148 610 148C681 148 746.3 148 815 148C883.7 148 949.5 148 1018 148C1086.5 148 1165.7 148 1234.2 148C1302.7 148 1371.3 148 1405.7 148H1440V83H1405.7C1371.3 83 1302.7 83 1234.2 83C1165.7 83 1097.3 83 1028.8 83C960.3 83 891.7 83 823 83C754.3 83 685.7 83 617 83C548.3 83 479.7 83 411.2 83C342.7 83 274.3 83 205.8 83C137.3 83 68.7 83 34.3 83H0V148Z" fill="#008037"/>
<path d="M0 111.5L34.3 117.2C68.7 122.8 137.3 134.2 205.8 134.7C274.3 135.2 342.7 124.8 411.2 124.8C479.7 124.8 548.3 135.2 617 130.2C685.7 125.2 754.3 104.8 823 99.3C891.7 93.8 960.3 103.2 1028.8 116C1097.3 128.8 1165.7 145.2 1234.2 146.8C1302.7 148.5 1371.3 135.5 1405.7 129L1440 122.5V1.5H1405.7C1371.3 1.5 1302.7 1.5 1234.2 1.5C1165.7 1.5 1097.3 1.5 1028.8 1.5C960.3 1.5 891.7 1.5 823 1.5C754.3 1.5 685.7 1.5 617 1.5C548.3 1.5 479.7 1.5 411.2 1.5C342.7 1.5 274.3 1.5 205.8 1.5C137.3 1.5 68.7 1.5 34.3 1.5H0V111.5Z" fill="#40A062"/>
<path d="M0 119.5L34.3 117.5C68.7 115.5 137.3 111.5 205.8 106.2C274.3 100.8 342.7 94.2 411.2 85.8C479.7 77.5 548.3 67.5 617 65.5C685.7 63.5 754.3 69.5 823 68.5C891.7 67.5 960.3 59.5 1028.8 61.3C1097.3 63.2 1165.7 74.8 1234.2 74.5C1302.7 74.2 1371.3 61.8 1405.7 55.7L1440 49.5V1.5H1405.7C1371.3 1.5 1302.7 1.5 1234.2 1.5C1165.7 1.5 1097.3 1.5 1028.8 1.5C960.3 1.5 891.7 1.5 823 1.5C754.3 1.5 685.7 1.5 617 1.5C548.3 1.5 479.7 1.5 411.2 1.5C342.7 1.5 274.3 1.5 205.8 1.5C137.3 1.5 68.7 1.5 34.3 1.5H0V119.5Z" fill="#7FBF8D"/>
<path d="M0 40.5L34.3 43.3C68.7 46.2 137.3 51.8 205.8 56.2C274.3 60.5 342.7 63.5 411.2 65.3C479.7 67.2 548.3 67.8 617 60.8C685.7 53.8 754.3 39.2 823 33.7C891.7 28.2 960.3 31.8 1028.8 35C1097.3 38.2 1165.7 40.8 1234.2 39.2C1302.7 37.5 1371.3 31.5 1405.7 28.5L1440 25.5V1.5H1405.7C1371.3 1.5 1302.7 1.5 1234.2 1.5C1165.7 1.5 1097.3 1.5 1028.8 1.5C960.3 1.5 891.7 1.5 823 1.5C754.3 1.5 685.7 1.5 617 1.5C548.3 1.5 479.7 1.5 411.2 1.5C342.7 1.5 274.3 1.5 205.8 1.5C137.3 1.5 68.7 1.5 34.3 1.5H0V40.5Z" fill="#B7DBB3"/>
<path d="M0 16.5L34.3 12.3C68.7 8.20001 137.3 -0.199992 205.8 1.50001C274.3 3.20001 342.7 14.8 411.2 20.5C479.7 26.2 548.3 25.8 617 24C685.7 22.2 754.3 18.8 823 20.2C891.7 21.5 960.3 27.5 1028.8 29.7C1097.3 31.8 1165.7 30.2 1234.2 27.2C1302.7 24.2 1371.3 19.8 1405.7 17.7L1440 15.5V1.5H1405.7C1371.3 1.5 1302.7 1.5 1234.2 1.5C1165.7 1.5 1097.3 1.5 1028.8 1.5C960.3 1.5 891.7 1.5 823 1.5C754.3 1.5 685.7 1.5 617 1.5C548.3 1.5 479.7 1.5 411.2 1.5C342.7 1.5 274.3 1.50001 205.8 1.50001C137.3 1.50001 68.7 1.5 34.3 1.5H0V16.5Z" fill="#FEFEE3"/>
</g>
<rect width="1440" height="2" fill="#FEFEE3"/>
<defs>
<clipPath id="clip0_347_1780">
<rect width="1440" height="147" fill="white" transform="translate(0 1)"/>
</clipPath>
</defs>
</svg>
