<svg width="48" height="24" viewBox="-14 0 48 24" fill="none" xmlns="http://www.w3.org/2000/svg">
<path d="M11.6657 0C5.23736 0 -0.000976562 5.23833 -0.000976562 11.6667C-0.000976562 18.095 5.23736 23.3333 11.6657 23.3333C18.094 23.3333 23.3324 18.095 23.3324 11.6667C23.3324 5.23833 18.094 0 11.6657 0ZM14.9207 12.285L10.8024 16.4033C10.6274 16.5783 10.4057 16.66 10.184 16.66C9.96236 16.66 9.74069 16.5783 9.56569 16.4033C9.22736 16.065 9.22736 15.505 9.56569 15.1667L13.0657 11.6667L9.56569 8.16667C9.22736 7.82833 9.22736 7.26833 9.56569 6.93C9.90402 6.59167 10.464 6.59167 10.8024 6.93L14.9207 11.0483C15.2707 11.3867 15.2707 11.9467 14.9207 12.285Z" fill="#00401C" fill-opacity="0.6"/>
</svg>
