<svg width="24" height="20" viewBox="0 0 24 20" fill="none" xmlns="http://www.w3.org/2000/svg">
<path d="M8.2199 18.4001C8.2199 18.8972 8.62285 19.3001 9.1199 19.3001C9.61694 19.3001 10.0199 18.8972 10.0199 18.4001H8.2199ZM9.1199 15.7229L8.22056 15.6885C8.22011 15.7 8.2199 15.7114 8.2199 15.7229H9.1199ZM11.9999 13.0469L11.9682 13.9463C11.9893 13.947 12.0105 13.947 12.0316 13.9463L11.9999 13.0469ZM14.8799 15.7229H15.7799C15.7799 15.7114 15.7797 15.7 15.7793 15.6885L14.8799 15.7229ZM13.9799 18.4001C13.9799 18.8972 14.3829 19.3001 14.8799 19.3001C15.3769 19.3001 15.7799 18.8972 15.7799 18.4001H13.9799ZM9.1199 17.5001C8.62285 17.5001 8.2199 17.9031 8.2199 18.4001C8.2199 18.8972 8.62285 19.3001 9.1199 19.3001V17.5001ZM14.8799 19.3001C15.3769 19.3001 15.7799 18.8972 15.7799 18.4001C15.7799 17.9031 15.3769 17.5001 14.8799 17.5001V19.3001ZM9.1199 19.3001C9.61694 19.3001 10.0199 18.8972 10.0199 18.4001C10.0199 17.9031 9.61694 17.5001 9.1199 17.5001V19.3001ZM8.3999 18.4001V17.5001C8.38934 17.5001 8.37878 17.5002 8.36822 17.5006L8.3999 18.4001ZM4.0799 14.3849H3.1799C3.1799 14.3962 3.18011 14.4076 3.18054 14.419L4.0799 14.3849ZM4.9799 6.33769C4.9799 5.84064 4.57695 5.43769 4.0799 5.43769C3.58284 5.43769 3.1799 5.84064 3.1799 6.33769H4.9799ZM0.694457 7.54783C0.283181 7.82693 0.176081 8.38661 0.455225 8.79797C0.734381 9.20921 1.29407 9.31625 1.70534 9.03713L0.694457 7.54783ZM4.58534 7.08237C4.99661 6.80321 5.10371 6.24352 4.82457 5.83225C4.54541 5.42099 3.98572 5.31388 3.57446 5.59303L4.58534 7.08237ZM3.57446 5.59303C3.16317 5.87215 3.05608 6.43182 3.3352 6.8431C3.61433 7.25439 4.17406 7.36149 4.58534 7.08237L3.57446 5.59303ZM10.3391 2.08969L9.85082 1.33366C9.84506 1.33738 9.8393 1.34116 9.83366 1.34501L10.3391 2.08969ZM13.6607 2.08969L14.1661 1.34501C14.1605 1.34116 14.1547 1.33738 14.149 1.33366L13.6607 2.08969ZM19.4145 7.08239C19.8258 7.36151 20.3855 7.25439 20.6646 6.8431C20.9437 6.43182 20.8366 5.87213 20.4253 5.59301L19.4145 7.08239ZM14.8799 17.5001C14.3829 17.5001 13.9799 17.9031 13.9799 18.4001C13.9799 18.8972 14.3829 19.3001 14.8799 19.3001V17.5001ZM15.5999 18.4001L15.6316 17.5006C15.621 17.5002 15.6105 17.5001 15.5999 17.5001V18.4001ZM19.9199 14.3849L20.8193 14.419C20.8197 14.4076 20.8199 14.3962 20.8199 14.3849H19.9199ZM20.8199 6.33769C20.8199 5.84064 20.4169 5.43769 19.9199 5.43769C19.4229 5.43769 19.0199 5.84064 19.0199 6.33769H20.8199ZM22.2947 9.03605C22.7061 9.31517 23.2657 9.20789 23.5447 8.79653C23.8237 8.38517 23.7165 7.82549 23.3051 7.54649L22.2947 9.03605ZM20.4253 5.59301C20.014 5.31397 19.4542 5.42112 19.1751 5.83247C18.8961 6.24382 19.0031 6.80335 19.4145 7.08239L20.4253 5.59301ZM10.0199 18.4001V15.7229H8.2199V18.4001H10.0199ZM10.0193 15.7573C10.0589 14.7197 10.9306 13.9097 11.9682 13.9463L12.0316 12.1474C10.0025 12.076 8.29805 13.6596 8.22056 15.6885L10.0193 15.7573ZM12.0316 13.9463C13.0692 13.9097 13.9409 14.7197 13.9805 15.7573L15.7793 15.6885C15.7018 13.6596 13.9973 12.076 11.9682 12.1474L12.0316 13.9463ZM13.9799 15.7229V18.4001H15.7799V15.7229H13.9799ZM9.1199 19.3001H14.8799V17.5001H9.1199V19.3001ZM9.1199 17.5001H8.3999V19.3001H9.1199V17.5001ZM8.36822 17.5006C6.56349 17.5642 5.04767 16.1553 4.97925 14.3508L3.18054 14.419C3.28655 17.215 5.63524 19.398 8.43158 19.2995L8.36822 17.5006ZM4.9799 14.3849V6.33769H3.1799V14.3849H4.9799ZM1.70534 9.03713L4.58534 7.08237L3.57446 5.59303L0.694457 7.54783L1.70534 9.03713ZM4.58534 7.08237L10.8445 2.83439L9.83366 1.34501L3.57446 5.59303L4.58534 7.08237ZM10.8274 2.84573C11.5411 2.38477 12.4587 2.38477 13.1724 2.84573L14.149 1.33366C12.8409 0.488797 11.1589 0.488797 9.85082 1.33366L10.8274 2.84573ZM13.1553 2.83439L19.4145 7.08239L20.4253 5.59301L14.1661 1.34501L13.1553 2.83439ZM14.8799 19.3001H15.5999V17.5001H14.8799V19.3001ZM15.5682 19.2995C18.3646 19.398 20.7132 17.215 20.8193 14.419L19.0205 14.3508C18.9521 16.1553 17.4363 17.5642 15.6316 17.5006L15.5682 19.2995ZM20.8199 14.3849V6.33769H19.0199V14.3849H20.8199ZM23.3051 7.54649L20.4253 5.59301L19.4145 7.08239L22.2947 9.03605L23.3051 7.54649Z" fill="white"/>
</svg>