<svg width="1440" height="810" viewBox="0 0 1440 810" fill="none" xmlns="http://www.w3.org/2000/svg">
<g clip-path="url(#clip0_256_1336)">
<rect width="1440" height="810" fill="#FEFEE3"/>
<rect y="810" width="810" height="99" transform="rotate(-90 0 810)" fill="#008037"/>
<rect x="1343" y="810" width="810" height="97" transform="rotate(-90 1343 810)" fill="#008037"/>
<g clip-path="url(#clip1_256_1336)">
<path d="M1390 810L1379.2 790.7C1368.3 771.3 1346.7 732.7 1350 694.2C1353.3 655.7 1381.7 617.3 1398.3 578.8C1415 540.3 1420 501.7 1417.5 463C1415 424.3 1405 385.7 1404.2 347C1403.3 308.3 1411.7 269.7 1413.3 231.2C1415 192.7 1410 154.3 1414.8 115.8C1419.7 77.3 1434.3 38.7 1441.7 19.3L1449 0H1098V19.3C1098 38.7 1098 77.3 1098 115.8C1098 154.3 1098 192.7 1098 231.2C1098 269.7 1098 308.3 1098 347C1098 385.7 1098 424.3 1098 463C1098 501.7 1098 540.3 1098 578.8C1098 617.3 1098 655.7 1098 694.2C1098 732.7 1098 771.3 1098 790.7V810H1390Z" fill="#008037"/>
<path d="M1326 810L1323.5 800.35L1321 790.7C1316 771.3 1306 732.7 1309.2 694.2C1312.3 655.7 1328.7 617.3 1335.8 578.8C1343 540.3 1341 501.7 1338.3 463C1335.7 424.3 1332.3 385.7 1325 347C1317.7 308.3 1306.3 269.7 1307.7 231.2C1309 192.7 1323 154.3 1330.7 115.8C1338.3 77.3 1338 45 1332.5 24.5L1326 0H1098V19.3C1098 38.7 1098 77.3 1098 115.8C1098 154.3 1098 192.7 1098 231.2C1098 269.7 1098 308.3 1098 347C1098 385.7 1098 424.3 1098 463C1098 501.7 1098 540.3 1098 578.8C1098 617.3 1098 655.7 1098 694.2C1098 732.7 1098 771.3 1098 790.7V810H1326Z" fill="#40A062"/>
<path d="M1274 810L1270.8 790.7C1267.7 771.3 1261.3 732.7 1263.3 694.2C1265.3 655.7 1275.7 617.3 1284.5 578.8C1293.3 540.3 1300.7 501.7 1300.2 463C1299.7 424.3 1296.5 411.2 1284 372.5C1271.5 333.8 1253 310.5 1247.5 272C1242 233.5 1249.8 193.5 1260.5 155C1271.2 116.5 1288 85 1279 29L1274 0H1098V19.3C1098 38.7 1098 77.3 1098 115.8C1098 154.3 1098 192.7 1098 231.2C1098 269.7 1098 308.3 1098 347C1098 385.7 1098 424.3 1098 463C1098 501.7 1098 540.3 1098 578.8C1098 617.3 1098 655.7 1098 694.2C1098 732.7 1098 771.3 1098 790.7V810H1274Z" fill="#7FBF8D"/>
<path d="M1211 810L1206.5 790.7C1202 771.3 1193 732.7 1194.7 694.2C1196.3 655.7 1208.7 617.3 1221.2 578.8C1233.7 540.3 1246.3 501.7 1247.3 463C1248.3 424.3 1237.7 385.7 1229.2 347C1220.7 308.3 1214.3 269.7 1214 231.2C1213.7 192.7 1219.3 154.3 1218.7 115.8C1218 77.3 1220 39 1215.5 19L1211 0H1098V19.3C1098 38.7 1098 77.3 1098 115.8C1098 154.3 1098 192.7 1098 231.2C1098 269.7 1098 308.3 1098 347C1098 385.7 1098 424.3 1098 463C1098 501.7 1098 540.3 1098 578.8C1098 617.3 1098 655.7 1098 694.2C1098 732.7 1098 771.3 1098 790.7V810H1211Z" fill="#B7DBB3"/>
<path d="M1172 810L1175.5 790.7C1179 771.3 1186 732.7 1186.5 694.2C1187 655.7 1183.7 658 1179 619.5C1174.4 581 1168.3 566.7 1170 528C1171.7 489.3 1182.1 441.7 1179 403C1175.8 364.3 1161.2 328 1159.5 289.5C1157.9 251 1172.2 182 1175.2 143.5C1178.2 105 1160.5 66 1168.5 19.3L1172 0H1098V19.3C1098 38.7 1098 77.3 1098 115.8C1098 154.3 1098 192.7 1098 231.2C1098 269.7 1098 308.3 1098 347C1098 385.7 1098 424.3 1098 463C1098 501.7 1098 540.3 1098 578.8C1098 617.3 1098 655.7 1098 694.2C1098 732.7 1098 771.3 1098 790.7V810H1172Z" fill="#FEFEE3"/>
</g>
<g clip-path="url(#clip2_256_1336)">
<path d="M50 810L60.8 790.7C71.7 771.3 93.3 732.7 90 694.2C86.7 655.7 58.3 617.3 41.7 578.8C25 540.3 20 501.7 22.5 463C25 424.3 35 385.7 35.8 347C36.7 308.3 28.3 269.7 26.7 231.2C25 192.7 30 154.3 25.2 115.8C20.3 77.3 5.69999 38.7 -1.70001 19.3L-9 0H342V19.3C342 38.7 342 77.3 342 115.8C342 154.3 342 192.7 342 231.2C342 269.7 342 308.3 342 347C342 385.7 342 424.3 342 463C342 501.7 342 540.3 342 578.8C342 617.3 342 655.7 342 694.2C342 732.7 342 771.3 342 790.7V810H50Z" fill="#008037"/>
<path d="M114 810L116.5 800.35L119 790.7C124 771.3 134 732.7 130.8 694.2C127.7 655.7 111.3 617.3 104.2 578.8C97 540.3 99 501.7 101.7 463C104.3 424.3 107.7 385.7 115 347C122.3 308.3 133.7 269.7 132.3 231.2C131 192.7 117 154.3 109.3 115.8C101.7 77.3 102 45 107.5 24.5L114 0H342V19.3C342 38.7 342 77.3 342 115.8C342 154.3 342 192.7 342 231.2C342 269.7 342 308.3 342 347C342 385.7 342 424.3 342 463C342 501.7 342 540.3 342 578.8C342 617.3 342 655.7 342 694.2C342 732.7 342 771.3 342 790.7V810H114Z" fill="#40A062"/>
<path d="M166 810L169.2 790.7C172.3 771.3 178.7 732.7 176.7 694.2C174.7 655.7 164.3 617.3 155.5 578.8C146.7 540.3 139.3 501.7 139.8 463C140.3 424.3 143.5 411.2 156 372.5C168.5 333.8 187 310.5 192.5 272C198 233.5 190.2 193.5 179.5 155C168.8 116.5 152 85 161 29L166 0H342V19.3C342 38.7 342 77.3 342 115.8C342 154.3 342 192.7 342 231.2C342 269.7 342 308.3 342 347C342 385.7 342 424.3 342 463C342 501.7 342 540.3 342 578.8C342 617.3 342 655.7 342 694.2C342 732.7 342 771.3 342 790.7V810H166Z" fill="#7FBF8D"/>
<path d="M229 810L233.5 790.7C238 771.3 247 732.7 245.3 694.2C243.7 655.7 231.3 617.3 218.8 578.8C206.3 540.3 193.7 501.7 192.7 463C191.7 424.3 202.3 385.7 210.8 347C219.3 308.3 225.7 269.7 226 231.2C226.3 192.7 220.7 154.3 221.3 115.8C222 77.3 220 39 224.5 19L229 0H342V19.3C342 38.7 342 77.3 342 115.8C342 154.3 342 192.7 342 231.2C342 269.7 342 308.3 342 347C342 385.7 342 424.3 342 463C342 501.7 342 540.3 342 578.8C342 617.3 342 655.7 342 694.2C342 732.7 342 771.3 342 790.7V810H229Z" fill="#B7DBB3"/>
<path d="M268 810L264.5 790.7C261 771.3 254 732.7 253.5 694.2C253 655.7 256.3 658 261 619.5C265.6 581 271.7 566.7 270 528C268.3 489.3 257.9 441.7 261 403C264.2 364.3 278.8 328 280.5 289.5C282.1 251 267.8 182 264.8 143.5C261.8 105 279.5 66 271.5 19.3L268 0H342V19.3C342 38.7 342 77.3 342 115.8C342 154.3 342 192.7 342 231.2C342 269.7 342 308.3 342 347C342 385.7 342 424.3 342 463C342 501.7 342 540.3 342 578.8C342 617.3 342 655.7 342 694.2C342 732.7 342 771.3 342 790.7V810H268Z" fill="#FEFEE3"/>
</g>
<path d="M298 -134H1146L1158.5 402L1146 944H298L288.5 402L298 -134Z" fill="#FEFEE3"/>
</g>
<defs>
<clipPath id="clip0_256_1336">
<rect width="1440" height="810" fill="white"/>
</clipPath>
<clipPath id="clip1_256_1336">
<rect width="342" height="810" fill="white" transform="matrix(1 0 0 -1 1098 810)"/>
</clipPath>
<clipPath id="clip2_256_1336">
<rect width="342" height="810" fill="white" transform="matrix(-1 0 0 -1 342 810)"/>
</clipPath>
</defs>
</svg>
