<svg width="24" height="22" viewBox="0 0 24 22" fill="none" xmlns="http://www.w3.org/2000/svg">
<path d="M9.75725 7.21059C9.75725 6.61412 9.2737 6.13059 8.67725 6.13059C8.08083 6.13059 7.5973 6.61412 7.5973 7.21059H9.75725ZM16.4014 7.21059C16.4014 6.61412 15.9179 6.13059 15.3214 6.13059C14.725 6.13059 14.2414 6.61412 14.2414 7.21059H16.4014ZM7.59746 7.19204C7.58722 7.78842 8.06236 8.28018 8.65868 8.29043C9.25513 8.30068 9.74689 7.82552 9.75711 7.22913L7.59746 7.19204ZM9.77151 6.39105C9.78173 5.79468 9.30668 5.30292 8.71023 5.29267C8.11387 5.28241 7.62211 5.75757 7.61186 6.35396L9.77151 6.39105ZM9.72485 7.47331C9.87001 6.89477 9.51865 6.30812 8.94005 6.16303C8.36148 6.01794 7.77485 6.36931 7.62974 6.94786L9.72485 7.47331ZM8.45117 8.11203L9.49618 8.38488L9.49877 8.37475L8.45117 8.11203ZM3.97479 9.10948C3.48464 8.7696 2.81176 8.89141 2.47188 9.38153C2.13199 9.87171 2.2538 10.5446 2.74396 10.8845L3.97479 9.10948ZM4.43932 10.0081C4.44544 9.41163 3.96688 8.92315 3.37045 8.91704C2.774 8.91092 2.28555 9.38945 2.27943 9.9859L4.43932 10.0081ZM3.28018 17.7255L4.36011 17.7384L4.36012 17.7366L3.28018 17.7255ZM9.11933 21.72C9.71578 21.72 10.1993 21.2365 10.1993 20.64C10.1993 20.0436 9.71578 19.56 9.11933 19.56V21.72ZM2.74127 10.8826C3.2304 11.224 3.90364 11.1042 4.24501 10.615C4.58639 10.126 4.46661 9.45267 3.97748 9.11136L2.74127 10.8826ZM2.03314 6.37251L1.02073 5.99645C1.00872 6.02876 0.998266 6.06164 0.98941 6.09496L2.03314 6.37251ZM3.23554 3.13539L4.24796 3.51144C4.25837 3.48342 4.2676 3.45498 4.27565 3.42618L3.23554 3.13539ZM4.8325 1.92003V0.840027H4.82937L4.8325 1.92003ZM19.1648 1.92003L19.1679 0.840027H19.1648V1.92003ZM20.7617 3.13539L19.7216 3.42619C19.7297 3.45492 19.7389 3.48332 19.7493 3.5113L20.7617 3.13539ZM21.9641 6.37395L23.008 6.09652C22.9991 6.06321 22.9887 6.03035 22.9766 5.99803L21.9641 6.37395ZM20.0209 9.1117C19.5318 9.45339 19.4125 10.1266 19.754 10.6156C20.0957 11.1045 20.7691 11.2239 21.258 10.8823L20.0209 9.1117ZM8.03938 20.64C8.03938 21.2365 8.52289 21.72 9.11933 21.72C9.71578 21.72 10.1993 21.2365 10.1993 20.64H8.03938ZM13.7993 20.64C13.7993 21.2365 14.2829 21.72 14.8793 21.72C15.4758 21.72 15.9593 21.2365 15.9593 20.64H13.7993ZM9.11933 19.56C8.52289 19.56 8.03938 20.0436 8.03938 20.64C8.03938 21.2365 8.52289 21.72 9.11933 21.72V19.56ZM14.8793 21.72C15.4758 21.72 15.9593 21.2365 15.9593 20.64C15.9593 20.0436 15.4758 19.56 14.8793 19.56V21.72ZM14.2416 7.22357C14.2488 7.81999 14.7381 8.29769 15.3345 8.29051C15.9308 8.28333 16.4086 7.79402 16.4014 7.1976L14.2416 7.22357ZM16.3913 6.35952C16.3841 5.7631 15.8948 5.28541 15.2984 5.29258C14.7019 5.29976 14.2243 5.78908 14.2315 6.3855L16.3913 6.35952ZM16.373 6.94668C16.2273 6.36829 15.6402 6.01758 15.0619 6.16333C14.4835 6.30909 14.1327 6.89612 14.2786 7.4745L16.373 6.94668ZM15.5518 8.10771L14.5045 8.37163L14.5068 8.38018L15.5518 8.10771ZM21.2534 10.8855C21.744 10.5465 21.8669 9.87387 21.528 9.38311C21.1888 8.89235 20.5162 8.76939 20.0255 9.10843L21.2534 10.8855ZM21.7193 9.98647C21.7136 9.39003 21.2254 8.91126 20.629 8.91704C20.0325 8.92282 19.5537 9.41105 19.5595 10.0075L21.7193 9.98647ZM20.7142 17.7255L19.6344 17.736V17.7384L20.7142 17.7255ZM14.8793 19.56C14.2829 19.56 13.7993 20.0436 13.7993 20.64C13.7993 21.2365 14.2829 21.72 14.8793 21.72V19.56ZM7.5973 7.21059C7.5973 9.64174 9.56818 11.6127 11.9993 11.6127V9.45267C10.7611 9.45267 9.75725 8.44886 9.75725 7.21059H7.5973ZM11.9993 11.6127C14.4306 11.6127 16.4014 9.64174 16.4014 7.21059H14.2414C14.2414 8.44886 13.2376 9.45267 11.9993 9.45267V11.6127ZM9.75711 7.22913L9.77151 6.39105L7.61186 6.35396L7.59746 7.19204L9.75711 7.22913ZM7.62974 6.94786L7.40366 7.8493L9.49877 8.37475L9.72485 7.47331L7.62974 6.94786ZM7.40625 7.83919C7.22209 8.54449 6.70513 9.11542 6.02153 9.36843L6.77141 11.3941C8.11658 10.8961 9.13388 9.77279 9.49618 8.38488L7.40625 7.83919ZM6.02153 9.36843C5.33792 9.62158 4.57382 9.52481 3.97479 9.10948L2.74396 10.8845C3.92268 11.7018 5.42625 11.8922 6.77141 11.3941L6.02153 9.36843ZM2.27943 9.9859L2.20024 17.7144L4.36012 17.7366L4.43932 10.0081L2.27943 9.9859ZM2.20026 17.7125C2.18755 18.7709 2.59916 19.7904 3.34318 20.5434L4.87961 19.0252C4.54142 18.6829 4.35433 18.2195 4.36011 17.7384L2.20026 17.7125ZM3.34318 20.5434C4.08721 21.2964 5.10172 21.7202 6.16026 21.72L6.16018 19.56C5.67902 19.56 5.2178 19.3675 4.87961 19.0252L3.34318 20.5434ZM6.16026 21.72H9.11933V19.56H6.16018L6.16026 21.72ZM3.97748 9.11136C3.1899 8.56168 2.83005 7.57823 3.07686 6.65005L0.98941 6.09496C0.5093 7.90042 1.20928 9.81339 2.74127 10.8826L3.97748 9.11136ZM3.04556 6.74856L4.24796 3.51144L2.22313 2.75933L1.02073 5.99645L3.04556 6.74856ZM4.27565 3.42618C4.34592 3.17484 4.57464 3.00078 4.83562 3.00003L4.82937 0.840027C3.60176 0.843584 2.52598 1.66231 2.19543 2.84459L4.27565 3.42618ZM4.8325 3.00003H19.1648V0.840027H4.8325V3.00003ZM19.1617 3.00003C19.4227 3.00078 19.6514 3.17484 19.7216 3.42619L21.8018 2.84458C21.4714 1.66231 20.3955 0.843584 19.1679 0.840027L19.1617 3.00003ZM19.7493 3.5113L20.9517 6.74986L22.9766 5.99803L21.7742 2.75947L19.7493 3.5113ZM20.9204 6.65138C21.167 7.57904 20.8075 8.56191 20.0209 9.1117L21.258 10.8823C22.7885 9.81281 23.4875 7.90098 23.008 6.09652L20.9204 6.65138ZM10.1993 20.64V16.32H8.03938V20.64H10.1993ZM10.1993 16.32C10.1993 16.1212 10.3606 15.96 10.5593 15.96V13.8C9.16757 13.8 8.03938 14.9283 8.03938 16.32H10.1993ZM10.5593 15.96H13.4393V13.8H10.5593V15.96ZM13.4393 15.96C13.6382 15.96 13.7993 16.1212 13.7993 16.32H15.9593C15.9593 14.9283 14.8311 13.8 13.4393 13.8V15.96ZM13.7993 16.32V20.64H15.9593V16.32H13.7993ZM9.11933 21.72H14.8793V19.56H9.11933V21.72ZM16.4014 7.1976L16.3913 6.35952L14.2315 6.3855L14.2416 7.22357L16.4014 7.1976ZM14.2786 7.4745L14.5045 8.37163L16.5991 7.8438L16.373 6.94668L14.2786 7.4745ZM14.5068 8.38018C14.8684 9.76716 15.884 10.8904 17.2277 11.3893L17.9797 9.36454C17.2968 9.11091 16.7807 8.54008 16.597 7.83523L14.5068 8.38018ZM17.2277 11.3893C18.5714 11.8884 20.074 11.7004 21.2534 10.8855L20.0255 9.10843C19.4261 9.52251 18.6625 9.61812 17.9797 9.36454L17.2277 11.3893ZM19.5595 10.0075L19.6344 17.736L21.7942 17.715L21.7193 9.98647L19.5595 10.0075ZM19.6344 17.7384C19.6401 18.2195 19.4531 18.6829 19.1148 19.0252L20.6513 20.5434C21.3953 19.7904 21.8069 18.7709 21.7942 17.7125L19.6344 17.7384ZM19.1148 19.0252C18.7767 19.3675 18.3155 19.56 17.8344 19.56L17.8342 21.72C18.8928 21.7202 19.9072 21.2964 20.6513 20.5434L19.1148 19.0252ZM17.8344 19.56H14.8793V21.72H17.8342L17.8344 19.56Z" fill="white"/>
</svg>
