<svg width="148" height="810" viewBox="0 0 148 810" fill="none" xmlns="http://www.w3.org/2000/svg">
<g clip-path="url(#clip0_468_1402)">
<g filter="url(#filter0_d_468_1402)">
<mask id="mask0_468_1402" style="mask-type:luminance" maskUnits="userSpaceOnUse" x="1" y="0" width="147" height="810">
<path d="M1 0L1 810H148L148 0H1Z" fill="white"/>
</mask>
<g mask="url(#mask0_468_1402)">
<path d="M148 810V790.706C148 770.906 148 734.062 148 694.237C148 655.875 148 618.469 148 578.7C148 539.156 148 506.812 148 466.875C148 426.938 148 390.206 148 351.562C148 312.919 148 275.906 148 237.375C148 198.844 148 154.294 148 115.763C148 77.2313 148 38.6438 148 19.2938V0H83L83 19.2938C83 38.6438 83 77.2313 83 115.763C83 154.294 83 192.769 83 231.3C83 269.831 83 308.419 83 347.062C83 385.706 83 424.294 83 462.938C83 501.581 83 540.169 83 578.7C83 617.231 83 655.706 83 694.237C83 732.769 83 771.356 83 790.706V810H148Z" fill="#8B623B"/>
<path d="M111.5 810L117.2 790.706C122.8 771.356 134.2 732.769 134.7 694.237C135.2 655.706 124.8 617.231 124.8 578.7C124.8 540.169 135.2 501.581 130.2 462.938C125.2 424.294 104.8 385.706 99.3 347.062C93.8 308.419 103.2 269.831 116 231.3C128.8 192.769 145.2 154.294 146.8 115.763C148.5 77.2313 135.5 38.6438 129 19.2938L122.5 0H1.5L1.5 19.2938C1.5 38.6438 1.5 77.2313 1.5 115.763C1.5 154.294 1.5 192.769 1.5 231.3C1.5 269.831 1.5 308.419 1.5 347.062C1.5 385.706 1.5 424.294 1.5 462.938C1.5 501.581 1.5 540.169 1.5 578.7C1.5 617.231 1.5 655.706 1.5 694.237C1.5 732.769 1.5 771.356 1.5 790.706L1.5 810H111.5Z" fill="#B0875F"/>
<path d="M119.5 810L117.5 790.706C115.5 771.356 111.5 732.769 106.2 694.237C100.8 655.706 94.2 617.231 85.8 578.7C77.5 540.169 67.5 501.581 65.5 462.938C63.5 424.294 69.5 385.706 68.5 347.062C67.5 308.419 59.5 269.831 61.3 231.3C63.2 192.769 74.8 154.294 74.5 115.763C74.2 77.2313 61.8 38.6438 55.7 19.2938L49.5 0H1.5L1.5 19.2938C1.5 38.6438 1.5 77.2313 1.5 115.763C1.5 154.294 1.5 192.769 1.5 231.3C1.5 269.831 1.5 308.419 1.5 347.062C1.5 385.706 1.5 424.294 1.5 462.938C1.5 501.581 1.5 540.169 1.5 578.7C1.5 617.231 1.5 655.706 1.5 694.237C1.5 732.769 1.5 771.356 1.5 790.706L1.5 810H119.5Z" fill="#D1AE8D"/>
<path d="M40.5 810L43.3 790.706C46.2 771.356 51.8 732.769 56.2 694.237C60.5 655.706 63.5 617.231 65.3 578.7C67.2 540.169 67.8 501.581 60.8 462.938C53.8 424.294 39.2 385.706 33.7 347.062C28.2 308.419 31.8 269.831 35 231.3C38.2 192.769 40.8 154.294 39.2 115.763C37.5 77.2313 31.5 38.6438 28.5 19.2938L25.5 0H1.5L1.5 19.2938C1.5 38.6438 1.5 77.2313 1.5 115.763C1.5 154.294 1.5 192.769 1.5 231.3C1.5 269.831 1.5 308.419 1.5 347.062C1.5 385.706 1.5 424.294 1.5 462.938C1.5 501.581 1.5 540.169 1.5 578.7C1.5 617.231 1.5 655.706 1.5 694.237C1.5 732.769 1.5 771.356 1.5 790.706L1.5 810H40.5Z" fill="#F7DDC5"/>
<path d="M16.4999 810L12.2999 790.706C8.19995 771.356 -0.200055 732.769 1.49995 694.237C3.19995 655.706 14.7999 617.231 20.4999 578.7C26.1999 540.169 25.7999 501.581 23.9999 462.938C22.1999 424.294 18.7999 385.706 20.1999 347.062C21.4999 308.419 27.4999 269.831 29.6999 231.3C31.7999 192.769 30.1999 154.294 27.1999 115.763C24.1999 77.2313 19.7999 38.6438 17.6999 19.2938L15.4999 0H1.49994L1.49994 19.2938C1.49994 38.6438 1.49994 77.2313 1.49994 115.763C1.49994 154.294 1.49994 192.769 1.49994 231.3C1.49994 269.831 1.49994 308.419 1.49994 347.062C1.49994 385.706 1.49994 424.294 1.49994 462.938C1.49994 501.581 1.49994 540.169 1.49994 578.7C1.49994 617.231 1.49995 655.706 1.49995 694.237C1.49995 732.769 1.49994 771.356 1.49994 790.706L1.49994 810H16.4999Z" fill="#FFF3E7"/>
</g>
</g>
<path d="M0 0L0 810H2L2 0H0Z" fill="#FEFEE3"/>
</g>
<defs>
<filter id="filter0_d_468_1402" x="-2.72412" y="0" width="154.724" height="818" filterUnits="userSpaceOnUse" color-interpolation-filters="sRGB">
<feFlood flood-opacity="0" result="BackgroundImageFix"/>
<feColorMatrix in="SourceAlpha" type="matrix" values="0 0 0 0 0 0 0 0 0 0 0 0 0 0 0 0 0 0 127 0" result="hardAlpha"/>
<feOffset dy="4"/>
<feGaussianBlur stdDeviation="2"/>
<feComposite in2="hardAlpha" operator="out"/>
<feColorMatrix type="matrix" values="0 0 0 0 0 0 0 0 0 0 0 0 0 0 0 0 0 0 0.25 0"/>
<feBlend mode="normal" in2="BackgroundImageFix" result="effect1_dropShadow_468_1402"/>
<feBlend mode="normal" in="SourceGraphic" in2="effect1_dropShadow_468_1402" result="shape"/>
</filter>
<clipPath id="clip0_468_1402">
<rect width="810" height="148" fill="white" transform="matrix(0 -1 1 0 0 810)"/>
</clipPath>
</defs>
</svg>
