<svg width="19" height="23" viewBox="0 0 19 23" fill="none" xmlns="http://www.w3.org/2000/svg">
<path d="M7.37939 0.0853519C6.72802 0.296484 6.17099 0.866993 5.97782 1.52285C5.92841 1.68906 5.90595 1.94961 5.90595 2.31797V2.87051L3.67333 2.88399L1.43622 2.89746L1.16669 3.02773C0.820791 3.19844 0.479384 3.53984 0.308681 3.88574L0.178408 4.15527L0.164931 5.79492C0.155947 7.37168 0.155947 7.43906 0.245791 7.58281C0.389541 7.81641 0.582705 7.90625 0.928603 7.90625H1.22509L1.25204 8.18476C1.26552 8.34199 1.40927 11.2979 1.57099 14.7568C1.7327 18.2158 1.88993 21.1582 1.91688 21.293C2.06513 22.0477 2.61317 22.6586 3.35888 22.9057C3.64189 23 3.65087 23 9.59403 22.991L15.5462 22.9775L15.8966 22.8023C16.521 22.4969 16.9612 21.9398 17.087 21.293C17.114 21.1582 17.2667 18.2158 17.4284 14.7568C17.5901 11.2979 17.7339 8.34199 17.7474 8.18476L17.7743 7.90625H18.0708C18.4167 7.90625 18.6099 7.81641 18.7536 7.58281C18.8435 7.43906 18.8435 7.37168 18.8345 5.79492L18.821 4.15527L18.6907 3.88574C18.52 3.53984 18.1786 3.19844 17.8327 3.02773L17.5632 2.89746L15.3306 2.88399L13.0934 2.87051V2.31797C13.0934 1.8957 13.071 1.69356 13.0081 1.48691C12.8015 0.826563 12.2354 0.265039 11.5706 0.0718746C11.364 0.00898552 11.036 0 9.48173 0.00449181C7.81962 0.00449181 7.60849 0.0134773 7.37939 0.0853519ZM11.045 1.48242C11.4673 1.57676 11.6155 1.81934 11.647 2.43027L11.6694 2.875H9.4997H7.32997L7.35243 2.43027C7.38388 1.82832 7.53661 1.57676 7.93192 1.48242C8.14306 1.43301 10.8294 1.42852 11.045 1.48242ZM17.1544 4.37539C17.379 4.46973 17.406 4.60449 17.406 5.59727V6.46875H9.4997H1.59345V5.59727C1.59345 4.61797 1.62489 4.46973 1.83603 4.37539C2.04716 4.28555 16.9343 4.28106 17.1544 4.37539ZM16.2559 8.18476C16.247 8.34199 16.1032 11.2754 15.946 14.7119C15.6675 20.7045 15.6495 20.965 15.5597 21.1492C15.5058 21.2525 15.389 21.3828 15.2991 21.4412L15.1374 21.54H9.4997H3.862L3.70028 21.4412C3.61044 21.3828 3.49364 21.2525 3.43974 21.1492C3.34989 20.965 3.33192 20.7045 3.05341 14.7119C2.89618 11.2754 2.75243 8.34199 2.74345 8.18476L2.72099 7.90625H9.4997H16.2784L16.2559 8.18476Z" fill="white"/>
<path d="M5.51094 9.43359C5.43008 9.48301 5.32676 9.58633 5.27734 9.66719C5.1875 9.81094 5.1875 9.90527 5.1875 14.7344C5.1875 19.5635 5.1875 19.6578 5.27734 19.8016C5.41211 20.0172 5.61426 20.125 5.90625 20.125C6.19824 20.125 6.40039 20.0172 6.53516 19.8016C6.625 19.6578 6.625 19.5635 6.625 14.7344C6.625 9.90527 6.625 9.81094 6.53516 9.66719C6.40039 9.45156 6.19824 9.34375 5.90625 9.34375C5.74004 9.34375 5.60977 9.3707 5.51094 9.43359Z" fill="white"/>
<path d="M9.10469 9.43359C9.02383 9.48301 8.92051 9.58633 8.87109 9.66719C8.78125 9.81094 8.78125 9.90527 8.78125 14.7344C8.78125 19.5635 8.78125 19.6578 8.87109 19.8016C9.00586 20.0172 9.20801 20.125 9.5 20.125C9.79199 20.125 9.99414 20.0172 10.1289 19.8016C10.2188 19.6578 10.2188 19.5635 10.2188 14.7344C10.2188 9.90527 10.2188 9.81094 10.1289 9.66719C9.99414 9.45156 9.79199 9.34375 9.5 9.34375C9.33379 9.34375 9.20352 9.3707 9.10469 9.43359Z" fill="white"/>
<path d="M12.6984 9.43359C12.6176 9.48301 12.5143 9.58633 12.4648 9.66719C12.375 9.81094 12.375 9.90527 12.375 14.7344C12.375 19.5635 12.375 19.6578 12.4648 19.8016C12.5996 20.0172 12.8018 20.125 13.0938 20.125C13.3857 20.125 13.5879 20.0172 13.7227 19.8016C13.8125 19.6578 13.8125 19.5635 13.8125 14.7344C13.8125 9.90527 13.8125 9.81094 13.7227 9.66719C13.5879 9.45156 13.3857 9.34375 13.0938 9.34375C12.9275 9.34375 12.7973 9.3707 12.6984 9.43359Z" fill="white"/>
</svg>
