<svg viewBox="0 0 342 810" fill="none" xmlns="http://www.w3.org/2000/svg">
<g clip-path="url(#clip0_260_1343)">
<path d="M50 810L60.8 790.7C71.7 771.3 93.3 732.7 90 694.2C86.7 655.7 58.3 617.3 41.7 578.8C25 540.3 20 501.7 22.5 463C25 424.3 35 385.7 35.8 347C36.7 308.3 28.3 269.7 26.7 231.2C25 192.7 30 154.3 25.2 115.8C20.3 77.3 5.69999 38.7 -1.70001 19.3L-9 0H342V19.3C342 38.7 342 77.3 342 115.8C342 154.3 342 192.7 342 231.2C342 269.7 342 308.3 342 347C342 385.7 342 424.3 342 463C342 501.7 342 540.3 342 578.8C342 617.3 342 655.7 342 694.2C342 732.7 342 771.3 342 790.7V810H50Z" fill="#008037"/>
<path d="M114 810L119 790.7C124 771.3 134 732.7 130.8 694.2C127.7 655.7 111.3 617.3 104.2 578.8C97 540.3 99 501.7 101.7 463C104.3 424.3 107.7 385.7 115 347C122.3 308.3 133.7 269.7 132.3 231.2C131 192.7 117 154.3 109.3 115.8C101.7 77.3 100.3 38.7 99.7 19.3L99 0H342V19.3C342 38.7 342 77.3 342 115.8C342 154.3 342 192.7 342 231.2C342 269.7 342 308.3 342 347C342 385.7 342 424.3 342 463C342 501.7 342 540.3 342 578.8C342 617.3 342 655.7 342 694.2C342 732.7 342 771.3 342 790.7V810H114Z" fill="#40A062"/>
<path d="M166 810L169.2 790.7C172.3 771.3 178.7 732.7 176.7 694.2C174.7 655.7 164.3 617.3 155.5 578.8C146.7 540.3 139.3 501.7 139.8 463C140.3 424.3 148.7 385.7 161.2 347C173.7 308.3 190.3 269.7 195.8 231.2C201.3 192.7 195.7 154.3 185 115.8C174.3 77.3 158.7 38.7 150.8 19.3L143 0H342V19.3C342 38.7 342 77.3 342 115.8C342 154.3 342 192.7 342 231.2C342 269.7 342 308.3 342 347C342 385.7 342 424.3 342 463C342 501.7 342 540.3 342 578.8C342 617.3 342 655.7 342 694.2C342 732.7 342 771.3 342 790.7V810H166Z" fill="#7FBF8D"/>
<path d="M229 810L233.5 790.7C238 771.3 247 732.7 245.3 694.2C243.7 655.7 231.3 617.3 218.8 578.8C206.3 540.3 193.7 501.7 192.7 463C191.7 424.3 202.3 385.7 210.8 347C219.3 308.3 225.7 269.7 226 231.2C226.3 192.7 220.7 154.3 221.3 115.8C222 77.3 229 38.7 232.5 19.3L236 0H342V19.3C342 38.7 342 77.3 342 115.8C342 154.3 342 192.7 342 231.2C342 269.7 342 308.3 342 347C342 385.7 342 424.3 342 463C342 501.7 342 540.3 342 578.8C342 617.3 342 655.7 342 694.2C342 732.7 342 771.3 342 790.7V810H229Z" fill="#B7DBB3"/>
<path d="M268 810L264.5 790.7C261 771.3 254 732.7 253.5 694.2C253 655.7 259 617.3 263.7 578.8C268.3 540.3 271.7 501.7 270 463C268.3 424.3 261.7 385.7 264.8 347C268 308.3 281 269.7 282.7 231.2C284.3 192.7 274.7 154.3 271.7 115.8C268.7 77.3 272.3 38.7 274.2 19.3L276 0H342V19.3C342 38.7 342 77.3 342 115.8C342 154.3 342 192.7 342 231.2C342 269.7 342 308.3 342 347C342 385.7 342 424.3 342 463C342 501.7 342 540.3 342 578.8C342 617.3 342 655.7 342 694.2C342 732.7 342 771.3 342 790.7V810H268Z" fill="#FEFEE3"/>
</g>
<defs>
<clipPath id="clip0_260_1343">
<rect width="342" height="810" fill="white" transform="matrix(-1 0 0 -1 342 810)"/>
</clipPath>
</defs>
</svg>
