<svg width="342" height="810" viewBox="0 0 342 810" fill="none" xmlns="http://www.w3.org/2000/svg">
<path d="M292 0L281.2 19.3C270.3 38.7 248.7 77.3 252 115.8C255.3 154.3 283.7 192.7 300.3 231.2C317 269.7 322 308.3 319.5 347C317 385.7 307 424.3 306.2 463C305.3 501.7 313.7 540.3 315.3 578.8C317 617.3 312 655.7 316.8 694.2C321.7 732.7 336.3 771.3 343.7 790.7L351 810H0L0 790.7C0 771.3 0 732.7 0 694.2C0 655.7 0 617.3 0 578.8C0 540.3 0 501.7 0 463C0 424.3 0 385.7 0 347C0 308.3 0 269.7 0 231.2C0 192.7 0 154.3 0 115.8C0 77.3 0 38.7 0 19.3L0 0L292 0Z" fill="#008037"/>
<path d="M228 0L223 19.3C218 38.7 208 77.3 211.2 115.8C214.3 154.3 230.7 192.7 237.8 231.2C245 269.7 243 308.3 240.3 347C237.7 385.7 234.3 424.3 227 463C219.7 501.7 208.3 540.3 209.7 578.8C211 617.3 225 655.7 232.7 694.2C240.3 732.7 241.7 771.3 242.3 790.7L243 810H0L0 790.7C0 771.3 0 732.7 0 694.2C0 655.7 0 617.3 0 578.8C0 540.3 0 501.7 0 463C0 424.3 0 385.7 0 347C0 308.3 0 269.7 0 231.2C0 192.7 0 154.3 0 115.8C0 77.3 0 38.7 0 19.3L0 0L228 0Z" fill="#40A062"/>
<path d="M176 0L172.8 19.3C169.7 38.7 163.3 77.3 165.3 115.8C167.3 154.3 177.7 192.7 186.5 231.2C195.3 269.7 202.7 308.3 202.2 347C201.7 385.7 193.3 424.3 180.8 463C168.3 501.7 151.7 540.3 146.2 578.8C140.7 617.3 146.3 655.7 157 694.2C167.7 732.7 183.3 771.3 191.2 790.7L199 810H0L0 790.7C0 771.3 0 732.7 0 694.2C0 655.7 0 617.3 0 578.8C0 540.3 0 501.7 0 463C0 424.3 0 385.7 0 347C0 308.3 0 269.7 0 231.2C0 192.7 0 154.3 0 115.8C0 77.3 0 38.7 0 19.3L0 0L176 0Z" fill="#7FBF8D"/>
<path d="M113 0L108.5 19.3C104 38.7 95 77.3 96.7 115.8C98.3 154.3 110.7 192.7 123.2 231.2C135.7 269.7 148.3 308.3 149.3 347C150.3 385.7 139.7 424.3 131.2 463C122.7 501.7 116.3 540.3 116 578.8C115.7 617.3 121.3 655.7 120.7 694.2C120 732.7 113 771.3 109.5 790.7L106 810H0L0 790.7C0 771.3 0 732.7 0 694.2C0 655.7 0 617.3 0 578.8C0 540.3 0 501.7 0 463C0 424.3 0 385.7 0 347C0 308.3 0 269.7 0 231.2C0 192.7 0 154.3 0 115.8C0 77.3 0 38.7 0 19.3L0 0L113 0Z" fill="#B7DBB3"/>
<path d="M74 0L77.5 19.3C81 38.7 88 77.3 88.5 115.8C89 154.3 83 192.7 78.3 231.2C73.7 269.7 70.3 308.3 72 347C73.7 385.7 80.3 424.3 77.2 463C74 501.7 61 540.3 59.3 578.8C57.7 617.3 67.3 655.7 70.3 694.2C73.3 732.7 69.7 771.3 67.8 790.7L66 810H0L0 790.7C0 771.3 0 732.7 0 694.2C0 655.7 0 617.3 0 578.8C0 540.3 0 501.7 0 463C0 424.3 0 385.7 0 347C0 308.3 0 269.7 0 231.2C0 192.7 0 154.3 0 115.8C0 77.3 0 38.7 0 19.3L0 0L74 0Z" fill="#FEFEE3"/>
</svg>
